<?xml version="1.0" encoding="utf-8"?>
<!-- Generator: Adobe Illustrator 24.0.3, SVG Export Plug-In . SVG Version: 6.00 Build 0)  -->
<svg version="1.1" id="Layer_1" xmlns="http://www.w3.org/2000/svg" xmlns:xlink="http://www.w3.org/1999/xlink" x="0px" y="0px"
	 viewBox="0 0 28.82 28.82" style="enable-background:new 0 0 28.82 28.82;" xml:space="preserve">
<path style="fill:#ECEBE9;" d="M26.75,19.77V9.05c0-1.1-0.58-2.11-1.53-2.66l-9.28-5.36c-0.95-0.55-2.12-0.55-3.07,0L3.6,6.4
	C2.65,6.95,2.07,7.96,2.07,9.05v10.71c0,1.1,0.58,2.11,1.53,2.66l9.28,5.36c0.95,0.55,2.12,0.55,3.07,0l9.28-5.36
	C26.17,21.87,26.75,20.86,26.75,19.77z"/>
<path style="fill:#2D323B;" d="M25.09,19.04V9.78c0-0.95-0.51-1.82-1.33-2.3l-8.02-4.63c-0.82-0.47-1.83-0.47-2.65,0L5.06,7.48
	c-0.82,0.47-1.33,1.35-1.33,2.3v9.26c0,0.95,0.51,1.82,1.33,2.3l8.02,4.63c0.82,0.47,1.83,0.47,2.65,0l8.02-4.63
	C24.58,20.87,25.09,19.99,25.09,19.04z"/>
<g>
</g>
<g>
</g>
<g>
</g>
<g>
</g>
<g>
</g>
<g>
</g>
<g>
</g>
<g>
</g>
<g>
</g>
<g>
</g>
<g>
</g>
<g>
</g>
<g>
</g>
<g>
</g>
<g>
</g>
</svg>
