<svg id="a401e5e6-9b17-436f-b629-106a4a616eda" data-name="Layer 1" xmlns="http://www.w3.org/2000/svg" viewBox="0 0 100 100">
  <title>icokt</title>
  <path d="M77.69,86.92,95.87,55.1a10.48,10.48,0,0,0-.05-10.49L77.35,13a10.48,10.48,0,0,0-9.11-5.2L31.6,7.93a10.48,10.48,0,0,0-9.06,5.29L4.36,45a10.48,10.48,0,0,0,0,10.49L22.87,87.16A10.48,10.48,0,0,0,32,92.36l36.64-.17A10.46,10.46,0,0,0,77.69,86.92Z" style="fill: #584d5c"/>
  <g id="a6960bda-a260-4660-9024-fee4561d6d66" data-name="camera">
    <path d="M64.56,35.93H35.44a8,8,0,0,0-7.94,8V59.63a8,8,0,0,0,7.94,7.94H64.56a8,8,0,0,0,7.94-7.94V43.88A8,8,0,0,0,64.56,35.93Zm-26.32,24a1.19,1.19,0,0,1-1.19,1.19H32.48a1.19,1.19,0,0,1-1.19-1.19V44.41a1.19,1.19,0,0,1,1.19-1.2h4.57a1.2,1.2,0,0,1,1.19,1.2Zm18,4.5A12.25,12.25,0,1,1,68.53,52.15,12.25,12.25,0,0,1,56.29,64.39Z" style="fill: #fff"/>
    <path d="M56.29,42.68a9.47,9.47,0,1,0,9.46,9.47A9.48,9.48,0,0,0,56.29,42.68Zm7.44,11a.79.79,0,0,1-.79-.8.79.79,0,0,1,.79-.79.79.79,0,0,1,.8.79A.8.8,0,0,1,63.73,53.73Zm.1-2.37h-.16a.79.79,0,0,1-.78-.63,6.77,6.77,0,0,0-5.36-5.23A.79.79,0,1,1,57.82,44a8.34,8.34,0,0,1,6.62,6.47A.79.79,0,0,1,63.83,51.36Z" style="fill: #fff"/>
    <path d="M62.25,32.43H57.57c-2.34,0-2.64,1.53-2.72,3H65C64.88,34,64.52,32.43,62.25,32.43Z" style="fill: #fff"/>
  </g>
</svg>
