<svg id="ee7ade76-80ed-4038-9bc0-546cebf3fdb8" data-name="Layer 1" xmlns="http://www.w3.org/2000/svg" viewBox="0 0 100 100">
  <title>icokt</title>
  <path d="M77.69,86.92,95.87,55.1a10.48,10.48,0,0,0-.05-10.49L77.35,13a10.48,10.48,0,0,0-9.11-5.2L31.6,7.93a10.48,10.48,0,0,0-9.06,5.29L4.36,45a10.48,10.48,0,0,0,0,10.49L22.87,87.16A10.48,10.48,0,0,0,32,92.36l36.64-.17A10.46,10.46,0,0,0,77.69,86.92Z" style="fill: #e5c23e"/>
  <g id="fe0541fb-581f-4e5f-a8f3-6de11914ef25" data-name="color-palette">
    <g>
      <path d="M72.34,57.16,68,46.58a2.09,2.09,0,0,0-2.73-1.15l-4.55,1.86L45.8,69.52v.75L71.19,59.9A2.1,2.1,0,0,0,72.34,57.16Z" style="fill: #fff"/>
      <path d="M61.63,40.94A2.1,2.1,0,0,0,61.06,38l-8.91-6-.57-.38a2.11,2.11,0,0,0-2.92.57L45.8,36.49v28L56.1,49.18Z" style="fill: #fff"/>
      <path d="M41,28.44H29.6a2.1,2.1,0,0,0-2.1,2.1V70.28a1.28,1.28,0,0,0,1.28,1.28H41.85a1.24,1.24,0,0,0,.9-.38,1.28,1.28,0,0,0,.38-.9V30.54A2.1,2.1,0,0,0,41,28.44ZM30.9,35.69h8.35v4.94H30.9Zm0,8.74h8.35v4.94H30.9Zm0,13.67V53.16h8.35V58.1Zm7.29,9.6A1.8,1.8,0,1,1,40,65.9,1.8,1.8,0,0,1,38.19,67.7Z" style="fill: #fff"/>
    </g>
  </g>
</svg>
