<svg id="e61a6594-dec0-4c58-8526-bd5a3328da50" data-name="Layer 1" xmlns="http://www.w3.org/2000/svg" viewBox="0 0 100 100">
  <title>icokt</title>
  <path d="M77.69,86.92,95.87,55.1a10.48,10.48,0,0,0-.05-10.49L77.35,13a10.48,10.48,0,0,0-9.11-5.2L31.6,7.93a10.48,10.48,0,0,0-9.06,5.29L4.36,45a10.48,10.48,0,0,0,0,10.49L22.87,87.16A10.48,10.48,0,0,0,32,92.36l36.64-.17A10.46,10.46,0,0,0,77.69,86.92Z" style="fill: #ea778f"/>
  <g id="b0d20fd0-3359-4c89-8e87-e437b29cc1bb" data-name="images">
    <path d="M68.94,36.44l-25-7.18a6.58,6.58,0,0,0-8.18,4.35l-1.59,5.53H32.85a6.58,6.58,0,0,0-6.67,6.43v19A6.58,6.58,0,0,0,32.85,71h26a6.68,6.68,0,0,0,6.36-4.49,6.26,6.26,0,0,0,3.09-3.79l5.24-18.27A6.57,6.57,0,0,0,68.94,36.44ZM63.46,64.57a4.47,4.47,0,0,1-4.57,4.33h-26a4.48,4.48,0,0,1-4.57-4.33v-19a4.48,4.48,0,0,1,4.57-4.33h26a4.47,4.47,0,0,1,4.57,4.33Zm8.1-20.69L66.32,62.14a4,4,0,0,1-.76,1.44v-18a6.58,6.58,0,0,0-6.67-6.43H36.32l1.42-5a4.49,4.49,0,0,1,5.59-2.9l25,7.18A4.48,4.48,0,0,1,71.56,43.88Z" style="fill: #fff"/>
    <path d="M56.56,47.61c-.33,0-.91.28-1.86,1.24l-5.88,5.88,6.06,5.56a.69.69,0,0,1,0,1,.68.68,0,0,1-.51.23.74.74,0,0,1-.48-.18l-9.2-8.46c-1.53-1.29-2.5-1.83-3.24-1.82s-1.65.48-3.1,1.81L30.58,60v2.51c0,3.14,2,4.22,4.47,4.22H56.7c2.46,0,4.47-1.08,4.47-4.22v-11l-2.64-2.64C57.53,47.93,56.92,47.59,56.56,47.61Z" style="fill: #fff"/>
    <path d="M47.8,52a3.33,3.33,0,1,0-3.33-3.33A3.33,3.33,0,0,0,47.8,52Z" style="fill: #fff"/>
  </g>
</svg>
