<svg id="bfee3f38-5614-48ef-beb8-3b056952c6fd" data-name="Layer 1" xmlns="http://www.w3.org/2000/svg" viewBox="0 0 100 100">
  <title>icokt</title>
  <path d="M77.58,86.86,95.76,55a10.48,10.48,0,0,0-.06-10.49L77.23,12.9a10.48,10.48,0,0,0-9.11-5.2l-36.64.17a10.48,10.48,0,0,0-9.06,5.29L4.24,45a10.48,10.48,0,0,0,0,10.49L22.75,87.1a10.48,10.48,0,0,0,9.11,5.2l36.64-.17A10.47,10.47,0,0,0,77.58,86.86Z" style="fill: #42758c"/>
  <g>
    <path d="M43.11,52.15V42.06l8.77,5.08Zm1.54-2.63,4.08-2.39-4.08-2.4Z" style="fill: #ecebe9"/>
    <line x1="26.74" y1="63.75" x2="49.48" y2="63.75" style="fill: none;stroke: #fff;stroke-linecap: round;stroke-miterlimit: 10;stroke-width: 2px"/>
    <line x1="26.74" y1="70.53" x2="49.48" y2="70.53" style="fill: none;stroke: #fff;stroke-linecap: round;stroke-miterlimit: 10;stroke-width: 2px"/>
    <line x1="26.74" y1="77.31" x2="49.48" y2="77.31" style="fill: none;stroke: #fff;stroke-linecap: round;stroke-miterlimit: 10;stroke-width: 2px"/>
    <path d="M72.64,32.2H26.16a2.62,2.62,0,0,1-2.62-2.62V24.52a2.62,2.62,0,0,1,2.62-2.63H72.64a2.62,2.62,0,0,1,2.62,2.63" style="fill: none;stroke: #fff;stroke-linecap: round;stroke-miterlimit: 10;stroke-width: 2px"/>
    <rect x="20.13" y="38.52" width="50" height="17.16" rx="2.37" style="fill: none;stroke: #fff;stroke-linecap: round;stroke-miterlimit: 10;stroke-width: 2px"/>
    <g id="a192cc61-f613-44f7-b1eb-8d3cd296d188" data-name="baICRm.tif">
      <path d="M77.78,33.28l-.28.33-.83.83a.42.42,0,0,1-.75-.18c-.39-1.19-.79-2.38-1.18-3.57-.23-.67-.45-1.34-.67-2a.41.41,0,0,1,.27-.58.53.53,0,0,1,.25,0l2.44.82,2.92,1,.3.1a.41.41,0,0,1,.15.72l-1,1c-.08.08-.07.12,0,.2l2.57,2.58a1,1,0,0,1,.15,1.37,1.05,1.05,0,0,1-1.56.14L79.09,34.6Z" style="fill: #fff"/>
    </g>
    <rect x="55.79" y="63.75" width="18.24" height="14.21" rx="1.09" style="fill: none;stroke: #fff;stroke-linecap: round;stroke-miterlimit: 10;stroke-width: 2px"/>
    <path d="M55.79,76.87,61.29,70a1.44,1.44,0,0,1,1.47.07l1.44,1.68a1,1,0,0,0,1.66-.39l1.74-4c.71-.5,1-.5,1.66,0L74,72.3" style="fill: none;stroke: #fff;stroke-linecap: round;stroke-miterlimit: 10;stroke-width: 2px"/>
  </g>
</svg>
