<svg id="fb9bd8be-c38b-4c0d-a305-03efbc8308ce" data-name="Layer 1" xmlns="http://www.w3.org/2000/svg" viewBox="0 0 100 100">
  <title>icokt</title>
  <path d="M77.69,86.92,95.87,55.1a10.48,10.48,0,0,0-.05-10.49L77.35,13a10.48,10.48,0,0,0-9.11-5.2L31.6,7.93a10.48,10.48,0,0,0-9.06,5.29L4.36,45a10.48,10.48,0,0,0,0,10.49L22.87,87.16A10.48,10.48,0,0,0,32,92.36l36.64-.17A10.46,10.46,0,0,0,77.69,86.92Z" style="fill: #e76f00"/>
  <g>
    <path d="M66.93,69.84h-.26V69.7h.7v.14h-.26v.72h-.18Zm1.39,0h0l-.25.68h-.12l-.26-.68h0v.68h-.17V69.7h.25l.24.61.23-.61h.25v.86h-.16v-.68Z" style="fill: #ecebe9"/>
    <path d="M43.74,52.09s-1.8,1,1.28,1.41a27.15,27.15,0,0,0,9.77-.42,17,17,0,0,0,2.59,1.27c-9.23,4-20.89-.23-13.64-2.26" style="fill: #ecebe9"/>
    <path d="M42.61,46.93s-2,1.5,1.07,1.82a38.18,38.18,0,0,0,12.6-.61,5.42,5.42,0,0,0,1.94,1.18c-11.17,3.27-23.6.26-15.61-2.39" style="fill: #ecebe9"/>
    <path d="M52.12,38.17c2.28,2.62-.6,5-.6,5s5.78-3,3.13-6.72c-2.48-3.48-4.38-5.21,5.9-11.18,0,0-16.14,4-8.43,12.92" style="fill: #ecebe9"/>
    <path d="M64.33,55.91s1.33,1.1-1.47,2C57.53,59.48,40.68,60,36,57.93c-1.68-.74,1.47-1.75,2.47-2a6.51,6.51,0,0,1,1.62-.18C38.22,54.46,28,58.37,34.9,59.49c18.82,3,34.31-1.37,29.43-3.58" style="fill: #ecebe9"/>
    <path d="M44.61,41.58s-8.58,2-3,2.78a64.23,64.23,0,0,0,11.34-.13c3.54-.3,7.11-.93,7.11-.93a14.84,14.84,0,0,0-2.16,1.15c-8.7,2.29-25.52,1.23-20.68-1.11a16.29,16.29,0,0,1,7.43-1.76" style="fill: #ecebe9"/>
    <path d="M60,50.18c8.85-4.6,4.76-9,1.9-8.43a6.38,6.38,0,0,0-1,.28,1.63,1.63,0,0,1,.76-.59c5.65-2,10,5.86-1.83,9a.88.88,0,0,0,.18-.23" style="fill: #ecebe9"/>
    <path d="M54.65,15.62s4.9,4.9-4.65,12.44c-7.66,6.05-1.75,9.5,0,13.43-4.47-4-7.75-7.58-5.55-10.88,3.23-4.85,12.17-7.2,10.2-15" style="fill: #ecebe9"/>
    <path d="M45.47,62.63c8.5.55,21.54-.3,21.85-4.32,0,0-.6,1.53-7,2.74a70.08,70.08,0,0,1-21.49.33s1.08.9,6.66,1.25" style="fill: #ecebe9"/>
    <path d="M44.08,78a3.85,3.85,0,0,1-2.4,1.08A1.53,1.53,0,0,1,40,77.38c0-1.13.62-1.95,3.14-1.95h.93V78m2.21,2.49V72.76c0-2-1.12-3.27-3.83-3.27a10.08,10.08,0,0,0-4.1.89l.32,1.37a9.45,9.45,0,0,1,3.17-.63c1.56,0,2.23.63,2.23,1.93v1H43.3c-3.79,0-5.51,1.48-5.51,3.69,0,1.91,1.13,3,3.26,3a4.91,4.91,0,0,0,3.34-1.39l.17,1.17Z" style="fill: #ecebe9"/>
    <path d="M53.67,80.48H50.91L47.6,69.68H50l2.06,6.64.46,2a41.83,41.83,0,0,0,2.15-8.64H57a44,44,0,0,1-3.34,10.8" style="fill: #ecebe9"/>
    <path d="M64.25,78a3.88,3.88,0,0,1-2.41,1.08,1.54,1.54,0,0,1-1.67-1.69c0-1.13.63-1.95,3.15-1.95h.93V78m2.21,2.49V72.76c0-2-1.13-3.27-3.84-3.27a10.12,10.12,0,0,0-4.1.89l.33,1.37A9.45,9.45,0,0,1,62,71.12c1.57,0,2.24.63,2.24,1.93v1h-.78C59.67,74,58,75.5,58,77.71c0,1.91,1.13,3,3.25,3a4.88,4.88,0,0,0,3.34-1.39l.17,1.17Z" style="fill: #ecebe9"/>
    <path d="M35.37,82.32a5.81,5.81,0,0,1-2.76,2.06l-1.09-1.29a4.62,4.62,0,0,0,1.91-1.79,7,7,0,0,0,.41-3.13V65.84h2.35V78c0,2.4-.19,3.37-.82,4.32" style="fill: #ecebe9"/>
  </g>
</svg>
