<svg id="b0a31658-2448-4e77-8728-2fa5fa8d1c6b" data-name="Layer 1" xmlns="http://www.w3.org/2000/svg" viewBox="0 0 100 100">
  <title>icokt</title>
  <path d="M77.69,86.92,95.87,55.1a10.48,10.48,0,0,0-.05-10.49L77.35,13a10.48,10.48,0,0,0-9.11-5.2L31.6,7.93a10.48,10.48,0,0,0-9.06,5.29L4.36,45a10.48,10.48,0,0,0,0,10.49L22.87,87.16A10.48,10.48,0,0,0,32,92.36l36.64-.17A10.46,10.46,0,0,0,77.69,86.92Z" style="fill: #a34989"/>
  <g>
    <path d="M47.08,36.21,45,38.65a3.92,3.92,0,0,0-2.87-1.6,3.11,3.11,0,0,0,0,6.21A4.35,4.35,0,0,0,45,41.87l2.07,2.2A7.3,7.3,0,0,1,42,46.39a6.12,6.12,0,0,1-6.37-6.21c0-3.51,2.75-6.11,6.49-6.11A7.09,7.09,0,0,1,47.08,36.21Z" style="fill: #ecebe9"/>
    <path d="M59.55,46.24V39.1l-2.43,5.95H54.77L52.34,39.1v7.14H49.19V34.17H53l2.91,6.68,2.91-6.68h3.84V46.24Z" style="fill: #ecebe9"/>
    <path d="M44.25,66.89H40.67V63.14l-4.43-8.32h3.58l2.64,4.93L45,54.82h3.56l-4.33,8.25Z" style="fill: #ecebe9"/>
    <path d="M55.45,62.48,54.09,64v2.89H50.51V54.82h3.58v4.65l4-4.65h4.13l-4.37,4.91,4.65,7.16H58.25Z" style="fill: #ecebe9"/>
  </g>
  <path d="M70.84,30.76a1.44,1.44,0,0,0-.45-1.07l-8.07-8.07a1.44,1.44,0,0,0-1.07-.45H30.52a1.25,1.25,0,0,0-1.36,1.4c0,.49,0,1,0,1.48V77.46a1.25,1.25,0,0,0,1.38,1.37c1.32,0,2.64,0,4,0H69.4a1.27,1.27,0,0,0,1.44-1.45C70.84,75.22,70.83,35.78,70.84,30.76Zm-2.57,45.5H31.74V23.74h28.7c0,.14,0,.28,0,.41,0,1,0,2,0,2.93a4.9,4.9,0,0,0,4.35,4.42c1,.09,2,.05,3,.07h.41Z" style="fill: #ecebe9"/>
</svg>
