<svg id="ad4428df-7150-4cce-8d19-fff8cef230fa" data-name="Layer 1" xmlns="http://www.w3.org/2000/svg" viewBox="0 0 100 100">
  <title>icokt</title>
  <path d="M77.69,86.92,95.87,55.1a10.48,10.48,0,0,0-.05-10.49L77.35,13a10.48,10.48,0,0,0-9.11-5.2L31.6,7.93a10.48,10.48,0,0,0-9.06,5.29L4.36,45a10.48,10.48,0,0,0,0,10.49L22.87,87.16A10.48,10.48,0,0,0,32,92.36l36.64-.17A10.46,10.46,0,0,0,77.69,86.92Z" style="fill: #563d7c"/>
  <g>
    <g>
      <path d="M52.21,44.09H44.87v7.42h7.34a4.08,4.08,0,0,0,2.94-1,3.61,3.61,0,0,0,1.05-2.78A3.48,3.48,0,0,0,55.15,45,4.17,4.17,0,0,0,52.21,44.09Z" style="fill: #fff"/>
      <path d="M63.56,22.33H36.44a6.8,6.8,0,0,0-6.77,6.78V56.22A6.8,6.8,0,0,0,36.44,63H63.56a6.8,6.8,0,0,0,6.77-6.78V29.11A6.8,6.8,0,0,0,63.56,22.33ZM59.85,50.89A5.21,5.21,0,0,1,58.29,53a7.91,7.91,0,0,1-2.72,1.4,13.6,13.6,0,0,1-4,.51H40.72V31.17H52.25a8.27,8.27,0,0,1,5.11,1.46,5.19,5.19,0,0,1,1.93,4.42,5.24,5.24,0,0,1-.88,3.07,5.59,5.59,0,0,1-2.51,2v.07a5.18,5.18,0,0,1,3.32,2.07,6.9,6.9,0,0,1,1.13,4A6.67,6.67,0,0,1,59.85,50.89Z" style="fill: #fff"/>
      <path d="M54.14,40.26a3.09,3.09,0,0,0,1-2.45,3.1,3.1,0,0,0-.9-2.53,4.06,4.06,0,0,0-2.59-.73H44.87v6.56h6.78A3.69,3.69,0,0,0,54.14,40.26Z" style="fill: #fff"/>
    </g>
    <g>
      <path d="M22.69,75.06V65.68h3.52a4.35,4.35,0,0,1,1.72.28,2.19,2.19,0,0,1,1,.88,2.27,2.27,0,0,1,.37,1.24A2.09,2.09,0,0,1,29,69.21a2.31,2.31,0,0,1-1,.86,2.46,2.46,0,0,1,1.3.85,2.24,2.24,0,0,1,.46,1.42,2.71,2.71,0,0,1-.28,1.23,2.34,2.34,0,0,1-.68.87,2.79,2.79,0,0,1-1,.46,6,6,0,0,1-1.52.16Zm1.24-5.44h2a4.6,4.6,0,0,0,1.18-.11,1.29,1.29,0,0,0,.72-.47,1.32,1.32,0,0,0,.24-.81,1.52,1.52,0,0,0-.23-.83,1.11,1.11,0,0,0-.64-.48,5.16,5.16,0,0,0-1.43-.14H23.93Zm0,4.33h2.33a5.52,5.52,0,0,0,.85,0,2,2,0,0,0,.72-.26,1.32,1.32,0,0,0,.47-.52,1.68,1.68,0,0,0,.19-.79,1.55,1.55,0,0,0-.27-.91,1.45,1.45,0,0,0-.75-.55,4.8,4.8,0,0,0-1.37-.15H23.93Z" style="fill: #fff"/>
      <path d="M30.91,71.66A3.48,3.48,0,0,1,32,68.87a3.11,3.11,0,0,1,2.13-.76,3,3,0,0,1,2.29.92,3.47,3.47,0,0,1,.89,2.54,4.52,4.52,0,0,1-.39,2.06,2.79,2.79,0,0,1-1.14,1.17,3.35,3.35,0,0,1-1.65.42,3,3,0,0,1-2.3-.92A3.65,3.65,0,0,1,30.91,71.66Zm1.18,0a2.92,2.92,0,0,0,.57,2,1.84,1.84,0,0,0,1.43.65,1.8,1.8,0,0,0,1.43-.66,2.94,2.94,0,0,0,.57-2,2.83,2.83,0,0,0-.57-1.91,1.9,1.9,0,0,0-2.86,0A2.87,2.87,0,0,0,32.09,71.66Z" style="fill: #fff"/>
      <path d="M38.2,71.66a3.48,3.48,0,0,1,1-2.79,3.35,3.35,0,0,1,4.43.16,3.51,3.51,0,0,1,.89,2.54,4.51,4.51,0,0,1-.4,2.06A2.79,2.79,0,0,1,43,74.8a3.35,3.35,0,0,1-1.65.42,3,3,0,0,1-2.3-.92A3.65,3.65,0,0,1,38.2,71.66Zm1.18,0a2.92,2.92,0,0,0,.57,2,1.84,1.84,0,0,0,1.43.65,1.8,1.8,0,0,0,1.43-.66,2.94,2.94,0,0,0,.57-2,2.83,2.83,0,0,0-.57-1.91,1.9,1.9,0,0,0-2.86,0A2.87,2.87,0,0,0,39.38,71.66Z" style="fill: #fff"/>
      <path d="M48.43,74l.17,1a4.22,4.22,0,0,1-.87.1,2,2,0,0,1-1-.2,1,1,0,0,1-.48-.52,4,4,0,0,1-.14-1.36V69.16h-.85v-.9h.85V66.58l1.14-.69v2.37h1.16v.9H47.27v4a2.11,2.11,0,0,0,.06.64.47.47,0,0,0,.2.22.74.74,0,0,0,.4.09A4,4,0,0,0,48.43,74Z" style="fill: #fff"/>
      <path d="M49.1,73l1.14-.18a1.57,1.57,0,0,0,.53,1.05,1.83,1.83,0,0,0,1.23.37,1.74,1.74,0,0,0,1.17-.33.94.94,0,0,0,.39-.75.7.7,0,0,0-.34-.62A5.26,5.26,0,0,0,52,72.18a11.46,11.46,0,0,1-1.76-.55,1.74,1.74,0,0,1-.74-.65,1.68,1.68,0,0,1-.25-.91,1.74,1.74,0,0,1,.21-.84,1.85,1.85,0,0,1,.56-.65,2.44,2.44,0,0,1,.74-.33,3.53,3.53,0,0,1,1-.14,4,4,0,0,1,1.41.23,1.89,1.89,0,0,1,.89.62,2.64,2.64,0,0,1,.4,1.06l-1.13.15a1.25,1.25,0,0,0-.44-.82,1.69,1.69,0,0,0-1-.29,1.88,1.88,0,0,0-1.14.26.77.77,0,0,0-.34.61.68.68,0,0,0,.14.41,1.11,1.11,0,0,0,.45.3,10.25,10.25,0,0,0,1,.3,14.28,14.28,0,0,1,1.71.53,1.77,1.77,0,0,1,.76.61,1.69,1.69,0,0,1,.27,1,2,2,0,0,1-.33,1.09,2.25,2.25,0,0,1-1,.79,3.66,3.66,0,0,1-1.44.28,3.2,3.2,0,0,1-2-.56A2.56,2.56,0,0,1,49.1,73Z" style="fill: #fff"/>
      <path d="M58.63,74l.17,1a4.23,4.23,0,0,1-.88.1,2,2,0,0,1-1-.2,1,1,0,0,1-.48-.52,3.87,3.87,0,0,1-.15-1.36V69.16h-.84v-.9h.84V66.58l1.15-.69v2.37h1.16v.9H57.47v4a2.11,2.11,0,0,0,.06.64.47.47,0,0,0,.2.22.7.7,0,0,0,.39.09A3.92,3.92,0,0,0,58.63,74Z" style="fill: #fff"/>
      <path d="M59.74,75.06v-6.8h1v1a2.77,2.77,0,0,1,.73-1,1.32,1.32,0,0,1,.74-.23,2.26,2.26,0,0,1,1.19.37L63,69.55a1.61,1.61,0,0,0-.85-.25,1.09,1.09,0,0,0-.67.23,1.14,1.14,0,0,0-.43.63,4.43,4.43,0,0,0-.2,1.34v3.56Z" style="fill: #fff"/>
      <path d="M68.56,74.22a4.16,4.16,0,0,1-1.24.77,3.5,3.5,0,0,1-1.27.23,2.5,2.5,0,0,1-1.72-.55,1.82,1.82,0,0,1-.6-1.4,1.86,1.86,0,0,1,.23-.91,1.92,1.92,0,0,1,.59-.67,2.84,2.84,0,0,1,.83-.37,9,9,0,0,1,1-.18,10.8,10.8,0,0,0,2-.39c0-.16,0-.26,0-.3a1.29,1.29,0,0,0-.33-1,1.92,1.92,0,0,0-1.31-.39,2,2,0,0,0-1.2.29,1.69,1.69,0,0,0-.57,1l-1.13-.16a2.86,2.86,0,0,1,.5-1.17,2.32,2.32,0,0,1,1-.68A4.57,4.57,0,0,1,67,68.11a4.24,4.24,0,0,1,1.42.2,1.63,1.63,0,0,1,1.16,1.3,6.3,6.3,0,0,1,.06,1.07v1.53a16.64,16.64,0,0,0,.07,2,2.71,2.71,0,0,0,.29.81h-1.2A2.36,2.36,0,0,1,68.56,74.22Zm-.1-2.57a8,8,0,0,1-1.88.43,4.25,4.25,0,0,0-1,.24,1,1,0,0,0-.45.37,1,1,0,0,0-.16.55,1,1,0,0,0,.35.77,1.51,1.51,0,0,0,1,.3A2.3,2.3,0,0,0,67.51,74a1.8,1.8,0,0,0,.77-.8,2.84,2.84,0,0,0,.18-1.15Z" style="fill: #fff"/>
      <path d="M71.41,77.67V68.26h1v.89a2.56,2.56,0,0,1,.84-.78,2.33,2.33,0,0,1,1.13-.26,2.68,2.68,0,0,1,1.54.45,2.74,2.74,0,0,1,1,1.26,4.92,4.92,0,0,1,0,3.67,2.87,2.87,0,0,1-2.59,1.73,2.18,2.18,0,0,1-1-.25,2.43,2.43,0,0,1-.76-.61v3.31Zm1-6A2.92,2.92,0,0,0,73,73.64a1.61,1.61,0,0,0,1.28.63,1.69,1.69,0,0,0,1.32-.65,3.14,3.14,0,0,0,.55-2,3,3,0,0,0-.54-1.94A1.62,1.62,0,0,0,74.32,69a1.66,1.66,0,0,0-1.3.69A3.08,3.08,0,0,0,72.45,71.7Z" style="fill: #fff"/>
    </g>
  </g>
</svg>
