<svg id="b91ab534-e39b-4cfe-8881-137149c1fc23" data-name="Layer 1" xmlns="http://www.w3.org/2000/svg" viewBox="0 0 100 100">
  <title>icokt</title>
  <path d="M77.58,86.86,95.76,55a10.48,10.48,0,0,0-.06-10.49L77.23,12.9a10.48,10.48,0,0,0-9.11-5.2l-36.64.17a10.48,10.48,0,0,0-9.06,5.29L4.24,45a10.48,10.48,0,0,0,0,10.49L22.75,87.1a10.48,10.48,0,0,0,9.11,5.2l36.64-.17A10.47,10.47,0,0,0,77.58,86.86Z" style="fill: #a33639"/>
  <g>
    <path d="M35,51.77c.64-3,1.6-5.91,2-8.94.57,3,1.46,6,2.19,9Z" style="fill: #ecebe9"/>
    <path d="M78.08,34.63c.22-2.66-2.21-4.4-4.44-5.16-5.92-2.09-12.37-2.15-18.54-1.36V22.54H51.28C41.5,24.28,31.69,26,21.9,27.66V72.35c9.74,1.72,19.49,3.34,29.22,5.11h4V70.58a40.62,40.62,0,0,0,18.46-1.32c2.25-.76,4.74-2.48,4.52-5.17Q78.13,49.36,78.08,34.63ZM41.27,60.17c-.39-1.6-.8-3.2-1.22-4.79q-2.94,0-5.88-.16c-.38,1.51-.76,3-1.15,4.53-1.25-.1-2.49-.19-3.74-.27,1.86-6.73,3.8-13.43,5.66-20.15h0L39.4,39c2.14,7.16,4.17,14.35,6.29,21.51C44.21,60.41,42.73,60.3,41.27,60.17ZM55.1,30.05A40.23,40.23,0,0,1,72.29,31c1.52.57,3.57,1.25,3.91,3.07-.25,1.49-1.81,2.16-3,2.7A38.66,38.66,0,0,1,55.1,38Zm0,20.18a51.44,51.44,0,0,0,13.12,0h0c2.8-.42,5.71-1,8-2.84-.13,2.74.19,5.5-.18,8.22C74.9,57,73.09,57.43,71.46,57.9a45.91,45.91,0,0,1-16.36.61ZM76,65.81c-1.8,2-4.67,2.34-7.16,2.84a47.07,47.07,0,0,1-13.77,0c0-2.75,0-5.5,0-8.25a51.21,51.21,0,0,0,13.09,0h0c2.81-.41,5.73-1,8-2.84C76.06,60.32,76.41,63.09,76,65.81Zm0-20.43c-1.14,1.36-3,1.85-4.59,2.31a45.85,45.85,0,0,1-16.31.6V40a51.59,51.59,0,0,0,13.08,0c2.81-.42,5.74-1,8-2.85C76.06,39.88,76.41,42.66,76,45.38Z" style="fill: #ecebe9"/>
  </g>
</svg>
