<svg id="fbde03a4-a5b5-46be-8411-febf50db8dad" data-name="Layer 1" xmlns="http://www.w3.org/2000/svg" viewBox="0 0 100 100">
  <title>icokt</title>
  <path d="M77.58,86.86,95.76,55a10.48,10.48,0,0,0-.06-10.49L77.23,12.9a10.48,10.48,0,0,0-9.11-5.2l-36.64.17a10.48,10.48,0,0,0-9.06,5.29L4.24,45a10.48,10.48,0,0,0,0,10.49L22.75,87.1a10.48,10.48,0,0,0,9.11,5.2l36.64-.17A10.47,10.47,0,0,0,77.58,86.86Z" style="fill: #3753a6"/>
  <g>
    <g>
      <path d="M57.64,69.32c0,.92,0,1.85,0,2.78a.84.84,0,0,1-.44.78c-1.65.93-3.28,1.89-5,2.8a1.07,1.07,0,0,1-.84,0A11.11,11.11,0,0,1,50,74.9a.72.72,0,0,1-.31-1,.67.67,0,0,1,1-.23,1.77,1.77,0,0,0,2.42-.08C54,73,55,72.49,55.9,72a.56.56,0,0,0,.33-.57c0-1.41,0-2.82,0-4.24a.57.57,0,0,0-.34-.56c-1.25-.7-2.49-1.4-3.71-2.12a.6.6,0,0,0-.71,0c-1.23.72-2.46,1.42-3.71,2.12a.56.56,0,0,0-.32.57q0,1.71,0,3.42c0,.56-.25.85-.71.85s-.71-.3-.71-.86c0-1.35,0-2.7,0-4a.91.91,0,0,1,.51-.88c1.6-.91,3.2-1.81,4.78-2.73a1,1,0,0,1,1.07,0c1.58.92,3.18,1.83,4.77,2.73a.89.89,0,0,1,.51.88C57.63,67.47,57.64,68.39,57.64,69.32Z" style="fill: #fff"/>
      <path d="M51.83,72.24a7,7,0,0,1-1.13-.3.47.47,0,0,0-.65.14c-.39.42-.81.82-1.22,1.22s-.85.45-1.15.13-.26-.74.15-1.15.8-.83,1.23-1.22a.47.47,0,0,0,.13-.62,2.88,2.88,0,0,1,3.42-3.94,2.78,2.78,0,0,1,2.09,2.34A3,3,0,0,1,51.83,72.24Zm0-1.49a1.47,1.47,0,0,0,1.47-1.47,1.47,1.47,0,1,0-2.93,0A1.47,1.47,0,0,0,51.83,70.75Z" style="fill: #fff"/>
    </g>
    <g>
      <path d="M57.46,27.81c0,1,0,1.91,0,2.87a.9.9,0,0,1-.48.86c-1.6.94-3.21,1.89-4.8,2.85a1,1,0,0,1-1.1,0q-2.37-1.44-4.77-2.83a.9.9,0,0,1-.49-.85c0-1.93,0-3.85,0-5.78a.9.9,0,0,1,.5-.85q2.4-1.41,4.8-2.85a.93.93,0,0,1,1.06,0q2.36,1.43,4.73,2.81a1,1,0,0,1,.55.95C57.45,25.93,57.46,26.87,57.46,27.81ZM56,30.3a1.44,1.44,0,0,0,0-.24c0-1.53,0-3.06,0-4.59a.69.69,0,0,0-.29-.44c-1.26-.77-2.52-1.52-3.8-2.25a.68.68,0,0,0-.56,0c-1.29.74-2.56,1.5-3.83,2.27a.64.64,0,0,0-.28.45c0,1.56,0,3.12,0,4.68a1.58,1.58,0,0,0,.07.34,12.54,12.54,0,0,1,1-.8,10.51,10.51,0,0,1,1-.51c-.06-.78-.17-1.49-.18-2.21a2.69,2.69,0,0,1,5.33-.62,3.39,3.39,0,0,1-.35,2.7Zm-7.3,1c1,.57,1.87,1.12,2.8,1.65a.53.53,0,0,0,.45-.07c.58-.32,1.14-.67,1.71-1l1-.57C53.51,29.85,49.66,29.92,48.69,31.27Zm1.85-4.06c0,1.08.81,1.78,1.72,1.45a1.42,1.42,0,0,0,.86-1.45,1.36,1.36,0,0,0-.86-1.45C51.35,25.44,50.55,26.11,50.54,27.21Z" style="fill: #fff"/>
      <path d="M78,27.84c0,.89,0,1.79,0,2.68a.85.85,0,0,1-.48.85L72.7,34.09a1,1,0,0,1-1,0l-4.79-2.69a.88.88,0,0,1-.5-.88c0-1.81,0-3.61,0-5.42a.91.91,0,0,1,.52-.87c1.61-.89,3.2-1.79,4.8-2.7a.94.94,0,0,1,1,0c1.6.91,3.19,1.81,4.79,2.7a.88.88,0,0,1,.51.88C78,26,78,26.93,78,27.84ZM72.2,23c-.07,0-.1,0-.12,0-1.36.76-2.73,1.52-4.08,2.3a.51.51,0,0,0-.19.4c0,1.41,0,2.83,0,4.24a.67.67,0,0,0,.28.48q1.91,1.11,3.84,2.16a.67.67,0,0,0,.52,0c1.28-.7,2.55-1.42,3.82-2.12a.54.54,0,0,0,.31-.54c0-1.09,0-2.19,0-3.28V25.3L72.2,27.79Z" style="fill: #fff"/>
      <path d="M25.3,29.89c0-.23,0-.45,0-.68a.82.82,0,0,1,.44-.79.73.73,0,0,0,0-1.21.87.87,0,0,1-.45-.83c0-.46,0-.91,0-1.37a.85.85,0,0,1,.43-.79l1.19-.75a.89.89,0,0,1,1,0,.69.69,0,0,0,1-.59.85.85,0,0,1,.54-.86c2.05-1,1.22-1,3.23,0a.88.88,0,0,1,.59.92.7.7,0,0,0,1,.58.93.93,0,0,1,1.1,0,11.07,11.07,0,0,1,1.13.75,1.23,1.23,0,0,1,.4.75,10.88,10.88,0,0,1,0,1.4.8.8,0,0,1-.42.79.77.77,0,0,0,0,1.26,1.29,1.29,0,0,1,.4.74,5.42,5.42,0,0,1,0,1.45,1.14,1.14,0,0,1-.37.71,6,6,0,0,1-1.3.83,1.3,1.3,0,0,1-.89,0,.73.73,0,0,0-1.06.64.77.77,0,0,1-.49.79l0,0c-2,1-1.29,1-3.27,0a.84.84,0,0,1-.55-.85.69.69,0,0,0-1-.6.89.89,0,0,1-1,0,3,3,0,0,0-.53-.34C25.53,31.41,25,30.86,25.3,29.89Zm10.29-4.11c-.09-.7-.64-1-1.19-.72a.83.83,0,0,1-1,0,8.44,8.44,0,0,0-1-.61.8.8,0,0,1-.53-.81.79.79,0,0,0-.75-.76.77.77,0,0,0-.73.74.81.81,0,0,1-.55.84,5.28,5.28,0,0,0-1,.56.85.85,0,0,1-1.05.08.73.73,0,1,0-.71,1.27.81.81,0,0,1,.43.95,3.56,3.56,0,0,0,0,1.08.85.85,0,0,1-.42,1,.73.73,0,1,0,.71,1.26.84.84,0,0,1,1,.06,5.58,5.58,0,0,0,1,.57.82.82,0,0,1,.58.86.74.74,0,0,0,1.48,0,.85.85,0,0,1,.57-.88,5.63,5.63,0,0,0,1-.56.84.84,0,0,1,1-.08.72.72,0,1,0,.74-1.24.86.86,0,0,1-.44-1,3,3,0,0,0,0-1,.88.88,0,0,1,.44-1A2,2,0,0,0,35.59,25.78Z" style="fill: #fff"/>
      <path d="M31.12,30a2.14,2.14,0,0,1-2.18-2.13,2.17,2.17,0,1,1,4.34,0A2.13,2.13,0,0,1,31.12,30Zm0-1.44a.73.73,0,0,0,.73-.71.78.78,0,0,0-.75-.75.74.74,0,0,0-.72.72A.72.72,0,0,0,31.12,28.52Z" style="fill: #fff"/>
    </g>
    <g>
      <path d="M24.78,69.23c0-1,0-1.94,0-2.91a.81.81,0,0,1,.43-.78c1.65-1,3.28-2,4.94-2.91a1.08,1.08,0,0,1,.88,0c1.67,1,3.33,1.94,5,3a1,1,0,0,1,.4.73c0,2,0,3.92,0,5.87a1,1,0,0,1-.41.73c-1.63,1-3.28,2-4.92,3a.83.83,0,0,1-.93,0L25.2,72.93a.81.81,0,0,1-.42-.79C24.79,71.17,24.78,70.2,24.78,69.23Zm1.42,0c0,.76,0,1.52,0,2.27a.7.7,0,0,0,.28.53c1.26.77,2.53,1.51,3.79,2.27a.51.51,0,0,0,.62,0c1.25-.75,2.53-1.49,3.78-2.26a.69.69,0,0,0,.28-.49c0-1.52,0-3,0-4.55a.66.66,0,0,0-.27-.49c-1.27-.78-2.54-1.54-3.83-2.28a.65.65,0,0,0-.56,0c-1.28.73-2.53,1.49-3.8,2.23a.52.52,0,0,0-.31.54C26.21,67.72,26.2,68.46,26.2,69.21Z" style="fill: #fff"/>
      <path d="M33,66.31c.42,0,.62.33.47.75-.33.94-.67,1.88-1,2.82s-.57,1.67-.89,2.48c-.08.19-.33.45-.48.44a.78.78,0,0,1-.53-.43c-.28-.59-.47-1.21-.75-1.8a1.16,1.16,0,0,0-.53-.54c-.62-.29-1.27-.49-1.89-.77a.74.74,0,0,1-.36-.5.64.64,0,0,1,.36-.45c1.8-.67,3.61-1.31,5.42-2A1.08,1.08,0,0,1,33,66.31Zm-3.43,2.55,0,.13A1.7,1.7,0,0,1,31,70.33l.81-2.27Z" style="fill: #fff"/>
    </g>
    <g>
      <path d="M66.38,68.68c0-.74,0-1.49,0-2.23a.84.84,0,0,1,.45-.82q2.44-1.39,4.89-2.82a.87.87,0,0,1,.94,0l4.89,2.82a.84.84,0,0,1,.46.81c0,1.36,0,2.73,0,4.09a3.42,3.42,0,0,1-1.67,3c-1.21.75-2.46,1.43-3.69,2.15a.82.82,0,0,1-.9,0C70.5,75,69.26,74.31,68,73.57a3.22,3.22,0,0,1-1.66-3C66.4,70,66.38,69.32,66.38,68.68Zm10.2.19h0c0-.6,0-1.21,0-1.82a.62.62,0,0,0-.26-.45c-1.29-.77-2.58-1.52-3.89-2.25a.54.54,0,0,0-.45,0Q70,65.45,68.08,66.6a.6.6,0,0,0-.26.45c0,1.17,0,2.33,0,3.5a2.11,2.11,0,0,0,1.09,1.87c1,.59,2,1.17,3,1.72a.71.71,0,0,0,.57,0q1.53-.84,3-1.74a2.11,2.11,0,0,0,1.06-1.85C76.59,70,76.58,69.43,76.58,68.87Z" style="fill: #fff"/>
      <path d="M71.42,69.75c.84-.84,1.58-1.6,2.35-2.33a1,1,0,0,1,.66-.3.85.85,0,0,1,.58.41.78.78,0,0,1-.08.7q-1.47,1.56-3,3a.64.64,0,0,1-.91,0c-.52-.49-1-1-1.51-1.52a.68.68,0,0,1,0-1,.7.7,0,0,1,1,0,4.78,4.78,0,0,1,.45.45C71.11,69.37,71.24,69.54,71.42,69.75Z" style="fill: #fff"/>
    </g>
    <g>
      <path d="M57.46,48.41v2a2.06,2.06,0,0,1-1,1.86c-1.44.84-2.88,1.68-4.35,2.47a1.1,1.1,0,0,1-.89,0c-1.44-.78-2.85-1.6-4.27-2.42a2.11,2.11,0,0,1-1.08-1.92V46.33A2.09,2.09,0,0,1,47,44.38c1.4-.8,2.79-1.59,4.18-2.4a.94.94,0,0,1,1,0c1.39.81,2.79,1.6,4.18,2.4a2.13,2.13,0,0,1,1.12,2Zm-10.2-.06c0,.62,0,1.24,0,1.86a1,1,0,0,0,.52.93c1.2.67,2.39,1.37,3.6,2a.68.68,0,0,0,.56,0c1.2-.65,2.37-1.34,3.56-2a1,1,0,0,0,.54-.92c0-1.25,0-2.51,0-3.77a.92.92,0,0,0-.54-.91c-1.19-.67-2.36-1.36-3.56-2a.68.68,0,0,0-.56,0c-1.22.67-2.42,1.37-3.64,2.06a.88.88,0,0,0-.48.86C47.27,47.07,47.26,47.71,47.26,48.35Z" style="fill: #fff"/>
      <path d="M25.3,48.36c0-.94,0-1.88,0-2.82a.81.81,0,0,1,.45-.78c1.65-.94,3.29-1.89,4.94-2.82a1.32,1.32,0,0,1,1.64.69.77.77,0,0,1-.16.65.94.94,0,0,1-.72.2.9.9,0,0,0-.72.08c-1.22.71-2.44,1.41-3.67,2.1a.58.58,0,0,0-.34.57q0,2.12,0,4.23a.56.56,0,0,0,.34.57c1.25.71,2.5,1.42,3.75,2.15a.53.53,0,0,0,.61,0L35.2,51a.52.52,0,0,0,.3-.54c0-.71,0-1.42,0-2.14,0-.52.27-.81.71-.82s.71.31.71.82c0,.94,0,1.88,0,2.82a.8.8,0,0,1-.43.78c-1.65.94-3.28,1.9-5,2.81a1,1,0,0,1-.88,0q-2.49-1.36-4.94-2.82a1,1,0,0,1-.4-.73C25.27,50.24,25.3,49.3,25.3,48.36Z" style="fill: #fff"/>
      <path d="M77.28,49c0,.8,0,1.61,0,2.41a.81.81,0,0,1-.44.78l-4.17,2.43a.87.87,0,0,1-.94,0l-4.17-2.42a.86.86,0,0,1-.46-.82c0-1.59,0-3.18,0-4.78a1.09,1.09,0,0,1,.38-.74,9.27,9.27,0,0,1,1.32-.8.7.7,0,0,1,1,.22.76.76,0,0,1-.27,1l0,0c-.93.28-1.07,1-1,1.83s0,1.73,0,2.59a.68.68,0,0,0,.27.49c1,.62,2.06,1.23,3.1,1.81a.71.71,0,0,0,.57,0c1-.58,2.05-1.18,3.06-1.79a.67.67,0,0,0,.29-.48c0-1.17,0-2.34,0-3.51a.52.52,0,0,0-.31-.54,7.24,7.24,0,0,1-.71-.41.75.75,0,0,1-.3-1,.71.71,0,0,1,1-.23,9.76,9.76,0,0,1,1.36.81,1,1,0,0,1,.36.72C77.3,47.4,77.28,48.21,77.28,49Z" style="fill: #fff"/>
      <path d="M30.21,50.39c-.91,0-1.21-.28-1.15-1s.15-1.29.26-1.93a1.08,1.08,0,0,1,.3-.54c1.59-1.61,3.19-3.2,4.79-4.8a.77.77,0,0,1,1.26,0l1.67,1.68c.44.44.43.79,0,1.24Q35,47.43,32.55,49.8a1.46,1.46,0,0,1-.65.34C31.27,50.26,30.64,50.33,30.21,50.39Zm.39-1.51A2,2,0,0,0,32,48.35c1.15-1.22,2.36-2.39,3.55-3.58.12-.11.22-.24.32-.35l-.93-1a2.68,2.68,0,0,1-.28.45c-1.15,1.16-2.29,2.34-3.48,3.47A1.79,1.79,0,0,0,30.6,48.88Z" style="fill: #fff"/>
      <path d="M71.45,48a4.13,4.13,0,0,0-1.28-3.9,5.65,5.65,0,0,0-.84-.53c-.43-.24-.59-.59-.41-1a.71.71,0,0,1,1-.33,5.08,5.08,0,0,1,2.22,2,3.06,3.06,0,0,0,.26-.32,5,5,0,0,1,1.93-1.62c.49-.23.9-.13,1.1.27s0,.76-.46,1a3.63,3.63,0,0,0-2.09,3.31c0,.35,0,.69,0,1.11.15-.11.23-.19.33-.25a.68.68,0,0,1,.94.12.63.63,0,0,1,0,.91,21.28,21.28,0,0,1-1.58,1.57.67.67,0,0,1-1-.09l-1.35-1.35a.71.71,0,0,1-.08-1.05c.29-.32.64-.32,1.05,0Z" style="fill: #fff"/>
      <path d="M52.36,46.86c0,.47,0,.94,0,1.41s-.26.77-.69.78-.73-.28-.73-.79V45.53a.73.73,0,0,1,.71-.82.74.74,0,0,1,.71.83C52.37,46,52.36,46.42,52.36,46.86Z" style="fill: #fff"/>
      <path d="M52.36,50.52a.69.69,0,0,1-.71.72.69.69,0,0,1-.71-.67.71.71,0,1,1,1.42,0Z" style="fill: #fff"/>
    </g>
  </g>
</svg>
