<svg id="e49ab75d-887e-4821-9908-4bf9106ca4b1" data-name="Layer 1" xmlns="http://www.w3.org/2000/svg" viewBox="0 0 100 100">
  <title>icokt</title>
  <path d="M77.69,86.92,95.87,55.1a10.48,10.48,0,0,0-.05-10.49L77.35,13a10.48,10.48,0,0,0-9.11-5.2L31.6,7.93a10.48,10.48,0,0,0-9.06,5.29L4.36,45a10.48,10.48,0,0,0,0,10.49L22.87,87.16A10.48,10.48,0,0,0,32,92.36l36.64-.17A10.46,10.46,0,0,0,77.69,86.92Z" style="fill: #334962"/>
  <g id="f3e410b4-4dc7-4b08-808b-e83eedecf27b" data-name="smartphone">
    <g>
      <path d="M60,21.75H40.05a5.89,5.89,0,0,0-5.87,5.87V72.38a5.65,5.65,0,0,0,.41,2.1,5.87,5.87,0,0,0,5.46,3.77H60a5.89,5.89,0,0,0,5.87-5.87V27.62A5.89,5.89,0,0,0,60,21.75ZM46.38,23.47c0-.19.28-.33.64-.36h5.87c.4,0,.73.17.73.37v.18c0,.2-.33.36-.73.36H47c-.36,0-.64-.17-.64-.35Zm4.3,2.12a.68.68,0,1,1-.68-.68A.68.68,0,0,1,50.68,25.59Zm2.94,49.68a.73.73,0,0,1-.73.72H47.11a.73.73,0,0,1-.73-.72v-.36a.71.71,0,0,1,.16-.43.72.72,0,0,1,.57-.3h5.78a.72.72,0,0,1,.57.3.71.71,0,0,1,.16.43Zm9.77-2.89H37V27.62H63.39Z" style="fill: #fff"/>
      <path d="M44.62,58A3.4,3.4,0,1,0,48,61.37,3.4,3.4,0,0,0,44.62,58Z" style="fill: #fff"/>
      <rect x="49.83" y="62.4" width="7.06" height="1.36" style="fill: #fff"/>
      <rect x="49.83" y="58.99" width="9.57" height="1.36" style="fill: #fff"/>
      <path d="M44.62,46.52A3.4,3.4,0,1,0,48,49.91,3.4,3.4,0,0,0,44.62,46.52Z" style="fill: #fff"/>
      <rect x="49.83" y="50.93" width="7.06" height="1.36" style="fill: #fff"/>
      <rect x="49.83" y="47.53" width="9.57" height="1.36" style="fill: #fff"/>
      <path d="M44.62,35.06a3.4,3.4,0,1,0,3.4,3.4A3.4,3.4,0,0,0,44.62,35.06Z" style="fill: #fff"/>
      <rect x="49.83" y="39.48" width="7.06" height="1.36" style="fill: #fff"/>
      <rect x="49.83" y="36.07" width="9.57" height="1.36" style="fill: #fff"/>
    </g>
  </g>
</svg>
