<svg id="f23eaa4f-ace8-45ed-81da-02088a4a317b" data-name="Layer 1" xmlns="http://www.w3.org/2000/svg" viewBox="0 0 100 100">
  <title>icokt</title>
  <path d="M77.58,86.86,95.76,55a10.48,10.48,0,0,0-.06-10.49L77.23,12.9a10.48,10.48,0,0,0-9.11-5.2l-36.64.17a10.48,10.48,0,0,0-9.06,5.29L4.24,45a10.48,10.48,0,0,0,0,10.49L22.75,87.1a10.48,10.48,0,0,0,9.11,5.2l36.64-.17A10.47,10.47,0,0,0,77.58,86.86Z" style="fill: #1057ac"/>
  <path d="M28.83,31.71c0-.26.54-.4.84-.4,2.15-.13,5.38-.13,8.61-.13,9.24,0,12.9,5.1,12.9,11.69,0,8.6-6.18,12.23-13.85,12.23H34.81V68a.35.35,0,0,1-.29.41H29.1a.36.36,0,0,1-.4-.3.2.2,0,0,1,0-.11Zm5.88,17.88H37.4c3.93,0,7.66-1.34,7.66-6.72,0-4.3-2.69-6.45-7.12-6.45a21.76,21.76,0,0,0-3.23.13Zm28.9-4c-2.69,0-3.49,1.34-3.49,2.42s.67,2,4.2,3.89c5.24,2.52,7,5,7,8.61,0,5.37-4,8.33-9.67,8.33a14.22,14.22,0,0,1-7-1.48c-.27-.13-.27-.27-.27-.54v-5c0-.27.13-.4.4-.27a12,12,0,0,0,6.72,2c2.69,0,3.77-1.08,3.77-2.52,0-1.21-.84-2.29-4.2-4-4.71-2.29-6.72-4.57-6.72-8.47,0-4.3,3.36-7.93,9.24-7.93a15.74,15.74,0,0,1,6,.94.47.47,0,0,1,.29.62.08.08,0,0,1,0,0V46.8c0,.27-.13.4-.53.27a12.33,12.33,0,0,0-5.72-1.51Z" style="fill: #ecebe9"/>
</svg>
