<svg id="a416d1c4-1123-4598-8e0a-1f07db5e869a" data-name="Layer 1" xmlns="http://www.w3.org/2000/svg" viewBox="0 0 100 100">
  <title>icokt</title>
  <path d="M77.69,86.92,95.87,55.1a10.48,10.48,0,0,0-.05-10.49L77.35,13a10.48,10.48,0,0,0-9.11-5.2L31.6,7.93a10.48,10.48,0,0,0-9.06,5.29L4.36,45a10.48,10.48,0,0,0,0,10.49L22.87,87.16A10.48,10.48,0,0,0,32,92.36l36.64-.17A10.46,10.46,0,0,0,77.69,86.92Z" style="fill: #ae3243"/>
  <g id="a2ab3193-728f-492f-9e76-ebe00cbacad7" data-name="paint-brush">
    <path d="M70.67,38.1a1.67,1.67,0,0,0,2.3-.3l1.83-1.86a1.66,1.66,0,0,0,.27-2.3l-7.4-7.31a1.66,1.66,0,0,0-2.29.3l-1.84,1.86a1.66,1.66,0,0,0-.26,2.3l.87.86-1.6,1.62-1.94-1.92a2.75,2.75,0,0,0-2-.78,3.09,3.09,0,0,0-2.08.82L46,41.25l-.47-.55c-2-2.35-3.34-4.72-6.08-2.11-2.45,2.35-.61,4,1.55,6.27l.54.56-11.75,11c-.11.11-.2.22-.3.34l-1.29-1.28-3.66,3.7L43.05,77.42l3.65-3.7L45.25,72.3a3.17,3.17,0,0,0,.63-.53L45,71l.84.75L56,60.47,68.24,73.24c2.15,2.25,4.55,3.51,5.33,2.8s-.26-3.21-2.3-5.57L59.38,56.7l10.71-12a3.16,3.16,0,0,0,.79-2.05,2.8,2.8,0,0,0-.82-2L68.2,38.85l1.59-1.62ZM44.19,70.26a.65.65,0,0,1-.48.24.42.42,0,0,1-.28-.11l-3-2.9-9.22-9.11a.67.67,0,0,1,.2-.32l11.76-11,11.3,11.78Zm24.28-28a.54.54,0,0,1,.14.39.77.77,0,0,1-.21.54L57.89,55,47.51,43,58.11,33a.84.84,0,0,1,.54-.21h0A.5.5,0,0,1,59,33Z" style="fill: #fff"/>
    <path d="M37.74,38.19s5.41-3.25,1.14-8a18.19,18.19,0,0,0-6.51-3.72c-3.41-.89-4.43-1.72-4.43-3.84a20,20,0,0,0,.34,10.52S32.63,41.59,37.74,38.19Z" style="fill: #fff"/>
  </g>
</svg>
