<svg id="ba206435-0054-43f6-b182-3c79f2705ac7" data-name="Layer 1" xmlns="http://www.w3.org/2000/svg" viewBox="0 0 100 100">
  <title>icokt</title>
  <path d="M77.58,86.86,95.76,55a10.48,10.48,0,0,0-.06-10.49L77.23,12.9a10.48,10.48,0,0,0-9.11-5.2l-36.64.17a10.48,10.48,0,0,0-9.06,5.29L4.24,45a10.48,10.48,0,0,0,0,10.49L22.75,87.1a10.48,10.48,0,0,0,9.11,5.2l36.64-.17A10.47,10.47,0,0,0,77.58,86.86Z" style="fill: #ffb13b"/>
  <g>
    <path d="M42.78,18.42,41.7,20.66a8.19,8.19,0,0,0-3.26-1.09c-.49,0-.81.17-.81.53,0,1.45,5.12.59,5.12,4.14,0,2.08-1.85,3.08-4,3.08A8,8,0,0,1,34,25.76l1.1-2.21a6.73,6.73,0,0,0,3.65,1.5c.62,0,1-.21,1-.66,0-1.48-5.13-.55-5.13-4,0-1.89,1.62-3.09,4.07-3.09A7.94,7.94,0,0,1,42.78,18.42Z" style="fill: #ecebe9"/>
    <path d="M47.54,27.23l-3.76-9.82h3.11l2.24,6.8,2.25-6.8h3l-3.8,9.82Z" style="fill: #ecebe9"/>
    <path d="M64.73,22.15v4a8.19,8.19,0,0,1-4.2,1.26,5,5,0,0,1-5.28-5c0-2.87,2.31-5,5.48-5a6.49,6.49,0,0,1,4.14,1.49l-1.65,2a3.81,3.81,0,0,0-2.51-1.07,2.59,2.59,0,0,0,0,5.17,3.94,3.94,0,0,0,1.49-.38V22.15Z" style="fill: #ecebe9"/>
  </g>
  <path d="M71.83,61.73a6.69,6.69,0,0,0-4.72-11.42,6.39,6.39,0,0,0-1.25.12,6.68,6.68,0,1,0-9.29-9.28,6.69,6.69,0,1,0-13.13,0,6.69,6.69,0,1,0-9.29,9.28A6.69,6.69,0,1,0,32.9,63.69a6.54,6.54,0,0,0,1.25-.12,6.68,6.68,0,1,0,9.29,9.28A6.68,6.68,0,0,0,50,80.79a6.69,6.69,0,0,0,6.57-7.94,6.68,6.68,0,1,0,9.29-9.28,6.39,6.39,0,0,0,1.25.12A6.64,6.64,0,0,0,71.83,61.73Zm-7.44-2H56.55l5.55,5.55a3.84,3.84,0,1,1-3.84,3.83l-5.55-5.54v7.84a3.84,3.84,0,1,1-5.42,0V63.55l-5.55,5.54a3.84,3.84,0,1,1-3.83-3.83l5.54-5.55H35.61a3.84,3.84,0,1,1,0-5.42h7.84l-5.54-5.55a3.84,3.84,0,1,1,3.83-3.83l5.55,5.54V42.61a3.84,3.84,0,1,1,5.42,0v7.84l5.55-5.54a3.84,3.84,0,1,1,3.84,3.83l-5.55,5.55h7.84a3.84,3.84,0,0,1,5.43,0h0a3.84,3.84,0,0,1-5.43,5.42Z" style="fill: #ecebe9"/>
</svg>
