<svg id="bf5ea4d5-8be5-4d01-aae2-754079c723a5" data-name="Layer 1" xmlns="http://www.w3.org/2000/svg" viewBox="0 0 100 100">
  <title>icokt</title>
  <path d="M77.58,86.86,95.76,55a10.48,10.48,0,0,0-.06-10.49L77.23,12.9a10.48,10.48,0,0,0-9.11-5.2l-36.64.17a10.48,10.48,0,0,0-9.06,5.29L4.24,45a10.48,10.48,0,0,0,0,10.49L22.75,87.1a10.48,10.48,0,0,0,9.11,5.2l36.64-.17A10.47,10.47,0,0,0,77.58,86.86Z" style="fill: #668cb7"/>
  <path d="M70.84,70.53v6.85a1.27,1.27,0,0,1-1.44,1.45H34.5c-1.32,0-2.64,0-4,0a1.25,1.25,0,0,1-1.38-1.37V70.53l-.44,0H25.05a.88.88,0,0,1-1-1V50c0-.91,0-1.81,0-2.72a.9.9,0,0,1,1-1h4.13V24.05c0-.5,0-1,0-1.48a1.26,1.26,0,0,1,1.37-1.4H61.25a1.44,1.44,0,0,1,1.07.45l8.07,8.07a1.44,1.44,0,0,1,.45,1.07c0,5,0,10,0,15.06v.46H75c.69,0,1,.32,1,1,0,2.95,0,5.89,0,8.84q0,6.7,0,13.4c0,.65-.33,1-1,1H71.29ZM31.74,23.74V46.27H68.26V31.57h-.41c-1,0-2,0-3-.07a4.9,4.9,0,0,1-4.35-4.42c-.06-1,0-1.95,0-2.93,0-.13,0-.27,0-.41Zm36.53,46.8H31.74v5.72H68.27Z" style="fill: #ecebe9"/>
  <g>
    <path d="M35.86,60.14c0,2.15-1.38,3.38-3.57,3.38a4.67,4.67,0,0,1-3.62-1.64L30,60a3.2,3.2,0,0,0,2.06,1.11c.53,0,.86-.34.86-1V55.9H29.59V53.57h6.27Z" style="fill: #668cb7"/>
    <path d="M46.32,54.58l-1.07,2.24A8.23,8.23,0,0,0,42,55.73c-.49,0-.81.17-.81.53,0,1.44,5.13.59,5.13,4.13,0,2.09-1.85,3.09-4,3.09a8,8,0,0,1-4.72-1.56l1.09-2.21a6.75,6.75,0,0,0,3.66,1.5c.61,0,1-.21,1-.66,0-1.49-5.12-.55-5.12-4,0-1.89,1.61-3.09,4.06-3.09A7.84,7.84,0,0,1,46.32,54.58Z" style="fill: #668cb7"/>
    <path d="M58.34,58.47A5.07,5.07,0,0,1,53,63.52a5,5,0,1,1,0-10A5,5,0,0,1,58.34,58.47Zm-7.72,0A2.5,2.5,0,0,0,53,61.08a2.43,2.43,0,0,0,2.32-2.59A2.4,2.4,0,0,0,53,55.93,2.46,2.46,0,0,0,50.62,58.49Z" style="fill: #668cb7"/>
    <path d="M67.1,63.39l-4.16-5.46v5.46H60.26V53.57h2.5l4.16,5.49V53.57h2.66v9.82Z" style="fill: #668cb7"/>
  </g>
  <g>
    <path d="M45.51,34.23c0,1.07-.33,1.58-1.27,1.79.94.22,1.27.73,1.27,1.79v1.36c0,.63.23.85,1.18.85v2.09H45.58c-1.93,0-2.59-.52-2.59-2.06V37.63c0-.41-.12-.53-.46-.53h-.59V35h.59c.34,0,.46-.14.46-.54V32c0-1.52.66-2.05,2.59-2.05h1.11V32c-.95,0-1.18.23-1.18.86Z" style="fill: #ecebe9"/>
    <path d="M50.81,39.13a1.83,1.83,0,0,1-.35,1L49.32,41.8H48l.69-1.65a1.2,1.2,0,0,1-.52-1,1.27,1.27,0,0,1,1.33-1.31A1.25,1.25,0,0,1,50.81,39.13Z" style="fill: #ecebe9"/>
    <path d="M57.33,37.1h-.59c-.33,0-.46.12-.46.53v2.42c0,1.54-.66,2.06-2.59,2.06H52.58V40c1,0,1.18-.22,1.18-.85V37.81c0-1.06.34-1.57,1.27-1.79-.93-.21-1.27-.72-1.27-1.79V32.87c0-.63-.23-.86-1.18-.86V29.93h1.11c1.93,0,2.59.53,2.59,2.05v2.43c0,.4.13.54.46.54h.59Z" style="fill: #ecebe9"/>
  </g>
</svg>
