<svg id="e541e868-9309-4573-8f21-220a9b7b59ca" data-name="Layer 1" xmlns="http://www.w3.org/2000/svg" viewBox="0 0 100 100">
  <title>icokt</title>
  <path d="M77.58,86.86,95.76,55a10.48,10.48,0,0,0-.06-10.49L77.23,12.9a10.48,10.48,0,0,0-9.11-5.2l-36.64.17a10.48,10.48,0,0,0-9.06,5.29L4.24,45a10.48,10.48,0,0,0,0,10.49L22.75,87.1a10.48,10.48,0,0,0,9.11,5.2l36.64-.17A10.47,10.47,0,0,0,77.58,86.86Z" style="fill: #ff26be"/>
  <path d="M43.06,49.34l8.22,15.94c.14.23,0,.47-.18.47H46a.58.58,0,0,1-.61-.38q-2.82-5.82-5.76-12.07h0C37.8,57.24,35.9,61.52,34,65.39a.58.58,0,0,1-.53.33H28.59c-.3,0-.32-.24-.18-.41l8.07-15.47L28.71,34.43a.25.25,0,0,1,0-.36.24.24,0,0,1,.21-.08H34c.29,0,.44.06.53.32C36.34,38.25,38.19,42.09,40,46H40c1.7-3.87,3.58-7.77,5.37-11.62.14-.23.23-.38.52-.38h4.73c.23,0,.32.18.18.44Zm10,4.76c0-6.84,4.4-12.19,11.62-12.19a13,13,0,0,1,1.53.06V34.34a.29.29,0,0,1,.29-.29h4.72c.24,0,.3.09.3.23V61.11A21.37,21.37,0,0,0,71.67,64c0,.2,0,.23-.17.32A17.48,17.48,0,0,1,64,66C57.62,66,53.07,62.08,53.07,54.1Zm13.15-7.52a4,4,0,0,0-1.71-.29c-3.67,0-6.16,2.84-6.16,7.57,0,5.4,2.52,7.57,5.81,7.57a5.61,5.61,0,0,0,2-.32V46.58Z" style="fill: #ecebe9"/>
</svg>
