<svg id="b5a40b8b-b36a-4526-84aa-bd4b994d2cca" data-name="Layer 1" xmlns="http://www.w3.org/2000/svg" viewBox="0 0 100 100">
  <title>icokt</title>
  <path d="M77.69,86.92,95.87,55.1a10.48,10.48,0,0,0-.05-10.49L77.35,13a10.48,10.48,0,0,0-9.11-5.2L31.6,7.93a10.48,10.48,0,0,0-9.06,5.29L4.36,45a10.48,10.48,0,0,0,0,10.49L22.87,87.16A10.48,10.48,0,0,0,32,92.36l36.64-.17A10.46,10.46,0,0,0,77.69,86.92Z" style="fill: #8993be"/>
  <g>
    <path d="M53.19,59.79h6.53L62,46.41c.65-3.26-1.3-5.87-6.52-6.2H49.6l1.31-6.85h-6.2L39.49,59.79h6.2l2.93-14.68h4.9c2.28,0,2.28,1,2,2.61Z" style="fill: #ecebe9;fill-rule: evenodd"/>
    <path d="M32.87,40.21H20.8L15.58,66.64h6.2l1.3-6.85H29c5.55.33,11.75-4.24,11.75-12.07C40.7,43.15,38.09,40.54,32.87,40.21ZM28.3,54.89H24.39L26,45.11h4.24c2.28,0,3.91,1,3.91,2.93C33.85,53.59,31.24,54.57,28.3,54.89Z" style="fill: #ecebe9;fill-rule: evenodd"/>
    <path d="M76.59,40.21H64.52L59.3,66.64h6.2l1.3-6.85h5.88c5.54.33,11.74-4.24,11.74-12.07C84.42,43.15,81.81,40.54,76.59,40.21ZM72,54.89H68.11l1.63-9.78H74c2.29,0,3.92,1,3.92,2.93C77.57,53.59,75,54.57,72,54.89Z" style="fill: #ecebe9;fill-rule: evenodd"/>
  </g>
</svg>
