<svg id="a35f3a1d-7955-4e6d-acbb-1c086d99506b" data-name="Layer 1" xmlns="http://www.w3.org/2000/svg" viewBox="0 0 100 100">
  <title>icokt</title>
  <g>
    <path d="M77.58,86.92,95.76,55.1a10.48,10.48,0,0,0-.06-10.49L77.23,13a10.48,10.48,0,0,0-9.11-5.2l-36.64.17a10.48,10.48,0,0,0-9.06,5.29L4.24,45a10.48,10.48,0,0,0,0,10.49L22.75,87.16a10.48,10.48,0,0,0,9.11,5.2l36.64-.17A10.47,10.47,0,0,0,77.58,86.92Z" style="fill: #5cbfea"/>
    <g>
      <path d="M67,50q-.83-.28-1.71-.54c.1-.39.18-.78.26-1.16,1.29-6.27.45-11.31-2.43-13s-7.29.07-11.85,4c-.44.39-.88.79-1.32,1.21-.29-.28-.59-.55-.88-.81-4.78-4.24-9.58-6-12.46-4.37S33,41.77,34.15,47.71c.12.57.25,1.16.4,1.75-.68.19-1.34.4-2,.62-5.6,2-9.19,5-9.19,8.2s3.85,6.58,9.69,8.57c.46.16.94.31,1.43.45-.16.65-.3,1.28-.41,1.89C33,75,33.85,79.66,36.61,81.25s7.62,0,12.27-4.11c.36-.32.73-.66,1.1-1,.48.46,1,.9,1.43,1.31,4.51,3.87,9,5.44,11.71,3.85s3.76-6.63,2.56-12.68c-.09-.47-.2-.94-.32-1.42l1-.31c6.07-2,10-5.26,10-8.59S72.68,52,67,50ZM52.71,41.1c3.92-3.4,7.57-4.75,9.24-3.79s2.46,5.15,1.35,10.56c-.07.35-.15.7-.24,1.06A53.13,53.13,0,0,0,56,47.81a53.1,53.1,0,0,0-4.47-5.59C51.9,41.83,52.31,41.45,52.71,41.1ZM40.24,58.33c.68-1.42,1.43-2.85,2.25-4.27h0c.82-1.42,1.68-2.79,2.57-4.09,1.58-.12,3.19-.18,4.82-.18h0c1.64,0,3.26.06,4.84.18.87,1.3,1.73,2.66,2.55,4.08s1.59,2.86,2.28,4.25c-.68,1.42-1.45,2.86-2.27,4.29s-1.68,2.81-2.54,4.1c-1.58.11-3.2.17-4.86.17s-3.25,0-4.79-.15c-.9-1.31-1.77-2.69-2.59-4.11h0C41.68,61.18,40.92,59.75,40.24,58.33ZM39,61c.47.92,1,1.84,1.5,2.75h0c.54.92,1.09,1.83,1.66,2.72-1.73-.2-3.37-.46-4.88-.79C37.79,64.16,38.36,62.59,39,61Zm0-5.32c-.66-1.56-1.22-3.1-1.68-4.58,1.51-.34,3.12-.62,4.8-.83-.55.87-1.1,1.76-1.62,2.67h0C40,53.84,39.51,54.75,39,55.67Zm20.21,8c.54-.94,1-1.87,1.54-2.81.7,1.62,1.3,3.18,1.77,4.66a47.78,47.78,0,0,1-4.94.85C58.16,65.54,58.7,64.65,59.24,63.72Zm1.51-8c-.48-.91-1-1.83-1.52-2.75s-1.06-1.79-1.61-2.65a48,48,0,0,1,4.83.84C62,52.57,61.42,54.1,60.75,55.67ZM49.91,43.84C51,45,52,46.23,53,47.6c-1-.05-2.09-.07-3.15-.07s-2.09,0-3.11.07A46.59,46.59,0,0,1,49.91,43.84ZM37.7,37.38c1.78-1,5.7.44,9.83,4.11.26.23.53.48.79.73a53.56,53.56,0,0,0-4.51,5.59,56.37,56.37,0,0,0-7.07,1.09c-.14-.55-.26-1.09-.37-1.63C35.38,42.18,36,38.34,37.7,37.38ZM35.12,65.12c-.45-.13-.89-.27-1.31-.41a19.28,19.28,0,0,1-6.18-3.28c-1.31-1.13-2-2.24-2-3.15,0-1.93,2.87-4.39,7.67-6.06.58-.21,1.19-.4,1.82-.58a55.17,55.17,0,0,0,2.59,6.69A54.72,54.72,0,0,0,35.12,65.12ZM47.39,75.44a19.37,19.37,0,0,1-5.93,3.71c-1.64.58-2.93.59-3.72.14-1.67-1-2.37-4.68-1.42-9.68.11-.57.24-1.15.39-1.75a53.47,53.47,0,0,0,7.14,1,54.21,54.21,0,0,0,4.55,5.62ZM50,72.88c-1.07-1.16-2.14-2.44-3.19-3.82,1,0,2,.06,3.1.06s2.15,0,3.2-.07A45.58,45.58,0,0,1,50,72.88ZM63.72,76c-.32,1.7-.95,2.83-1.74,3.29-1.67,1-5.24-.29-9.09-3.61-.44-.38-.89-.78-1.33-1.21A53.57,53.57,0,0,0,56,68.86a52.65,52.65,0,0,0,7.17-1.11c.11.44.21.87.29,1.29A19.19,19.19,0,0,1,63.72,76Zm1.92-11.31-.89.28a52.74,52.74,0,0,0-2.69-6.71,53,53,0,0,0,2.58-6.61c.55.15,1.07.32,1.58.49,4.9,1.69,7.89,4.19,7.89,6.11S70.88,63,65.64,64.72Z" style="fill: #ecebe9"/>
      <path d="M49.88,53.55a4.73,4.73,0,1,1-4.73,4.73,4.74,4.74,0,0,1,4.73-4.73" style="fill: #ecebe9"/>
    </g>
    <g>
      <path d="M30.53,24.78H29.1v2.45H26.39V18.12h4.26c2.44,0,3.84,1.17,3.84,3.24A3.11,3.11,0,0,1,33,24.26l1.85,3H31.74Zm.12-2.08a1.15,1.15,0,0,0,1.27-1.26,1.14,1.14,0,0,0-1.27-1.24H29.1v2.5Z" style="fill: #ecebe9"/>
      <path d="M39.3,20.2v1.43h4.31v2.08H39.3v1.44h4.88v2.08H36.6V18.12h7.45V20.2Z" style="fill: #ecebe9"/>
      <path d="M48.72,25.78l-.55,1.45H45.39l3.88-9.11h2.79l3.75,9.11H52.93l-.54-1.45Zm1.87-5-1.12,3h2.21Z" style="fill: #ecebe9"/>
      <path d="M65.15,19.65,63.59,21.5a3,3,0,0,0-2.17-1.21,2.21,2.21,0,0,0-2.18,2.34A2.22,2.22,0,0,0,61.42,25a3.29,3.29,0,0,0,2.17-1.05l1.56,1.67a5.54,5.54,0,0,1-3.86,1.75A4.66,4.66,0,1,1,61.38,18,5.42,5.42,0,0,1,65.15,19.65Z" style="fill: #ecebe9"/>
      <path d="M71.41,20.28v7H68.69V20.28H66.06V18.12h8v2.16Z" style="fill: #ecebe9"/>
    </g>
  </g>
</svg>
