<svg id="e91a6d9f-8796-4368-90b7-1536ddf7cebe" data-name="Layer 1" xmlns="http://www.w3.org/2000/svg" viewBox="0 0 100 100">
  <title>icokt</title>
  <path d="M77.58,86.86,95.76,55a10.48,10.48,0,0,0-.06-10.49L77.23,12.9a10.48,10.48,0,0,0-9.11-5.2l-36.64.17a10.48,10.48,0,0,0-9.06,5.29L4.24,45a10.48,10.48,0,0,0,0,10.49L22.75,87.1a10.48,10.48,0,0,0,9.11,5.2l36.64-.17A10.47,10.47,0,0,0,77.58,86.86Z" style="fill: #595239"/>
  <path d="M63.53,46.76a1.83,1.83,0,0,0-2.06,2c0,1.05.58,1.78,2,1.78a1.81,1.81,0,0,0,2-1.82,1.76,1.76,0,0,0-2-1.93Zm-2.36,9.85a1.9,1.9,0,0,0-.56,1.14c0,.85,1.09,1.11,2.6,1.11,1.24,0,2.94-.08,2.94-1.24,0-.69-.82-.73-1.85-.8l-3.13-.21Zm6.35-9.79a3.37,3.37,0,0,1,.8,2.17c0,2.38-1.87,3.78-4.58,3.78a6.6,6.6,0,0,1-1.69-.2l-.71,1.14,2.1.13c3.72.24,5.91.34,5.91,3.2,0,2.47-2.17,3.86-5.91,3.86s-5.36-1-5.36-2.68A2.78,2.78,0,0,1,59.26,56a1.44,1.44,0,0,1-.95-1.42,1.93,1.93,0,0,1,.63-1.31c.38-.4.81-.81,1.33-1.28a3.45,3.45,0,0,1-1.85-3.22c0-2.47,1.63-4.17,4.92-4.17a7.26,7.26,0,0,1,2,.22H69.5v1.82l-2,.15Zm5.75-3.9A1.76,1.76,0,0,1,71.34,41a1.95,1.95,0,0,1,3.89,0A1.77,1.77,0,0,1,73.27,42.92ZM70.5,55.82v-1.7L71.6,54c.3,0,.34-.1.34-.43V47.23c0-.23-.06-.38-.28-.45l-1.16-.4.24-1.74h4.44v8.9c0,.35,0,.39.35.44l1.09.14v1.7ZM85.11,55a8.6,8.6,0,0,1-3.5.86c-2.55,0-3.52-1-3.52-3.46V46.77c0-.13,0-.22-.17-.22h-1.5V44.64c1.89-.21,2.64-1.16,2.87-3.5h2v3c0,.15,0,.22.17.22h3v2.14h-3.2v5.13c0,1.27.3,1.76,1.46,1.76a5.23,5.23,0,0,0,1.74-.34L85.11,55" style="fill: #ecebe9"/>
  <path d="M54.17,48.26,37.08,31.16a2.53,2.53,0,0,0-3.57,0h0L30,34.71l4.51,4.5A3,3,0,0,1,38.26,43l4.34,4.34a3,3,0,0,1,3.1,5h0a3,3,0,0,1-4.9-3.27l-4-4V55.67a3,3,0,0,1,.8.56,3,3,0,0,1,0,4.25h0a3,3,0,0,1-4.25-4.24,2.87,2.87,0,0,1,1-.66V44.83a3,3,0,0,1-1.63-3.93l-4.44-4.44L16.5,48.18a2.5,2.5,0,0,0,0,3.56h0l17.09,17.1a2.54,2.54,0,0,0,3.57,0l17-17a2.5,2.5,0,0,0,0-3.56" style="fill: #ecebe9"/>
</svg>
