<svg id="f7f235e1-869f-4df8-8ef4-8a3f784ba967" data-name="Layer 1" xmlns="http://www.w3.org/2000/svg" viewBox="0 0 100 100">
  <title>icokt</title>
  <path d="M77.69,86.92,95.87,55.1a10.48,10.48,0,0,0-.05-10.49L77.35,13a10.48,10.48,0,0,0-9.11-5.2L31.6,7.93a10.48,10.48,0,0,0-9.06,5.29L4.36,45a10.48,10.48,0,0,0,0,10.49L22.87,87.16A10.48,10.48,0,0,0,32,92.36l36.64-.17A10.46,10.46,0,0,0,77.69,86.92Z" style="fill: #72c27d"/>
  <g>
    <path d="M35,23l-1.2,1.42a2.28,2.28,0,0,0-1.67-.93,1.81,1.81,0,0,0,0,3.61,2.54,2.54,0,0,0,1.67-.81L35,27.58a4.24,4.24,0,0,1-3,1.35,3.58,3.58,0,1,1,.07-7.15A4.11,4.11,0,0,1,35,23Z" style="fill: #ecebe9"/>
    <path d="M37.38,27.72,37,28.84H34.82l3-7H40l2.89,7H40.62l-.41-1.12Zm1.44-3.81L38,26.2h1.7Z" style="fill: #ecebe9"/>
    <path d="M48.23,28.84l-3-3.9v3.9H43.35v-7h1.78l3,3.92V21.83H50v7Z" style="fill: #ecebe9"/>
    <path d="M53.24,28.84l-2.68-7h2.22l1.6,4.85L56,21.83h2.13l-2.71,7Z" style="fill: #ecebe9"/>
    <path d="M60,27.72l-.42,1.12H57.42l3-7h2.14l2.89,7H63.22l-.41-1.12Zm1.44-3.81-.86,2.29h1.7Z" style="fill: #ecebe9"/>
    <path d="M71.75,22.55,71,24.15a5.82,5.82,0,0,0-2.33-.78c-.35,0-.58.12-.58.38,0,1,3.66.42,3.66,2.95,0,1.49-1.32,2.2-2.89,2.2a5.72,5.72,0,0,1-3.37-1.11l.78-1.58a4.79,4.79,0,0,0,2.61,1.07c.44,0,.72-.15.72-.47,0-1.06-3.66-.39-3.66-2.86,0-1.35,1.15-2.2,2.9-2.2A5.64,5.64,0,0,1,71.75,22.55Z" style="fill: #ecebe9"/>
  </g>
  <path d="M69.66,32.77H30.27c-.54,0-.54,0-.49.54.13,1.4.26,2.79.38,4.19q.36,4.14.73,8.28c.24,2.77.51,5.52.76,8.29s.48,5.52.72,8.28c.32,3.57.65,7.14,1,10.71a.49.49,0,0,0,.4.5l2.34.68,6,1.78,6.05,1.76c.95.28,1.89.76,2.92.25a3.5,3.5,0,0,1,.55-.17l5.59-1.58,5.66-1.61,3.19-.89a.51.51,0,0,0,.44-.48c.22-2.45.45-4.91.68-7.36.24-2.65.47-5.3.72-7.95s.52-5.29.76-7.94.48-5.33.73-8l.81-8.7C70.27,32.77,70.27,32.77,69.66,32.77Z" style="fill: #ecebe9"/>
  <polygon points="57.67 51.18 63.06 51.18 64.09 40.27 37.12 40.27 39.49 67.56 50.6 70.64 61.71 67.43 61.97 61.65 50.6 65.06 44.63 63.06 43.15 45.6 57.99 45.66 57.67 51.18" style="fill: #72c27d"/>
</svg>
