<svg id="a162cd0f-058e-4114-8bfc-f8f98db92d07" data-name="Layer 1" xmlns="http://www.w3.org/2000/svg" viewBox="0 0 100 100">
  <title>icokt</title>
  <path d="M77.58,86.86,95.76,55a10.48,10.48,0,0,0-.06-10.49L77.23,12.9a10.48,10.48,0,0,0-9.11-5.2l-36.64.17a10.48,10.48,0,0,0-9.06,5.29L4.24,45a10.48,10.48,0,0,0,0,10.49L22.75,87.1a10.48,10.48,0,0,0,9.11,5.2l36.64-.17A10.47,10.47,0,0,0,77.58,86.86Z" style="fill: #464342"/>
  <path d="M27.21,50A22.79,22.79,0,0,0,40.05,70.51L29.18,40.72A22.65,22.65,0,0,0,27.21,50Zm38.18-1.15a12,12,0,0,0-1.88-6.29c-1.16-1.87-2.24-3.46-2.24-5.34a4,4,0,0,1,3.83-4l.29,0A22.8,22.8,0,0,0,31,37.48l1.47,0c2.39,0,6.08-.29,6.08-.29a.94.94,0,0,1,.14,1.88s-1.23.14-2.61.21L44.33,64l5-15-3.55-9.73c-1.23-.07-2.39-.21-2.39-.21a.94.94,0,0,1,.14-1.88s3.77.29,6,.29,6.07-.29,6.07-.29a.94.94,0,0,1,.15,1.88s-1.24.14-2.61.21l8.24,24.51,2.27-7.6c1-3.15,1.74-5.42,1.74-7.37ZM50.4,52,43.56,71.87a23,23,0,0,0,6.44.92,22.62,22.62,0,0,0,7.57-1.29,1.82,1.82,0,0,1-.16-.31L50.4,52ZM70,39.06a17.31,17.31,0,0,1,.15,2.35,21.5,21.5,0,0,1-1.73,8.16l-7,20.13A22.81,22.81,0,0,0,70,39.06ZM50,23.43A26.57,26.57,0,1,0,76.57,50,26.6,26.6,0,0,0,50,23.43Zm0,51.92A25.35,25.35,0,1,1,75.35,50,25.38,25.38,0,0,1,50,75.35Z" style="fill: #ecebe9"/>
</svg>
