<svg id="b4ad3778-43e1-47d1-8ada-1d14957ed456" data-name="Layer 1" xmlns="http://www.w3.org/2000/svg" viewBox="0 0 100 100">
  <title>icokt</title>
  <path d="M77.69,86.92,95.87,55.1a10.48,10.48,0,0,0-.05-10.49L77.35,13a10.48,10.48,0,0,0-9.11-5.2L31.6,7.93a10.48,10.48,0,0,0-9.06,5.29L4.36,45a10.48,10.48,0,0,0,0,10.49L22.87,87.16A10.48,10.48,0,0,0,32,92.36l36.64-.17A10.46,10.46,0,0,0,77.69,86.92Z" style="fill: #137098"/>
  <g>
    <path d="M37.53,27.12c-2.8,4.09-2.45,9.42-.32,13.77l.16.31.1.19.07.12.1.2.21.36.11.19.24.38.11.16a5.5,5.5,0,0,0,.34.5v0a.22.22,0,0,1,.05.08l.32.42.12.15.28.36.11.14.41.47h0v0c.13.15.27.3.41.44l.13.14.33.32L41,46l.45.42.08.07.41.35.17.14.34.26.18.14.52.38,0,0,.36.25.16.11.58.36.16.09.44.24.24.13.31.16.07,0,.13.07.49.23.1,0,.58.25.14,0,.54.21.07,0,.6.2.15.05c.21.06.41.14.62.18C62.43,53,66.36,42.18,66.36,42.18c-3.3,4.38-9.16,5.53-14.71,4.25-.21,0-.41-.12-.62-.18l-.15,0-.6-.2-.08,0-.53-.2-.15-.06q-.29-.1-.57-.24l-.11,0-.48-.23-.13-.06-.38-.2-.24-.13-.45-.25L47,44.46l-.58-.36-.15-.1-.41-.28-.14-.1-.38-.28-.18-.13-.35-.28-.16-.13-.43-.37a.13.13,0,0,0-.06,0L43.72,42l-.13-.13-.33-.33-.13-.13-.41-.43,0,0c-.14-.15-.28-.31-.41-.47l-.11-.13-.29-.37-.11-.14-.34-.47c-3.09-4.28-4.19-10.18-1.73-15m6.5-.63a10.06,10.06,0,0,0-.33,10.07,12.84,12.84,0,0,0,.89,1.52,7.09,7.09,0,0,0,1,1.32q.21.24.45.48l.12.12.46.44,0,0,.55.46.12.1.57.42h0l.26.18.12.08.42.26.06,0,.37.21.14.07.26.13,0,0,.54.26.12,0c.15.06.3.13.45.18l.19.07c.13.06.27.1.41.15l.18.06a4,4,0,0,0,.59.17c10.45,1.77,12.86-6.43,12.86-6.43-2.18,3.19-6.39,4.71-10.88,3.53l-.59-.18-.18,0-.41-.15-.19-.07c-.15-.05-.3-.12-.44-.18L54.32,37l-.55-.26-.27-.14-.16-.08L53,36.3l-.08-.06L52.49,36l-.12-.08-.27-.19c-.2-.13-.38-.27-.57-.42l-.13-.1A12.84,12.84,0,0,1,47.14,29a9.74,9.74,0,0,1,.74-7.71m5.64-.2a6.3,6.3,0,0,0-.48,6,8.31,8.31,0,0,0,4.75,4.52l.26.09.12,0,.37.11c5.77,1.13,7.33-3,7.75-3.63-1.37,2-3.67,2.5-6.5,1.8-.22-.06-.47-.14-.69-.22a8.16,8.16,0,0,1-.81-.34,8.05,8.05,0,0,1-1.42-.89c-2.54-1.95-4.11-5.68-2.46-8.71" style="fill: #ecebe9"/>
    <g>
      <path d="M37.48,61.06,37,62.88l.52-1.82Zm2.64,4h0ZM40,67.73h0ZM40.69,65h0Zm-.41,2.48.6-2.25ZM52.76,57.13l-1.1,5.17Zm-2.83,0L49.1,61Z" style="fill: #ecebe9"/>
      <path d="M52.57,56.89H50.22a.3.3,0,0,0-.29.24l-1.67,7.73a.32.32,0,0,1-.29.23H46.3c-1.64,0-1.45-1.14-1.11-2.7v0l.2-1.07.09-.43.76-3.71a.19.19,0,0,0-.19-.24H43.64a.31.31,0,0,0-.28.23l-1.09,5.16c-.6,2.74-.44,5.34,2.81,5.42h5.2a.29.29,0,0,0,.28-.23l2.2-10.35a.18.18,0,0,0-.18-.23ZM62,65.11a.19.19,0,0,1,.19.24l-.22,1.11m-.23,1.12.23-1.12Zm-.29.24-4.34,0Z" style="fill: #ecebe9"/>
      <path d="M55.66,63.68c0-.13.14-.34.27-.34h-.3C55.5,64.67,55.66,63.68,55.66,63.68Zm1.62,4.16h0ZM62,65.11a.19.19,0,0,1,.19.24l-.26,1.3m-3.49,1.19h0Zm-.58,0h0Zm-.17,0h0Zm-.17,0h0Zm.32,0h0Z" style="fill: #ecebe9"/>
      <path d="M58.38,67.84h0Zm3,0-3,0Zm.28-.24.19-.93-.19.93Zm-4.1.26h0Zm-.35,0h0Zm.18,0h0ZM23,63.7l.37-1.62-.42,1.86-.05.23.1-.47Zm4.37-6.83H24.78a.31.31,0,0,0-.29.23L24,59.26a.18.18,0,0,0,.12.22h2.67a.32.32,0,0,0,.29-.23l.47-2.17a.18.18,0,0,0-.19-.23Zm-.56,3.59L26,64ZM19.3,72.08l2.13,0-2.13,0Z" style="fill: #ecebe9"/>
      <path d="M23.71,60.46l-.36,1.62Zm2.91-.23H24a.32.32,0,0,0-.29.23L23,63.7l-.1.47-.7,3.31a3.74,3.74,0,0,1-.12.45s-.49,1.45-1.31,1.43H20a.32.32,0,0,0-.29.23l-.54,2.27a.18.18,0,0,0,.12.22h.06l2.13,0c2.05,0,3.12-1.13,3.82-4.39l1.56-7.24a.18.18,0,0,0-.19-.23Zm37,7.47a.18.18,0,0,1-.18-.23l1.95-9.17m1,9.17.79-3.92Z" style="fill: #ecebe9"/>
      <path d="M63.45,67.59a1.52,1.52,0,0,1,0-.35l.93-4.36-1,4.59a.19.19,0,0,0,.19.23h.24C63.72,67.7,63.47,67.65,63.45,67.59Zm2.73.06a1.18,1.18,0,0,1-.37,0h.24a.3.3,0,0,0,.29-.23l0-.23a.88.88,0,0,1-.21.41Zm.55-2.14.35-1.73Zm7.73-6.6.11.45a.18.18,0,0,1-.18.23" style="fill: #ecebe9"/>
      <path d="M66.38,67.24l.35-1.73Zm8-8.79.1.45Zm-7.28,5.33.1-.46.37-1.75-.42,2,0,.23Zm-1.66-5.64-.09.39-.92,4.35,1-4.58,0-.15Z" style="fill: #ecebe9"/>
      <path d="M74.57,59.36l-.11-.45-.16-.7c-.21-.82-.83-1.29-2.18-1.29H65.91a.31.31,0,0,0-.28.24l-.1.45-.14.69-1.91,8.94a1.11,1.11,0,0,0,0,.35c0,.07.27.12.4.12h2a1.19,1.19,0,0,0,.37-.06c.07,0,.17-.27.21-.41l.74-3.68.8-3.74a.31.31,0,0,1,.29-.23H74.4a.18.18,0,0,0,.18-.23Zm8-4H80.07a.48.48,0,0,0-.37.19l-4.37,6.4c-.08.11-.16.1-.19,0l-.32-1.41a.32.32,0,0,0-.29-.23H71.72a.18.18,0,0,0-.18.23l1.26,4.41a1,1,0,0,1,0,.46l-.55,2.13a.17.17,0,0,0,.11.22h2.85a.33.33,0,0,0,.3-.23l.55-2.13a1.5,1.5,0,0,1,.21-.42l7.1-9.42c.08-.11,0-.19-.1-.19h-.75ZM60.2,60.85a.29.29,0,0,1-.28.24H56.36c-.13,0-.19-.08-.17-.19v0l0-.06a2.23,2.23,0,0,1,2.33-1.49c1.47,0,1.76.71,1.66,1.52Zm-1.05-4.11c-4.57,0-5.65,2.77-6.26,5.57s-.56,5.53,4.17,5.53h1.33l3,0a.32.32,0,0,0,.29-.24l.45-2.23a.18.18,0,0,0-.19-.23H57.7c-1.69,0-2.19-.45-2-1.77h6.8a.28.28,0,0,0,.25-.18.14.14,0,0,0,0-.06c1-3.81.72-6.37-3.61-6.37ZM37.54,60.83l-.06.23L37,62.88l-.51,1.82a.33.33,0,0,1-.3.23H33.43c-2.06,0-2.56-1.61-2.06-4s1.48-3.95,3.51-4.1c2.77-.21,3.33,1.74,2.66,4Zm1.86,4A30.06,30.06,0,0,0,41,59.88c.39-2.41-.81-5.89-5.46-5.89s-6.64,3.33-7.4,6.95.24,6.85,4.83,6.82l7,0a.33.33,0,0,0,.3-.23l.59-2.26a.17.17,0,0,0-.1-.22H39.55a.15.15,0,0,1-.16-.17.43.43,0,0,1,0,0Z" style="fill: #ecebe9"/>
      <path d="M62.3,62.71a.15.15,0,0,1-.15.15.16.16,0,0,1-.16-.15.16.16,0,0,1,.16-.16A.16.16,0,0,1,62.3,62.71Z" style="fill: #ecebe9"/>
    </g>
  </g>
</svg>
