<svg id="a513f54a-d5ad-482c-868d-8e11a816e258" data-name="Layer 1" xmlns="http://www.w3.org/2000/svg" viewBox="0 0 100 100">
  <title>icokt</title>
  <path d="M77.58,86.86,95.76,55a10.48,10.48,0,0,0-.06-10.49L77.23,12.9a10.48,10.48,0,0,0-9.11-5.2l-36.64.17a10.48,10.48,0,0,0-9.06,5.29L4.24,45a10.48,10.48,0,0,0,0,10.49L22.75,87.1a10.48,10.48,0,0,0,9.11,5.2l36.64-.17A10.47,10.47,0,0,0,77.58,86.86Z" style="fill: #8e73bb"/>
  <g>
    <path d="M47.29,51.57V43.16l7.3,4.23Zm1.27-2.19,3.41-2-3.41-2Z" style="fill: #ecebe9"/>
    <line x1="29.47" y1="62.07" x2="48.43" y2="62.07" style="fill: none;stroke: #fff;stroke-linecap: round;stroke-miterlimit: 10;stroke-width: 2px"/>
    <line x1="29.47" y1="67.72" x2="48.43" y2="67.72" style="fill: none;stroke: #fff;stroke-linecap: round;stroke-miterlimit: 10;stroke-width: 2px"/>
    <line x1="29.47" y1="73.37" x2="48.43" y2="73.37" style="fill: none;stroke: #fff;stroke-linecap: round;stroke-miterlimit: 10;stroke-width: 2px"/>
    <path d="M73.79,23.79h0a2.21,2.21,0,0,0-2.21-2.21H25.91a2.21,2.21,0,0,0-2.21,2.21V76.21a2.21,2.21,0,0,0,2.21,2.21H71.58a2.21,2.21,0,0,0,2.21-2.21V39.71" style="fill: none;stroke: #fff;stroke-linecap: round;stroke-miterlimit: 10;stroke-width: 2px"/>
    <path d="M74.39,35.78H35.66a2.19,2.19,0,0,1-2.19-2.19V29.37a2.19,2.19,0,0,1,2.19-2.18H74.39a2.19,2.19,0,0,1,2.19,2.18" style="fill: none;stroke: #fff;stroke-linecap: round;stroke-miterlimit: 10;stroke-width: 2px"/>
    <rect x="28.14" y="40.21" width="41.66" height="14.3" rx="1.97" style="fill: none;stroke: #fff;stroke-linecap: round;stroke-miterlimit: 10;stroke-width: 2px"/>
    <g id="fe5bf9b5-978d-4d95-80f9-23dbe0c5aad6" data-name="baICRm.tif">
      <path d="M78.54,35.59a3.23,3.23,0,0,1-.23.27l-.69.69A.35.35,0,0,1,77,36.4l-1-3c-.19-.56-.37-1.12-.56-1.68a.35.35,0,0,1,.23-.49.34.34,0,0,1,.2,0l2,.68,2.43.81a2.5,2.5,0,0,1,.25.09.34.34,0,0,1,.13.59l-.86.87c-.07.06-.07.1,0,.17L82,36.63a.85.85,0,0,1,.12,1.14.86.86,0,0,1-1.3.11l-1.2-1.2Z" style="fill: #fff"/>
    </g>
    <rect x="53.69" y="62.07" width="15.2" height="11.84" rx="0.91" style="fill: none;stroke: #fff;stroke-linecap: round;stroke-miterlimit: 10;stroke-width: 2px"/>
    <path d="M53.69,73l4.57-5.7a1.23,1.23,0,0,1,1.23.06l1.2,1.4a.8.8,0,0,0,1.38-.33l1.45-3.36c.6-.42.8-.42,1.39,0l4,4.1" style="fill: none;stroke: #fff;stroke-linecap: round;stroke-miterlimit: 10;stroke-width: 2px"/>
  </g>
</svg>
