<svg id="bd1f014e-b92d-4bf6-853a-89de592efdf6" data-name="Layer 1" xmlns="http://www.w3.org/2000/svg" viewBox="0 0 100 100">
  <title>icokt</title>
  <path d="M77.58,86.86,95.76,55a10.48,10.48,0,0,0-.06-10.49L77.23,12.9a10.48,10.48,0,0,0-9.11-5.2l-36.64.17a10.48,10.48,0,0,0-9.06,5.29L4.24,45a10.48,10.48,0,0,0,0,10.49L22.75,87.1a10.48,10.48,0,0,0,9.11,5.2l36.64-.17A10.47,10.47,0,0,0,77.58,86.86Z" style="fill: #3992ed"/>
  <g>
    <path d="M39.5,23.09c0,2.6-1.78,4.27-4.58,4.27s-4.65-1.67-4.65-4.27V17.41h2.91v5.68a1.71,1.71,0,0,0,1.75,1.83,1.64,1.64,0,0,0,1.66-1.83V17.41H39.5Z" style="fill: #ecebe9"/>
    <path d="M41.83,27.23V17.41h2.92v9.82Z" style="fill: #ecebe9"/>
    <path d="M51.26,23.65l-1.11,1.23v2.35H47.24V17.41h2.91V21.2l3.29-3.79H56.8l-3.56,4L57,27.23H53.54Z" style="fill: #ecebe9"/>
    <path d="M61.64,17.44A1.46,1.46,0,1,1,60.19,16,1.39,1.39,0,0,1,61.64,17.44Zm-2.88,9.79V19.61h2.83v7.62Z" style="fill: #ecebe9"/>
    <path d="M69.34,26.87a4.44,4.44,0,0,1-2.11.49,2.43,2.43,0,0,1-2.72-2.51v-3H63.46V20h1.05V17.89h2.82V20H69.2v1.8H67.33v2.61c0,.49.25.73.64.73a2.75,2.75,0,0,0,.87-.23Z" style="fill: #ecebe9"/>
  </g>
  <path d="M57.13,38.7l-7.48-4.35-7.8,4.85,7.58,4.19,7.7-4.69Zm3.57,1.87L53,45.26l8.75,5.06V63.68l-11.8,6.71L38.27,63.68V53.25l-7.82-3.88V68.24l19.2,11.41,19.9-11.32V45.68L60.7,40.57Z" style="fill: #ecebe9"/>
</svg>
