<svg id="ad63bf11-4ab7-494e-825b-974559221933" data-name="Layer 1" xmlns="http://www.w3.org/2000/svg" viewBox="0 0 100 100">
  <title>icokt</title>
  <path d="M77.58,86.86,95.76,55a10.48,10.48,0,0,0-.06-10.49L77.23,12.9a10.48,10.48,0,0,0-9.11-5.2l-36.64.17a10.48,10.48,0,0,0-9.06,5.29L4.24,45a10.48,10.48,0,0,0,0,10.49L22.75,87.1a10.48,10.48,0,0,0,9.11,5.2l36.64-.17A10.47,10.47,0,0,0,77.58,86.86Z" style="fill: #f87a3e"/>
  <path d="M38.53,58.53,35.84,68.61c0,.27-.13.41-.54.41h-5c-.27,0-.4-.14-.27-.54L39.6,35a10.27,10.27,0,0,0,.27-2.82c0-.27.14-.27.27-.27h7c.27,0,.27,0,.4.27L58.29,68.48c0,.27,0,.4-.27.4H52.51c-.27,0-.41,0-.54-.27L49.15,58.53Zm9.41-5.37c-.94-3.77-3.23-11.83-4-15.86h0c-.68,3.89-2.52,10.61-3.9,15.86ZM63,34.47a3.5,3.5,0,0,1,7,0h0A3.25,3.25,0,0,1,67,38h-.53A3.39,3.39,0,0,1,63,34.47Zm.4,7.67a.36.36,0,0,1,.3-.41H69a.35.35,0,0,1,.4.3.2.2,0,0,1,0,.11V68.61c0,.27,0,.41-.4.41H63.8a.36.36,0,0,1-.41-.3V42.14Z" style="fill: #ecebe9"/>
</svg>
