<svg id="b7b07134-0349-45ce-9c96-2d018f79cda8" data-name="Layer 1" xmlns="http://www.w3.org/2000/svg" viewBox="0 0 100 100">
  <title>icokt</title>
  <path d="M77.58,86.86,95.76,55a10.48,10.48,0,0,0-.06-10.49L77.23,12.9a10.48,10.48,0,0,0-9.11-5.2l-36.64.17a10.48,10.48,0,0,0-9.06,5.29L4.24,45a10.48,10.48,0,0,0,0,10.49L22.75,87.1a10.48,10.48,0,0,0,9.11,5.2l36.64-.17A10.47,10.47,0,0,0,77.58,86.86Z" style="fill: #d75ba0"/>
  <path d="M66.73,63V31.57c0-.13,0-.27-.26-.27H61a.29.29,0,0,0-.27.27v8.87H58.94c-8.47,0-13.84,6.32-13.84,14.28,0,9.41,5.37,14,12.76,14a21.73,21.73,0,0,0,8.87-2c.27-.13.27-.13.27-.4A14.59,14.59,0,0,1,66.73,63Zm-6.18,0a7.07,7.07,0,0,1-2.42.41c-3.89,0-7-2.52-7-8.88,0-5.51,3.1-8.87,7.4-8.87a8.53,8.53,0,0,1,2,.27ZM38.65,31.3H33.4a.36.36,0,0,0-.4.3.2.2,0,0,0,0,.11v36a.35.35,0,0,0,.29.4.2.2,0,0,0,.11,0h5.11c.4,0,.4-.14.4-.4v-36C39,31.44,39,31.3,38.65,31.3Z" style="fill: #ecebe9"/>
</svg>
