<svg id="bce72790-302e-48ba-aafa-0833382f64bd" data-name="Layer 1" xmlns="http://www.w3.org/2000/svg" viewBox="0 0 100 100">
  <title>icokt</title>
  <path d="M77.58,86.86,95.76,55a10.48,10.48,0,0,0-.06-10.49L77.23,12.9a10.48,10.48,0,0,0-9.11-5.2l-36.64.17a10.48,10.48,0,0,0-9.06,5.29L4.24,45a10.48,10.48,0,0,0,0,10.49L22.75,87.1a10.48,10.48,0,0,0,9.11,5.2l36.64-.17A10.47,10.47,0,0,0,77.58,86.86Z" style="fill: #a9b1c2"/>
  <g>
    <path d="M34.72,58l-8.91-11.7V58H20.08v-21h5.34l8.91,11.76V36.93H40V58Z" style="fill: #ecebe9"/>
    <path d="M42.28,61.17l9.8-27.45h5.07l-9.8,27.45Z" style="fill: #ecebe9"/>
    <path d="M63.75,54.6,62.49,58H56.07l9-21h6.42l8.67,21H73.47L72.24,54.6Zm4.32-11.43L65.49,50h5.1Z" style="fill: #ecebe9"/>
  </g>
</svg>
