<svg id="fd0e2401-4e93-412f-93c4-e47ef2f17d0a" data-name="Layer 1" xmlns="http://www.w3.org/2000/svg" viewBox="0 0 100 100">
  <title>icokt</title>
  <path d="M77.58,86.86,95.76,55a10.48,10.48,0,0,0-.06-10.49L77.23,12.9a10.48,10.48,0,0,0-9.11-5.2l-36.64.17a10.48,10.48,0,0,0-9.06,5.29L4.24,45a10.48,10.48,0,0,0,0,10.49L22.75,87.1a10.48,10.48,0,0,0,9.11,5.2l36.64-.17A10.47,10.47,0,0,0,77.58,86.86Z" style="fill: #42758c"/>
  <path d="M70.84,70.53v6.85a1.27,1.27,0,0,1-1.44,1.45H34.5c-1.32,0-2.64,0-4,0a1.25,1.25,0,0,1-1.38-1.37V70.53l-.44,0H25.05a.88.88,0,0,1-1-1V50c0-.91,0-1.81,0-2.72a.9.9,0,0,1,1-1h4.13V24.05c0-.5,0-1,0-1.48a1.26,1.26,0,0,1,1.37-1.4H61.25a1.44,1.44,0,0,1,1.07.45l8.07,8.07a1.44,1.44,0,0,1,.45,1.07c0,5,0,10,0,15.06v.46H75c.69,0,1,.32,1,1,0,2.95,0,5.89,0,8.84q0,6.7,0,13.4c0,.65-.33,1-1,1H71.29ZM31.74,23.74V46.27H68.26V31.57h-.41c-1,0-2,0-3-.07a4.9,4.9,0,0,1-4.35-4.42c-.06-1,0-1.95,0-2.93,0-.13,0-.27,0-.41Zm36.53,46.8H31.74v5.72H68.27Z" style="fill: #ecebe9"/>
  <g>
    <path d="M44.35,55.22l-1.68,2a3.22,3.22,0,0,0-2.34-1.3,2.54,2.54,0,0,0,0,5.06,3.53,3.53,0,0,0,2.34-1.14l1.68,1.8a5.93,5.93,0,0,1-4.16,1.89,5,5,0,1,1,.1-10A5.78,5.78,0,0,1,44.35,55.22Z" style="fill: #42758c"/>
    <path d="M54.21,54.58l-1.08,2.24a8.23,8.23,0,0,0-3.27-1.09c-.49,0-.81.17-.81.53,0,1.44,5.13.59,5.13,4.13,0,2.09-1.85,3.09-4,3.09a8,8,0,0,1-4.72-1.56l1.09-2.21a6.75,6.75,0,0,0,3.66,1.5c.61,0,1-.21,1-.66,0-1.49-5.13-.55-5.13-4,0-1.89,1.61-3.09,4.06-3.09A7.91,7.91,0,0,1,54.21,54.58Z" style="fill: #42758c"/>
    <path d="M64.22,54.58l-1.08,2.24a8.23,8.23,0,0,0-3.27-1.09c-.49,0-.81.17-.81.53,0,1.44,5.13.59,5.13,4.13,0,2.09-1.85,3.09-4,3.09a8,8,0,0,1-4.72-1.56l1.09-2.21a6.75,6.75,0,0,0,3.66,1.5c.61,0,1-.21,1-.66,0-1.49-5.13-.55-5.13-4,0-1.89,1.61-3.09,4.06-3.09A7.91,7.91,0,0,1,64.22,54.58Z" style="fill: #42758c"/>
  </g>
  <g>
    <path d="M44.78,39.13a1.33,1.33,0,1,1-2.65,0,1.33,1.33,0,0,1,2.65,0Z" style="fill: #ecebe9"/>
    <path d="M49.92,34.23c0,1.07-.34,1.58-1.28,1.79.94.22,1.28.73,1.28,1.79v1.36c0,.63.22.85,1.18.85v2.09H50c-1.93,0-2.59-.52-2.59-2.06V37.63c0-.41-.13-.53-.46-.53h-.59V35h.59c.33,0,.46-.14.46-.54V32c0-1.52.66-2.05,2.59-2.05H51.1V32c-1,0-1.18.23-1.18.86Z" style="fill: #ecebe9"/>
    <path d="M57.34,37.1h-.59c-.34,0-.46.12-.46.53v2.42c0,1.54-.66,2.06-2.59,2.06H52.59V40c.95,0,1.18-.22,1.18-.85V37.81c0-1.06.33-1.57,1.27-1.79-.94-.21-1.27-.72-1.27-1.79V32.87c0-.63-.23-.86-1.18-.86V29.93H53.7c1.93,0,2.59.53,2.59,2.05v2.43c0,.4.12.54.46.54h.59Z" style="fill: #ecebe9"/>
  </g>
</svg>
