<svg id="fe09cf58-5bb1-4414-a86f-f705a9c768fe" data-name="Layer 1" xmlns="http://www.w3.org/2000/svg" viewBox="0 0 100 100">
  <title>icokt</title>
  <path d="M77.58,86.86,95.76,55a10.48,10.48,0,0,0-.06-10.49L77.23,12.9a10.48,10.48,0,0,0-9.11-5.2l-36.64.17a10.48,10.48,0,0,0-9.06,5.29L4.24,45a10.48,10.48,0,0,0,0,10.49L22.75,87.1a10.48,10.48,0,0,0,9.11,5.2l36.64-.17A10.47,10.47,0,0,0,77.58,86.86Z" style="fill: #2d323b"/>
  <path d="M70.84,70.53v6.85a1.27,1.27,0,0,1-1.44,1.45H34.5c-1.32,0-2.64,0-4,0a1.25,1.25,0,0,1-1.38-1.37V70.53l-.44,0H25.05a.88.88,0,0,1-1-1V50c0-.91,0-1.81,0-2.72a.9.9,0,0,1,1-1h4.13V24.05c0-.5,0-1,0-1.48a1.26,1.26,0,0,1,1.37-1.4H61.25a1.44,1.44,0,0,1,1.07.45l8.07,8.07a1.44,1.44,0,0,1,.45,1.07c0,5,0,10,0,15.06v.46H75c.69,0,1,.32,1,1,0,2.95,0,5.89,0,8.84q0,6.7,0,13.4c0,.65-.33,1-1,1H71.29ZM31.74,23.74V46.27H68.26V31.57h-.41c-1,0-2,0-3-.07a4.9,4.9,0,0,1-4.35-4.42c-.06-1,0-1.95,0-2.93,0-.13,0-.27,0-.41Zm36.53,46.8H31.74v5.72H68.27Z" style="fill: #ecebe9"/>
  <g>
    <path d="M35.34,63.39V59.74H31.85v3.65H28.94V53.57h2.91v3.91h3.49V53.57h2.91v9.82Z" style="fill: #2d323b"/>
    <path d="M45.77,55.9v7.49H42.84V55.9H40V53.57h8.63V55.9Z" style="fill: #2d323b"/>
    <path d="M58.8,63.39V57.58l-2,4.84h-1.9l-2-4.84v5.81H50.37V53.57H53.5L55.86,59l2.37-5.44h3.12v9.82Z" style="fill: #2d323b"/>
    <path d="M70.87,61v2.44h-7V53.57h2.91V61Z" style="fill: #2d323b"/>
  </g>
  <g>
    <path d="M41.24,35.81l4.52,1.75v2l-6.34-2.59V34.69l6.34-2.59v2Z" style="fill: #ecebe9"/>
    <path d="M46.42,41.85,51,29h2.36L48.78,41.85Z" style="fill: #ecebe9"/>
    <path d="M57.93,35.7,53.4,34V32l6.35,2.59v2.26L53.4,39.41v-2Z" style="fill: #ecebe9"/>
  </g>
</svg>
