<svg id="a0783031-f75d-4769-8e1f-9b38d5af706e" data-name="Layer 1" xmlns="http://www.w3.org/2000/svg" viewBox="0 0 100 100">
  <title>icokt</title>
  <path d="M77.69,86.92,95.87,55.1a10.48,10.48,0,0,0-.05-10.49L77.35,13a10.48,10.48,0,0,0-9.11-5.2L31.6,7.93a10.48,10.48,0,0,0-9.06,5.29L4.36,45a10.48,10.48,0,0,0,0,10.49L22.87,87.16A10.48,10.48,0,0,0,32,92.36l36.64-.17A10.46,10.46,0,0,0,77.69,86.92Z" style="fill: #334962"/>
  <path id="e8eeee19-3b23-4abb-8f38-e59e3ae9d340" data-name="screen" d="M67.47,27.53H32.54a5.71,5.71,0,0,0-5.71,5.71V58.11a5.7,5.7,0,0,0,5.71,5.71H45v3.47L38.61,70.4H36a1,1,0,1,0,0,2.07H64a1,1,0,1,0,0-2.07H61.39L55,67.29V63.82H67.47a5.7,5.7,0,0,0,5.7-5.71V33.24A5.71,5.71,0,0,0,67.47,27.53ZM64.16,61.94H59.57a.71.71,0,1,1,0-1.42h4.59a.71.71,0,1,1,0,1.42Zm2.26,0a.71.71,0,0,1-.7-.71.71.71,0,0,1,1.41,0A.71.71,0,0,1,66.42,61.94Zm3.49-5.86a2.46,2.46,0,0,1-2.44,2.44H32.54a2.46,2.46,0,0,1-2.45-2.44V33.24a2.46,2.46,0,0,1,2.45-2.44H67.47a2.46,2.46,0,0,1,2.44,2.44ZM59.52,36.82H40.8V35H59.52ZM33.78,39v1.58H66.55V39Zm0,13.4h9.64V42.78H33.78Zm11.57,0H55V42.78H45.35Zm11.56,0h9.64V42.78H56.91Z" style="fill: #ecebe9"/>
</svg>
