<svg id="a4731af9-f217-4b43-ac38-71b6ecfe8bfc" data-name="Layer 1" xmlns="http://www.w3.org/2000/svg" viewBox="0 0 100 100">
  <title>icokt</title>
  <path d="M77.58,86.86,95.76,55a10.48,10.48,0,0,0-.06-10.49L77.23,12.9a10.48,10.48,0,0,0-9.11-5.2l-36.64.17a10.48,10.48,0,0,0-9.06,5.29L4.24,45a10.48,10.48,0,0,0,0,10.49L22.75,87.1a10.48,10.48,0,0,0,9.11,5.2l36.64-.17A10.47,10.47,0,0,0,77.58,86.86Z" style="fill: #efb360"/>
  <g>
    <circle cx="57.76" cy="57.14" r="12.9" style="fill: none;stroke: #fff;stroke-linecap: round;stroke-miterlimit: 10;stroke-width: 2px"/>
    <circle cx="61.16" cy="60.54" r="12.9" style="fill: none;stroke: #fff;stroke-linecap: round;stroke-miterlimit: 10;stroke-width: 2px"/>
    <circle cx="64.98" cy="64.36" r="12.9" style="fill: #fff"/>
    <line x1="44.13" y1="43.39" x2="29.95" y2="31" style="fill: none;stroke: #fff;stroke-linecap: round;stroke-miterlimit: 10;stroke-width: 2px"/>
    <line x1="26.25" y1="27.75" x2="23.83" y2="25.64" style="fill: none;stroke: #fff;stroke-linecap: round;stroke-miterlimit: 10;stroke-width: 2px"/>
    <line x1="42.84" y1="50.57" x2="40.11" y2="48.18" style="fill: none;stroke: #fff;stroke-linecap: round;stroke-miterlimit: 10;stroke-width: 2px"/>
    <line x1="36.4" y1="44.94" x2="35.19" y2="43.88" style="fill: none;stroke: #fff;stroke-linecap: round;stroke-miterlimit: 10;stroke-width: 2px"/>
    <line x1="40.74" y1="58.54" x2="33.78" y2="52.45" style="fill: none;stroke: #fff;stroke-linecap: round;stroke-miterlimit: 10;stroke-width: 2px"/>
    <line x1="30.47" y1="49.56" x2="28.05" y2="47.45" style="fill: none;stroke: #fff;stroke-linecap: round;stroke-miterlimit: 10;stroke-width: 2px"/>
    <line x1="53.55" y1="40.25" x2="43.33" y2="31.32" style="fill: none;stroke: #fff;stroke-linecap: round;stroke-miterlimit: 10;stroke-width: 2px"/>
    <line x1="39.17" y1="27.57" x2="37.61" y2="26.2" style="fill: none;stroke: #fff;stroke-linecap: round;stroke-miterlimit: 10;stroke-width: 2px"/>
  </g>
</svg>
