<svg id="f3cd8f62-5d02-465b-9fd1-aeded9d74118" data-name="Layer 1" xmlns="http://www.w3.org/2000/svg" viewBox="0 0 100 100">
  <title>icokt</title>
  <path d="M77.58,86.86,95.76,55a10.48,10.48,0,0,0-.06-10.49L77.23,12.9a10.48,10.48,0,0,0-9.11-5.2l-36.64.17a10.48,10.48,0,0,0-9.06,5.29L4.24,45a10.48,10.48,0,0,0,0,10.49L22.75,87.1a10.48,10.48,0,0,0,9.11,5.2l36.64-.17A10.47,10.47,0,0,0,77.58,86.86Z" style="fill: #f9ab00"/>
  <g>
    <path d="M66.18,52.46a4.44,4.44,0,0,1-4.43,4.47l-.55,0a4.56,4.56,0,0,1-3.89-4.63V25.77a4.57,4.57,0,0,1,3.9-4.63,4.46,4.46,0,0,1,4.94,3.91,4.89,4.89,0,0,1,0,.54Z" style="fill: #ecebe9"/>
    <path d="M38.26,48.06a4.44,4.44,0,1,1-4.44,4.44A4.43,4.43,0,0,1,38.26,48.06ZM49.93,34.62a4.56,4.56,0,0,0-4.31,4.66V51.2c0,3.24,1.42,5.2,3.51,5.62a4.43,4.43,0,0,0,5.23-3.48,3.79,3.79,0,0,0,.09-.89V39.08A4.46,4.46,0,0,0,50,34.61Z" style="fill: #ecebe9"/>
  </g>
  <g>
    <path d="M41.84,69.73v5.21A10.85,10.85,0,0,1,36.3,76.6a6.62,6.62,0,0,1-7-6.63c0-3.79,3.05-6.6,7.23-6.6a8.7,8.7,0,0,1,5.47,2L39.85,68a5.1,5.1,0,0,0-3.31-1.4,3.41,3.41,0,0,0,0,6.81,5.21,5.21,0,0,0,2-.49V69.73Z" style="fill: #ecebe9"/>
    <path d="M47.86,74.83a1.75,1.75,0,1,1-3.49,0,1.75,1.75,0,0,1,3.49,0Z" style="fill: #ecebe9"/>
    <path d="M54.16,74.36l-.78,2.07h-4l5.52-13h4l5.34,13H60.14l-.75-2.07Zm2.66-7-1.59,4.23h3.14Z" style="fill: #ecebe9"/>
    <path d="M69.3,74.83a1.75,1.75,0,1,1-3.49,0,1.75,1.75,0,0,1,3.49,0Z" style="fill: #ecebe9"/>
  </g>
</svg>
