<svg id="e6fd5c37-0d45-429c-89a0-66795daf5637" data-name="Layer 1" xmlns="http://www.w3.org/2000/svg" viewBox="0 0 100 100">
  <title>icokt</title>
  <path d="M77.69,86.92,95.87,55.1a10.48,10.48,0,0,0-.05-10.49L77.35,13a10.48,10.48,0,0,0-9.11-5.2L31.6,7.93a10.48,10.48,0,0,0-9.06,5.29L4.36,45a10.48,10.48,0,0,0,0,10.49L22.87,87.16A10.48,10.48,0,0,0,32,92.36l36.64-.17A10.46,10.46,0,0,0,77.69,86.92Z" style="fill: #606060"/>
  <g>
    <path d="M39.66,73H29.24L18,38.9H29.24l5.21,18.44.8,3.2,1.2-3.2L41.66,38.9h8.42L39.66,73Z" style="fill: #fff;fill-rule: evenodd"/>
    <path d="M61.57,65.35v-6h4a6.88,6.88,0,0,1,2.81.4,3,3,0,0,1,2,2.41,2.7,2.7,0,0,1-1.6,2.4,3.81,3.81,0,0,1-2.81.81H61.57ZM52,73H67.59c2.8,0,6.41,0,9.22-2,2.4-1.61,3.2-5.21,3.2-8,0-4-2.4-6.82-6.41-7.62a7.24,7.24,0,0,0,5.61-7.21A8.56,8.56,0,0,0,75.6,40.9c-2-1.6-4.41-2-7.21-2H52V73Zm9.62-20.84V46.51h4c2,0,4,0,4,2.81a2.19,2.19,0,0,1-1.2,2c-.4.81-1.61.81-2.81.81Z" style="fill: #fff;fill-rule: evenodd"/>
    <path d="M23,35.77H21.91V26.23h1.85l2.77,7.69,2.92-7.69h1.69v9.54H29.91V27.46l-3.08,8.31h-.77L23,27.46v8.31Zm10-7.08h1.08v7.08H33Zm-.15-2.46h1.23v1.23H32.84Zm8,7.23a2.57,2.57,0,0,1-2.62,2.47c-2.15,0-3.08-1.85-3.08-3.7s.93-3.69,3.08-3.69A2.57,2.57,0,0,1,40.84,31l-.93.15c-.15-.92-.61-1.69-1.69-1.69-1.54,0-1.85,1.54-1.85,2.77S36.68,35,38.22,35a1.82,1.82,0,0,0,1.69-1.69Zm2-4.77v1.69H43c.31-.92.92-1.84,2-1.84h.46v1.08h-.3a2.36,2.36,0,0,0-1.85,1.07A5.7,5.7,0,0,0,43,32.23v3.54H41.91V28.69ZM48.68,35a1.68,1.68,0,0,1-1.53-.92,3.63,3.63,0,0,1-.47-1.85A8,8,0,0,1,47,30.38a1.78,1.78,0,0,1,1.69-.92,1.88,1.88,0,0,1,1.54.77,4.75,4.75,0,0,1,.47,2,4.09,4.09,0,0,1-.47,1.85,1.69,1.69,0,0,1-1.54.92Zm-.15.93c2.16,0,3.23-1.7,3.23-3.7,0-1.84-.92-3.69-3.07-3.69s-3.24,1.69-3.24,3.69S46.38,35.93,48.53,35.93Zm5.08-2.16c.15.92,1.23,1.23,2.15,1.23s1.7-.31,1.7-1.08-.77-1.07-1.39-1.07L55,32.54c-1.07-.15-2.15-.62-2.15-1.85,0-1.54,1.39-2.15,2.62-2.15s2.46.46,2.77,1.85l-.93.15a1.85,1.85,0,0,0-1.84-1.08c-.62,0-1.54.16-1.54,1.08,0,.62.77.92,1.38.92l.93.16a4.6,4.6,0,0,1,1.54.61,1.57,1.57,0,0,1,.76,1.54c0,1.54-1.53,2.16-2.92,2.16a3,3,0,0,1-3.08-2l1.08-.15ZM62.53,35A1.68,1.68,0,0,1,61,34.08a3.63,3.63,0,0,1-.47-1.85,8,8,0,0,1,.31-1.85,1.77,1.77,0,0,1,1.69-.92,1.9,1.9,0,0,1,1.54.77,4.73,4.73,0,0,1,.46,2,4.08,4.08,0,0,1-.46,1.85,1.55,1.55,0,0,1-1.54.92Zm-.15.93a3.4,3.4,0,0,0,3.39-3.7c0-1.84-1.08-3.69-3.24-3.69-2,0-3.23,1.69-3.23,3.69s1.08,3.7,3.08,3.7Zm7.69-6.31H68.38v6.15H67.3V29.62H66.07v-.93H67.3c-.15-1.38.47-2.77,2.16-2.61l.92.15v.92a2,2,0,0,0-.92-.15c-1.08,0-1.08.92-1.08,1.69h1.69Z" style="fill: #fff;fill-rule: evenodd"/>
    <path d="M73.92,35.93H72.84c-1.53,0-2-.93-2-2.31v-4H69.61v-.93h1.23V27l1.08-.15v1.84h1.69v.93H71.92v4.15c0,.92.31,1.23,1.23,1.23h.77v.93Z" style="fill: #fff;fill-rule: evenodd"/>
    <path d="M75.77,27.31A1.21,1.21,0,0,1,77,28.54a1.2,1.2,0,0,1-1.23,1.08,1.1,1.1,0,0,1-1.23-1.08A1.13,1.13,0,0,1,75.77,27.31Zm0,2.61a1.37,1.37,0,0,0,1.38-1.38A1.42,1.42,0,0,0,75.77,27a1.45,1.45,0,0,0-1.54,1.54A1.41,1.41,0,0,0,75.77,29.92Zm.15-1.38c.31,0,.62-.15.62-.46a.33.33,0,0,0-.31-.31c0-.15-.15-.15-.31-.15h-.77v1.69h.31v-.77h.31l.46.77h.15Zm-.46-.15v-.47h.46c.16,0,.31,0,.31.16s-.31.3-.62.3h-.15Z" style="fill: #fff;fill-rule: evenodd"/>
  </g>
</svg>
