<svg id="b25cfb27-e88e-4f39-b237-c60455f80e89" data-name="Layer 1" xmlns="http://www.w3.org/2000/svg" viewBox="0 0 100 100">
  <title>icokt</title>
  <path d="M77.58,86.86,95.76,55a10.48,10.48,0,0,0-.06-10.49L77.23,12.9a10.48,10.48,0,0,0-9.11-5.2l-36.64.17a10.48,10.48,0,0,0-9.06,5.29L4.24,45a10.48,10.48,0,0,0,0,10.49L22.75,87.1a10.48,10.48,0,0,0,9.11,5.2l36.64-.17A10.47,10.47,0,0,0,77.58,86.86Z" style="fill: #ff4a1d"/>
  <path d="M34.05,57.34,31.6,66.51c0,.24-.12.24-.49.24h-4.5c-.24,0-.36-.12-.24-.48L35,35.81a8.41,8.41,0,0,0,.25-2.45c0-.24.12-.24.24-.24H42c.24,0,.24,0,.36.24l9.79,32.87c0,.25,0,.37-.25.37h-5c-.25,0-.37,0-.49-.24l-2.57-9.18-9.78.13Zm8.56-5C41.75,48.9,39.67,41.56,38.94,38h0c-.61,3.55-2.3,9.66-3.55,14.31ZM55.08,47c0-.24,0-1.34-.12-3.18,0-.24.12-.24.24-.37a27.06,27.06,0,0,1,9.42-2.11c4.28,0,9,1.72,9,9V66.27a.32.32,0,0,1-.26.36.17.17,0,0,1-.1,0H68.66a.32.32,0,0,1-.37-.27V50.85c0-2.93-1-4.52-4-4.52a9.13,9.13,0,0,0-3.43.61V66.51c0,.24-.12.37-.24.37h-5a.34.34,0,0,1-.37-.27v-.1l-.12-19.57Z" style="fill: #ecebe9"/>
</svg>
