<svg id="a985bad1-ced6-47b6-885c-bd81846509e5" data-name="Layer 1" xmlns="http://www.w3.org/2000/svg" viewBox="0 0 100 100">
  <title>icokt</title>
  <path d="M77.58,86.86,95.76,55a10.48,10.48,0,0,0-.06-10.49L77.23,12.9a10.48,10.48,0,0,0-9.11-5.2l-36.64.17a10.48,10.48,0,0,0-9.06,5.29L4.24,45a10.48,10.48,0,0,0,0,10.49L22.75,87.1a10.48,10.48,0,0,0,9.11,5.2l36.64-.17A10.47,10.47,0,0,0,77.58,86.86Z" style="fill: #8cc84b"/>
  <g>
    <g>
      <path d="M48,33.2a4.08,4.08,0,0,1,4,0L70.17,43.48a3.72,3.72,0,0,1,1.89,3.22V67.3a3.79,3.79,0,0,1-2,3.3L51.91,80.82a4,4,0,0,1-4-.11l-5.44-3.15a3.15,3.15,0,0,1-1.05-.75c.23-.31.65-.35,1-.49a12.34,12.34,0,0,0,2.15-1,.5.5,0,0,1,.56,0c1.55.88,3.08,1.8,4.63,2.68.34.19.67-.07,1-.22l17.79-10a.6.6,0,0,0,.33-.58V46.8a.62.62,0,0,0-.38-.63L50.35,36a.64.64,0,0,0-.7,0L31.59,46.17a.63.63,0,0,0-.38.63V67.2a.57.57,0,0,0,.33.57l4.82,2.72a3.72,3.72,0,0,0,3,.41,2.29,2.29,0,0,0,1.48-2.15c0-6.76,0-13.52,0-20.27a.51.51,0,0,1,.55-.52h2.32a.54.54,0,0,1,.51.62c0,6.8,0,13.6,0,20.4a5.17,5.17,0,0,1-2.42,4.67,7.44,7.44,0,0,1-6.66-.19c-1.76-.88-3.45-1.92-5.18-2.86a3.77,3.77,0,0,1-2-3.3V46.7a3.76,3.76,0,0,1,1.95-3.27Z" style="fill: #ecebe9"/>
      <path d="M53.28,47.48c2.63-.17,5.45-.1,7.82,1.19A5.93,5.93,0,0,1,64,53.8a.55.55,0,0,1-.6.4h-2.3c-.32,0-.51-.29-.55-.58a3.49,3.49,0,0,0-1.67-2.41,9.89,9.89,0,0,0-4.58-.65,6.22,6.22,0,0,0-3.28.81,2.08,2.08,0,0,0-.69,2.32c.24.59.92.78,1.47,1,3.17.83,6.54.75,9.65,1.84a4.55,4.55,0,0,1,3,2.66,5.68,5.68,0,0,1-1,5.43,7.57,7.57,0,0,1-4.08,2.19,19.6,19.6,0,0,1-6.16.27,9.76,9.76,0,0,1-5.42-2A5.71,5.71,0,0,1,46,60.5a.52.52,0,0,1,.56-.45h2.31a.55.55,0,0,1,.56.54A3.49,3.49,0,0,0,50.71,63c1.56,1,3.52.94,5.32,1,1.48-.07,3.14-.09,4.36-1.07a2.43,2.43,0,0,0,.65-2.3c-.19-.68-.9-1-1.51-1.2-3.13-1-6.53-.63-9.64-1.75a4.69,4.69,0,0,1-3-2.59A5.28,5.28,0,0,1,48,49.6a8.53,8.53,0,0,1,5.29-2.12Z" style="fill: #ecebe9"/>
    </g>
    <g>
      <path d="M34.77,27.23l-4.16-5.46v5.46H27.94V17.41h2.49l4.16,5.5v-5.5h2.66v9.82Z" style="fill: #ecebe9"/>
      <path d="M49.88,22.32a5.07,5.07,0,0,1-5.35,5,5,5,0,1,1,0-10A5,5,0,0,1,49.88,22.32Zm-7.72,0a2.49,2.49,0,0,0,2.41,2.59,2.43,2.43,0,0,0,2.33-2.59,2.41,2.41,0,0,0-2.33-2.56A2.47,2.47,0,0,0,42.16,22.33Z" style="fill: #ecebe9"/>
      <path d="M56.11,17.41c3.18,0,5.28,1.95,5.28,4.91S59.24,27.23,56,27.23h-4.2V17.41ZM54.72,25h1.47a2.3,2.3,0,0,0,2.23-2.6,2.38,2.38,0,0,0-2.37-2.64H54.72Z" style="fill: #ecebe9"/>
      <path d="M66.23,19.66V21.2h4.63v2.24H66.23V25h5.25v2.24H63.31V17.41h8v2.25Z" style="fill: #ecebe9"/>
    </g>
  </g>
</svg>
