<svg id="bec3d624-1832-4cdb-8895-3a5bd2156245" data-name="Layer 1" xmlns="http://www.w3.org/2000/svg" viewBox="0 0 100 100">
  <title>icokt</title>
  <path d="M77.58,86.86,95.76,55a10.48,10.48,0,0,0-.06-10.49L77.23,12.9a10.48,10.48,0,0,0-9.11-5.2l-36.64.17a10.48,10.48,0,0,0-9.06,5.29L4.24,45a10.48,10.48,0,0,0,0,10.49L22.75,87.1a10.48,10.48,0,0,0,9.11,5.2l36.64-.17A10.47,10.47,0,0,0,77.58,86.86Z" style="fill: #f96d39"/>
  <g id="f684e1cf-d1b6-4275-b8d7-0aa0e46e7b46" data-name="gqw2Ru.tif">
    <g>
      <path d="M29.27,58.12c0-4.73,0-9.46,0-14.19a5.78,5.78,0,0,1,1.75-4,12.84,12.84,0,0,1,4.34-2.85,32.34,32.34,0,0,1,8.44-2.16,47.84,47.84,0,0,1,10.29-.22,32.83,32.83,0,0,1,11.08,2.63,11.69,11.69,0,0,1,3.9,2.74,6.21,6.21,0,0,1,1.66,4.29q0,13.89,0,27.77a6.57,6.57,0,0,1-2.94,5.4,18.54,18.54,0,0,1-6.45,3,44.68,44.68,0,0,1-14.61,1.3,37.83,37.83,0,0,1-9.44-1.7,16.52,16.52,0,0,1-5.18-2.61,6.84,6.84,0,0,1-2.72-4.06A8,8,0,0,1,29.27,72V58.12Zm20.38-7.31a42.14,42.14,0,0,0,6.92-.47,27.16,27.16,0,0,0,6.87-1.84,10,10,0,0,0,3.17-2,3,3,0,0,0,0-4.71,9.4,9.4,0,0,0-1.69-1.26,19.3,19.3,0,0,0-5.75-2.11A43.88,43.88,0,0,0,43.3,38a26.46,26.46,0,0,0-7.13,2,8.4,8.4,0,0,0-3.29,2.39,2.72,2.72,0,0,0-.12,3.4,6,6,0,0,0,1.09,1.16,13.84,13.84,0,0,0,4.92,2.4A39.11,39.11,0,0,0,49.65,50.81ZM32.23,58c0,1.82,0,3.69,0,5.55a1.33,1.33,0,0,0,0,.28,4.09,4.09,0,0,0,1.78,2.51,15.41,15.41,0,0,0,5.24,2.36A35.67,35.67,0,0,0,47,70a41.84,41.84,0,0,0,14-1.32,14.86,14.86,0,0,0,4.87-2.23,3.72,3.72,0,0,0,1.87-2.84c0-1.84,0-3.67,0-5.51,0,0,0,0,0-.07s-.08,0-.1,0a13.4,13.4,0,0,1-4.87,2.73,38.69,38.69,0,0,1-11.54,1.9,46.28,46.28,0,0,1-9.54-.73,23.06,23.06,0,0,1-6.87-2.23C33.9,59.2,33.09,58.58,32.23,58Zm35.53,8.82a.63.63,0,0,0-.15.08A12.88,12.88,0,0,1,63,69.54a36.14,36.14,0,0,1-10.4,1.93,43.49,43.49,0,0,1-13.16-1.15,15.85,15.85,0,0,1-7.15-3.45s0,0-.1,0v.38c0,1.5.05,3,0,4.48a3.86,3.86,0,0,0,1.67,3.35,13.34,13.34,0,0,0,3.94,2,33.93,33.93,0,0,0,9.35,1.73,41.88,41.88,0,0,0,13.15-1.18,16.22,16.22,0,0,0,5.59-2.46,3.68,3.68,0,0,0,1.82-2.82C67.8,70.56,67.76,68.73,67.76,66.84ZM32.23,49.52v5.17a2.51,2.51,0,0,0,0,.27,4.07,4.07,0,0,0,1.8,2.54,15.63,15.63,0,0,0,5.21,2.35,36.86,36.86,0,0,0,7.95,1.23,41.29,41.29,0,0,0,13.69-1.3,15.4,15.4,0,0,0,4.92-2.22,4.06,4.06,0,0,0,2-3.74c-.08-1.3,0-2.6,0-3.91v-.32c-1.21.61-2.36,1.29-3.58,1.79A35,35,0,0,1,52.66,53.7a46.94,46.94,0,0,1-10.39-.55,27.24,27.24,0,0,1-7.65-2.29C33.81,50.46,33.05,50,32.23,49.52Z" style="fill: #ecebe9"/>
      <path d="M63.32,65.62a1.48,1.48,0,1,1,0-3,1.48,1.48,0,0,1,1.45,1.49A1.49,1.49,0,0,1,63.32,65.62Z" style="fill: #ecebe9"/>
      <path d="M63.35,74.49A1.46,1.46,0,0,1,61.85,73a1.48,1.48,0,0,1,2.95,0A1.46,1.46,0,0,1,63.35,74.49Z" style="fill: #ecebe9"/>
      <path d="M63.35,53.78a1.48,1.48,0,1,1-1.5,1.44A1.47,1.47,0,0,1,63.35,53.78Z" style="fill: #ecebe9"/>
    </g>
  </g>
  <g>
    <path d="M43.48,18.42,42.4,20.66a8.19,8.19,0,0,0-3.26-1.09c-.49,0-.81.17-.81.53,0,1.45,5.12.59,5.12,4.14,0,2.08-1.85,3.08-4,3.08a8,8,0,0,1-4.73-1.56l1.1-2.21a6.73,6.73,0,0,0,3.65,1.5c.62,0,1-.21,1-.66,0-1.48-5.12-.55-5.12-4,0-1.89,1.61-3.09,4.06-3.09A7.94,7.94,0,0,1,43.48,18.42Z" style="fill: #ecebe9"/>
    <path d="M55.94,28.55A4.73,4.73,0,0,1,53,29.64a3.43,3.43,0,0,1-3.17-2.29,5,5,0,1,1,.3-10,5,5,0,0,1,5.35,5A4.91,4.91,0,0,1,52.36,27a1.25,1.25,0,0,0,1,.55A3.17,3.17,0,0,0,55,26.8Zm-5.75-3.63a2.43,2.43,0,0,0,2.32-2.59,2.41,2.41,0,0,0-2.32-2.56,2.46,2.46,0,0,0-2.41,2.56A2.49,2.49,0,0,0,50.19,24.92Z" style="fill: #ecebe9"/>
    <path d="M64.47,24.8v2.43h-7V17.41h2.92V24.8Z" style="fill: #ecebe9"/>
  </g>
</svg>
