<svg id="e42fdc49-01a4-4900-a5df-a5a110420128" data-name="Layer 1" xmlns="http://www.w3.org/2000/svg" viewBox="0 0 100 100">
  <title>icokt</title>
  <path d="M77.58,86.86,95.76,55a10.48,10.48,0,0,0-.06-10.49L77.23,12.9a10.48,10.48,0,0,0-9.11-5.2l-36.64.17a10.48,10.48,0,0,0-9.06,5.29L4.24,45a10.48,10.48,0,0,0,0,10.49L22.75,87.1a10.48,10.48,0,0,0,9.11,5.2l36.64-.17A10.47,10.47,0,0,0,77.58,86.86Z" style="fill: #333"/>
  <path d="M50,21.69a28.74,28.74,0,0,0-7,56.62,4,4,0,0,1-.21-1.37V72.05h-3.6a4.9,4.9,0,0,1-4.52-2.44c-.94-1.72-1.08-4.38-3.45-6-.72-.58-.15-1.15.64-1.08a7.51,7.51,0,0,1,3.88,2.94c1.15,1.51,1.66,1.87,3.81,1.87a28.47,28.47,0,0,0,4-.29,8.94,8.94,0,0,1,3.81-4.67C37.79,61.2,33.19,56.46,33.19,50a11.88,11.88,0,0,1,3.23-7.76c-.64-2.22-1.51-6.82.29-8.62a10.2,10.2,0,0,1,7.54,3.52,22.14,22.14,0,0,1,7-1.15,21.81,21.81,0,0,1,7,1.15,10.17,10.17,0,0,1,7.54-3.52c1.73,1.73.94,6.4.22,8.62A11.65,11.65,0,0,1,69.11,50c0,6.47-4.53,11.21-14.08,12.22,2.66,1.36,4.53,5.24,4.53,8.12v6.54c0,.22-.08.43-.08.65A28.72,28.72,0,0,0,50,21.69Z" style="fill: #ecebe9"/>
</svg>
