<svg id="a0fd415a-a576-4bdf-adeb-ace48f0c2dcd" data-name="Layer 1" xmlns="http://www.w3.org/2000/svg" viewBox="0 0 100 100">
  <title>icokt</title>
  <path d="M77.69,86.92,95.87,55.1a10.48,10.48,0,0,0-.05-10.49L77.35,13a10.48,10.48,0,0,0-9.11-5.2L31.6,7.93a10.48,10.48,0,0,0-9.06,5.29L4.36,45a10.48,10.48,0,0,0,0,10.49L22.87,87.16A10.48,10.48,0,0,0,32,92.36l36.64-.17A10.46,10.46,0,0,0,77.69,86.92Z" style="fill: #3eb8b8"/>
  <g>
    <g id="a94a731b-6d6f-4a2c-b4a8-7425d6092437" data-name="baICRm.tif">
      <path d="M61.49,68.55c-.24.29-.44.55-.66.78-.65.66-1.31,1.32-2,2a1,1,0,0,1-1.78-.41c-.94-2.83-1.87-5.66-2.81-8.49-.54-1.6-1.07-3.21-1.6-4.81a1,1,0,0,1,.64-1.38,1.08,1.08,0,0,1,.59,0c1.94.63,3.88,1.29,5.81,1.93l6.94,2.31.73.25a1,1,0,0,1,.36,1.7c-.82.83-1.64,1.66-2.47,2.47-.2.19-.18.3,0,.49q3.08,3.06,6.12,6.14a2.45,2.45,0,0,1,.35,3.26,2.49,2.49,0,0,1-3.7.32c-1.16-1.13-2.29-2.28-3.44-3.43Z" style="fill: #fff"/>
    </g>
    <path d="M52.92,64.39H25.73a3.06,3.06,0,0,1-3.07-3.06V37a3.06,3.06,0,0,1,3.07-3.07h50A3.06,3.06,0,0,1,78.75,37V61.33a3.06,3.06,0,0,1-3.06,3.06H68.51" style="fill: none;stroke: #fff;stroke-linecap: round;stroke-miterlimit: 10;stroke-width: 2px"/>
    <polygon points="38.8 40.18 42.48 37.67 43.98 41.86 48.43 41.99 47.18 46.27 50.71 48.99 47.18 51.72 48.43 55.99 43.98 56.12 42.48 60.32 38.8 57.81 35.12 60.32 33.62 56.12 29.16 55.99 30.41 51.72 26.89 48.99 30.41 46.27 29.16 41.99 33.62 41.86 35.12 37.67 38.8 40.18" style="fill: #fff"/>
    <line x1="54.48" y1="39.85" x2="73.43" y2="39.85" style="fill: none;stroke: #fff;stroke-linecap: round;stroke-miterlimit: 10;stroke-width: 2px"/>
    <line x1="54.48" y1="45.5" x2="73.43" y2="45.5" style="fill: none;stroke: #fff;stroke-linecap: round;stroke-miterlimit: 10;stroke-width: 2px"/>
    <line x1="54.48" y1="51.15" x2="73.43" y2="51.15" style="fill: none;stroke: #fff;stroke-linecap: round;stroke-miterlimit: 10;stroke-width: 2px"/>
  </g>
</svg>
