<svg id="e4ddff6e-cedd-4f92-ba64-2f8cf1911e67" data-name="Layer 1" xmlns="http://www.w3.org/2000/svg" viewBox="0 0 100 100">
  <title>icokt</title>
  <path d="M77.58,86.86,95.76,55a10.48,10.48,0,0,0-.06-10.49L77.23,12.9a10.48,10.48,0,0,0-9.11-5.2l-36.64.17a10.48,10.48,0,0,0-9.06,5.29L4.24,45a10.48,10.48,0,0,0,0,10.49L22.75,87.1a10.48,10.48,0,0,0,9.11,5.2l36.64-.17A10.47,10.47,0,0,0,77.58,86.86Z" style="fill: #ff4a1d"/>
  <path d="M28.78,70.63V65.84l.82-.09c3.95-.39,5.83-1.24,8.36-3.77,2.95-2.95,4.93-6.65,8.2-15.34a51.62,51.62,0,0,1,6.77-13.18,21.65,21.65,0,0,1,10.69-7.65,25.4,25.4,0,0,1,6.9-1.23h.7v9.59l-.82.07A12.84,12.84,0,0,0,64.76,36c-2.27,1.33-5.05,4.73-6.61,8.09-.54,1.17-.84,1.08,3.58,1.08h3.9v9.72l-6,0-6,0L53,56.38a61.4,61.4,0,0,1-5.57,9.93c-3.69,5.22-8.63,8.06-15.52,8.93-.77.09-1.79.17-2.28.17h-.88V70.63Z" style="fill: #ecebe9"/>
</svg>
