<svg id="a1b24c24-902e-45b5-8810-c65f4ba7da3b" data-name="Layer 1" xmlns="http://www.w3.org/2000/svg" viewBox="0 0 100 100">
  <title>icokt</title>
  <path d="M77.58,86.86,95.76,55a10.48,10.48,0,0,0-.06-10.49L77.23,12.9a10.48,10.48,0,0,0-9.11-5.2l-36.64.17a10.48,10.48,0,0,0-9.06,5.29L4.24,45a10.48,10.48,0,0,0,0,10.49L22.75,87.1a10.48,10.48,0,0,0,9.11,5.2l36.64-.17A10.47,10.47,0,0,0,77.58,86.86Z" style="fill: #007c89"/>
  <path d="M64.51,48.7c.57,0,1.47.66,1.47,2.26a12,12,0,0,1-.8,3.77c-2.38,5.68-8,8.85-14.7,8.65-6.24-.19-11.57-3.5-13.9-8.9a6.11,6.11,0,0,1-4-1.6,5.93,5.93,0,0,1-2-3.78,6.49,6.49,0,0,1,.37-3L29.65,45c-6-5.1,12.75-26,18.73-20.78l2,2,1.12-.47c5.26-2.2,9.52-1.14,9.53,2.36,0,1.81-1.15,3.93-3,5.85a6,6,0,0,1,1.52,2.7,8.86,8.86,0,0,1,.32,2.2l.07,2.5.74.2A6.63,6.63,0,0,1,63.63,43a2.81,2.81,0,0,1,.82,1.6,3.08,3.08,0,0,1-.55,2.26,8.46,8.46,0,0,1,.32.85l.28,1Zm.07,2.79c.15-1-.06-1.31-.35-1.49a1,1,0,0,0-.66-.12,9.52,9.52,0,0,0-.63-2.16A13.76,13.76,0,0,1,58.41,50a18,18,0,0,1-6,.65c-1.31-.1-2.18-.49-2.5.58a14.11,14.11,0,0,0,6.16.63.12.12,0,0,1,.12.1.12.12,0,0,1-.07.12,9.32,9.32,0,0,1-6.3-.07c.1.91,1,1.32,1.41,1.49a6.94,6.94,0,0,0,1.12.3c4.79.83,9.27-1.92,10.28-2.62.07,0,.12,0,.06.1l-.1.13C61.32,53,58,54.85,53.68,54.85c-1.88,0-3.76-.67-4.45-1.7-1.08-1.58-.06-3.9,1.73-3.66l.78.09a16.2,16.2,0,0,0,8.13-1.31c2.44-1.14,3.36-2.4,3.22-3.4a1.5,1.5,0,0,0-.42-.83,5.18,5.18,0,0,0-2.3-1.1c-.39-.1-.65-.18-.93-.27-.5-.17-.76-.3-.81-1.25L58.5,39c0-1.05-.17-2.48-1-3.07a1.49,1.49,0,0,0-.76-.25,1.83,1.83,0,0,0-.45,0,2.34,2.34,0,0,0-1.18.67,4,4,0,0,1-3.07,1c-.62,0-1.28-.13-2-.17l-.44,0a4,4,0,0,0-3.9,3.56c-.44,3,1.7,4.52,2.33,5.43a.72.72,0,0,1,.17.4.67.67,0,0,1-.22.43,7.67,7.67,0,0,0-1.36,8c1.57,3.68,6.43,5.4,11.18,3.84a12,12,0,0,0,1.8-.77A9.22,9.22,0,0,0,62.28,56,8.21,8.21,0,0,0,64.58,51.49Zm-7.9-9.2A3.27,3.27,0,0,1,56.16,41c-.2-1-.18-1.65.37-1.74s.82.49,1,1.44a2.77,2.77,0,0,1,0,1.57,3.75,3.75,0,0,0-.82,0ZM51.94,43a3.27,3.27,0,0,0-1.53-.34c-.88.06-1.65.45-1.87.42s-.13,0-.14-.1.22-.44.48-.63a2.78,2.78,0,0,1,2.72-.33,2.3,2.3,0,0,1,1,.83c.1.15.11.27.05.33S52.33,43.21,51.94,43Zm-.8.45a1.5,1.5,0,0,1,1.35.45.16.16,0,0,1,0,.16c-.06.1-.18.08-.44,0a3.24,3.24,0,0,0-1.66.17,1.61,1.61,0,0,1-.38.1.12.12,0,0,1-.12-.12h0a.7.7,0,0,1,.25-.4,1.74,1.74,0,0,1,1-.4Zm3.94,1.68a.63.63,0,0,1-.4-.78c.12-.26.5-.32.86-.15a.54.54,0,1,1-.46.93Zm2.25-2c.29,0,.51.33.5.72s-.23.7-.52.7-.5-.32-.5-.72S57.05,43.19,57.33,43.19ZM42.56,34.61a.07.07,0,0,0,.09.1,15.12,15.12,0,0,1,11.93-2.39c.07,0,.12-.11.05-.15a8.43,8.43,0,0,0-3.63-1c-.06,0-.09-.06,0-.1a3.77,3.77,0,0,1,.68-.7.07.07,0,0,0-.05-.12,9.64,9.64,0,0,0-4.34,1.54.06.06,0,0,1-.1-.07,4.59,4.59,0,0,1,.45-1.13c0-.05,0-.11-.08-.08A17.78,17.78,0,0,0,42.56,34.61Zm-7.72,8.2A26.68,26.68,0,0,1,43.19,31,42.94,42.94,0,0,1,49,27a12,12,0,0,0-2.12-2c-3-.82-9.58,3.71-13.76,9.7-1.69,2.43-4.1,6.73-2.95,8.94a9.38,9.38,0,0,0,1.38,1.34A5.14,5.14,0,0,1,34.84,42.81ZM37.1,53c2.19-.37,2.76-2.76,2.4-5.1-.4-2.66-2.2-3.6-3.4-3.66a3.57,3.57,0,0,0-.9.06c-2.17.44-3.39,2.29-3.15,4.7a4.84,4.84,0,0,0,4.43,4A3.31,3.31,0,0,0,37.1,53Zm.83-2.72c.1,0,.22-.06.3,0a.2.2,0,0,1,0,.21.91.91,0,0,1-.85.43,1.18,1.18,0,0,1-1.06-1.23,3,3,0,0,1,.22-1.2A1.12,1.12,0,0,0,35.25,47a1.09,1.09,0,0,0-.7.5,3.08,3.08,0,0,0-.3.7c-.1.27-.25.35-.36.33s-.12,0-.17-.16a2.36,2.36,0,0,1,.61-2,1.91,1.91,0,0,1,1.63-.6,2,2,0,0,1,1.48,1.09,2.49,2.49,0,0,1-.18,2.2l-.06.15a.89.89,0,0,0,0,.84.58.58,0,0,0,.49.24A2,2,0,0,0,37.93,50.23Z" style="fill: #ecebe9;fill-rule: evenodd"/>
  <g>
    <path d="M28.68,76.47l0-4.73-1.6,3.94H25.51l-1.6-3.94v4.73H21.82v-8h2.54l1.93,4.42,1.92-4.42h2.54v8Z" style="fill: #ecebe9"/>
    <path d="M37.35,72.45v4H35.1v-.68a2.15,2.15,0,0,1-1.81.78,1.89,1.89,0,0,1-2.1-1.95c0-1.19.83-1.85,2.39-1.87H35.1v0c0-.51-.37-.82-1.07-.82a5,5,0,0,0-1.87.45l-.57-1.53a8,8,0,0,1,3-.64C36.32,70.18,37.35,71,37.35,72.45Zm-2.25,2v-.56H34.05c-.45,0-.69.2-.69.58s.25.62.69.62A1.12,1.12,0,0,0,35.1,74.43Z" style="fill: #ecebe9"/>
    <path d="M40.46,68.51a1.19,1.19,0,1,1-1.18-1.18A1.14,1.14,0,0,1,40.46,68.51Zm-2.34,8V70.28h2.3v6.19Z" style="fill: #ecebe9"/>
    <path d="M41.41,76.47V68h2.3v8.45Z" style="fill: #ecebe9"/>
    <path d="M50.33,71.81l-1.76.87a1.11,1.11,0,0,0-1-.62c-.62,0-1,.54-1,1.32s.41,1.35,1,1.35a1,1,0,0,0,1-.69l1.78.9a3,3,0,0,1-2.89,1.61,3.18,3.18,0,1,1,0-6.35A3.06,3.06,0,0,1,50.33,71.81Z" style="fill: #ecebe9"/>
    <path d="M57.21,72.54v3.93h-2.3V73.2a.88.88,0,0,0-.89-1c-.63,0-1,.5-1,1.21v3.06h-2.3V68H53v3.21a2.21,2.21,0,0,1,2-1A2.17,2.17,0,0,1,57.21,72.54Z" style="fill: #ecebe9"/>
    <path d="M60.32,68.51a1.19,1.19,0,1,1-1.19-1.18A1.14,1.14,0,0,1,60.32,68.51Zm-2.35,8V70.28h2.3v6.19Z" style="fill: #ecebe9"/>
    <path d="M71.76,72.54v3.93h-2.3V73.2c0-.61-.34-1-.86-1s-1,.5-1,1.21v3.06h-2.3V73.2c0-.61-.34-1-.86-1s-1,.5-1,1.21v3.06h-2.3V70.28h2.3v.94a2.16,2.16,0,0,1,1.92-1,2.09,2.09,0,0,1,2,1.35,2.24,2.24,0,0,1,4.29,1Z" style="fill: #ecebe9"/>
    <path d="M79.44,73.41c0,1.9-1.1,3.14-2.81,3.14a2.19,2.19,0,0,1-1.75-.8v2.93h-2.3v-8.4h2.3V71a2.11,2.11,0,0,1,1.7-.79C78.3,70.2,79.44,71.47,79.44,73.41Zm-2.32-.06c0-.82-.44-1.38-1.13-1.38s-1.11.56-1.11,1.38.45,1.38,1.11,1.38S77.12,74.17,77.12,73.35Z" style="fill: #ecebe9"/>
  </g>
</svg>
