<svg id="b6d23b20-ef7a-4d5d-b514-83b6c5afe644" data-name="Layer 1" xmlns="http://www.w3.org/2000/svg" viewBox="0 0 100 100">
  <title>icokt</title>
  <path d="M77.58,86.86,95.76,55a10.48,10.48,0,0,0-.06-10.49L77.23,12.9a10.48,10.48,0,0,0-9.11-5.2l-36.64.17a10.48,10.48,0,0,0-9.06,5.29L4.24,45a10.48,10.48,0,0,0,0,10.49L22.75,87.1a10.48,10.48,0,0,0,9.11,5.2l36.64-.17A10.47,10.47,0,0,0,77.58,86.86Z" style="fill: #e5c23e"/>
  <g id="eda0f59c-4bb4-491c-aa81-5380e5c12cdd" data-name="transform-square">
    <path d="M78.13,29.34V22.69H71.48V25H53.33V22.69H46.67V25H28.52V22.69H21.87v6.65h2.37v17.2H21.87v6.65h2.37V70.38H21.87V77h6.65V74.77H46.67V77h6.66V74.77H71.48V77h6.65V70.38H75.76V53.19h2.37V46.54H75.76V29.34Zm-4.19,17.2H71.48v6.65h2.46V70.38H71.48V73H53.33V70.38H46.67V73H28.52V70.38H26.06V53.19h2.46V46.54H26.06V29.34h2.46V26.77H46.67v2.57h6.66V26.77H71.48v2.57h2.46Z" style="fill: #fff"/>
  </g>
  <g id="a47db2f7-7e7a-410c-87a1-bed0053ddd3c" data-name="paint-brush">
    <path d="M62.67,41.76a1,1,0,0,0,1.41-.19l1.12-1.13A1,1,0,0,0,65.37,39l-4.54-4.48a1,1,0,0,0-1.41.18L58.3,35.87a1,1,0,0,0-.16,1.41l.53.53-1,1L56.5,37.62a1.68,1.68,0,0,0-1.2-.48,1.85,1.85,0,0,0-1.27.51l-6.46,6-.29-.34c-1.25-1.44-2.05-2.89-3.72-1.29-1.51,1.44-.38,2.46.94,3.84l.33.35L37.64,53a1.9,1.9,0,0,0-.19.21l-.79-.79-2.24,2.27L45.74,65.85,48,63.59l-.89-.88a1.44,1.44,0,0,0,.38-.32L47,61.93l.51.46,6.2-6.92,7.51,7.82C62.5,64.67,64,65.45,64.44,65s-.16-2-1.4-3.41l-7.29-8.44,6.56-7.34a1.87,1.87,0,0,0,.48-1.25,1.69,1.69,0,0,0-.5-1.23l-1.14-1.12,1-1ZM46.44,61.47a.4.4,0,0,1-.29.14.26.26,0,0,1-.18-.06l-1.86-1.78-5.65-5.58a.43.43,0,0,1,.12-.2l7.21-6.74,6.92,7.22ZM61.32,44.33a.33.33,0,0,1,.09.24.48.48,0,0,1-.13.33l-6.45,7.2-6.36-7.36L55,38.66a.5.5,0,0,1,.33-.13h0a.3.3,0,0,1,.23.08Z" style="fill: #fff"/>
    <path d="M42.49,41.81s3.31-2,.7-4.93a11.18,11.18,0,0,0-4-2.28c-2.08-.54-2.71-1.05-2.71-2.35a12.17,12.17,0,0,0,.21,6.45S39.36,43.89,42.49,41.81Z" style="fill: #fff"/>
  </g>
</svg>
