<svg id="a6fc2fa5-426e-4aa9-b81c-278b521d45bc" data-name="Layer 1" xmlns="http://www.w3.org/2000/svg" viewBox="0 0 100 100">
  <title>icokt</title>
  <path d="M77.58,86.86,95.76,55a10.48,10.48,0,0,0-.06-10.49L77.23,12.9a10.48,10.48,0,0,0-9.11-5.2l-36.64.17a10.48,10.48,0,0,0-9.06,5.29L4.24,45a10.48,10.48,0,0,0,0,10.49L22.75,87.1a10.48,10.48,0,0,0,9.11,5.2l36.64-.17A10.47,10.47,0,0,0,77.58,86.86Z" style="fill: #2e8774"/>
  <path d="M70.84,70.53v6.85a1.27,1.27,0,0,1-1.44,1.45H34.5c-1.32,0-2.64,0-4,0a1.25,1.25,0,0,1-1.38-1.37V70.53l-.44,0H25.05a.88.88,0,0,1-1-1V50c0-.91,0-1.81,0-2.72a.9.9,0,0,1,1-1h4.13V24.05c0-.5,0-1,0-1.48a1.26,1.26,0,0,1,1.37-1.4H61.25a1.44,1.44,0,0,1,1.07.45l8.07,8.07a1.44,1.44,0,0,1,.45,1.07c0,5,0,10,0,15.06v.46H75c.69,0,1,.32,1,1,0,2.95,0,5.89,0,8.84q0,6.7,0,13.4c0,.65-.33,1-1,1H71.29ZM31.74,23.74V46.27H68.26V31.57h-.41c-1,0-2,0-3-.07a4.9,4.9,0,0,1-4.35-4.42c-.06-1,0-1.95,0-2.93,0-.13,0-.27,0-.41Zm36.53,46.8H31.74v5.72H68.27Z" style="fill: #ecebe9"/>
  <g>
    <path d="M47.8,60.14c0,2.15-1.39,3.38-3.57,3.38a4.71,4.71,0,0,1-3.63-1.64L41.93,60A3.22,3.22,0,0,0,44,61.07c.53,0,.87-.34.87-1V55.9H41.52V53.57H47.8Z" style="fill: #2e8774"/>
    <path d="M58.26,54.58l-1.08,2.24a8.23,8.23,0,0,0-3.27-1.09c-.49,0-.81.17-.81.53,0,1.44,5.13.59,5.13,4.13,0,2.09-1.85,3.09-4,3.09a8,8,0,0,1-4.72-1.56l1.09-2.21a6.75,6.75,0,0,0,3.66,1.5c.62,0,1-.21,1-.66,0-1.49-5.13-.55-5.13-4,0-1.89,1.61-3.09,4.06-3.09A7.91,7.91,0,0,1,58.26,54.58Z" style="fill: #2e8774"/>
  </g>
  <g>
    <path d="M43.3,34.23C43.3,35.3,43,35.81,42,36c.94.22,1.27.73,1.27,1.79v1.36c0,.63.23.85,1.18.85v2.09H43.37c-1.93,0-2.59-.52-2.59-2.06V37.63c0-.41-.12-.53-.46-.53h-.59V35h.59c.34,0,.46-.14.46-.54V32c0-1.52.66-2.05,2.59-2.05h1.11V32c-.95,0-1.18.23-1.18.86Z" style="fill: #ecebe9"/>
    <path d="M48.59,39.13a1.32,1.32,0,1,1-2.64,0,1.32,1.32,0,0,1,2.64,0Z" style="fill: #ecebe9"/>
    <path d="M53,39.13a1.32,1.32,0,1,1-2.64,0,1.32,1.32,0,0,1,2.64,0Z" style="fill: #ecebe9"/>
    <path d="M59.54,37.1H59c-.33,0-.46.12-.46.53v2.42c0,1.54-.66,2.06-2.59,2.06H54.79V40c1,0,1.18-.22,1.18-.85V37.81c0-1.06.34-1.57,1.28-1.79-.94-.21-1.28-.72-1.28-1.79V32.87c0-.63-.22-.86-1.18-.86V29.93H55.9c1.93,0,2.59.53,2.59,2.05v2.43c0,.4.13.54.46.54h.59Z" style="fill: #ecebe9"/>
  </g>
</svg>
