<svg id="a957bebc-04ea-4081-85a7-b1b61c7d6fe7" data-name="Layer 1" xmlns="http://www.w3.org/2000/svg" viewBox="0 0 100 100">
  <title>icokt</title>
  <path d="M77.58,86.86,95.76,55a10.48,10.48,0,0,0-.06-10.49L77.23,12.9a10.48,10.48,0,0,0-9.11-5.2l-36.64.17a10.48,10.48,0,0,0-9.06,5.29L4.24,45a10.48,10.48,0,0,0,0,10.49L22.75,87.1a10.48,10.48,0,0,0,9.11,5.2l36.64-.17A10.47,10.47,0,0,0,77.58,86.86Z" style="fill: #936eba"/>
  <path d="M32.84,57.8,30.12,68c0,.27-.14.41-.55.41h-5c-.27,0-.41-.14-.27-.54l9.66-33.73a10.39,10.39,0,0,0,.27-2.72c0-.27.13-.27.27-.27h7.07c.27,0,.27,0,.41.27L52.83,68c0,.27,0,.41-.27.41H47a.75.75,0,0,1-.54-.27L43.72,57.8Zm9.52-5.44c-1-3.81-3.27-12-4.08-16h0c-.68,3.95-2.55,10.75-4,16Zm18.22,3.4c0,4.63,2.31,7.75,7.35,7.75a12.75,12.75,0,0,0,5.54-1.08c.27-.14.41,0,.41.27V67a1.09,1.09,0,0,1-.28.68,14.51,14.51,0,0,1-6.8,1.22c-9,0-12.37-6.66-12.37-14,0-8,4.25-14.56,11.42-14.56,7.35,0,9.93,6.26,9.93,11.29a19.06,19.06,0,0,1-.27,3.54.37.37,0,0,1-.34.34,42,42,0,0,1-5.71.27Zm6.94-4.62h2.55v-.55c0-1.93-.92-5.33-4.46-5.33-3.26,0-4.62,2.85-5,5.84Z" style="fill: #ecebe9"/>
</svg>
