<svg id="b83cfd16-8d94-40e9-b985-b5903b60a42a" data-name="Layer 1" xmlns="http://www.w3.org/2000/svg" viewBox="0 0 100 100">
  <title>icokt</title>
  <path d="M77.69,86.92,95.87,55.1a10.48,10.48,0,0,0-.05-10.49L77.35,13a10.48,10.48,0,0,0-9.11-5.2L31.6,7.93a10.48,10.48,0,0,0-9.06,5.29L4.36,45a10.48,10.48,0,0,0,0,10.49L22.87,87.16A10.48,10.48,0,0,0,32,92.36l36.64-.17A10.46,10.46,0,0,0,77.69,86.92Z" style="fill: #ed5f33"/>
  <g>
    <path d="M49.92,32.79H69.21c.85,0,.83,0,.76.82-.26,3-.5,6-.77,9-.24,2.74-.51,5.48-.76,8.22-.26,2.92-.51,5.85-.77,8.77s-.53,5.85-.79,8.78c-.15,1.65-.31,3.31-.44,5a.76.76,0,0,1-.67.78c-2,.53-4,1.09-6,1.64L52.29,77.8a12.84,12.84,0,0,1-2,.52,4.77,4.77,0,0,1-1.67-.21c-3.33-.92-6.64-1.86-10-2.79-1.46-.41-2.92-.8-4.38-1.18-.55-.14-.88-.35-.92-1-.14-2-.34-4-.52-6.08q-.4-4.44-.8-8.88l-.75-8.5c-.27-3-.55-6.07-.82-9.11-.21-2.43-.42-4.85-.65-7.28,0-.42.15-.52.51-.52H49.92Zm0,8.38H38c-.65,0-.69,0-.62.71.07.82.13,1.65.21,2.48q.51,5.61,1,11.2c.08.87.06.87.92.87h.22c5.27,0,10.53,0,15.8,0,.53,0,.63.19.57.66-.1.73-.14,1.47-.21,2.21-.09,1.06-.17,2.13-.3,3.2a.81.81,0,0,1-.39.56c-1.38.41-2.77.79-4.17,1.13a3.89,3.89,0,0,1-1.61.16c-1.53-.34-3-.83-4.55-1.2a.72.72,0,0,1-.62-.76c-.09-1-.2-2.06-.28-3.09,0-.34-.14-.49-.5-.49h-4.1c-.4,0-.51.16-.47.54q.33,3.51.61,7A.65.65,0,0,0,40,67q4.77,1.33,9.54,2.65a1.51,1.51,0,0,0,.76,0c3.13-.85,6.26-1.73,9.38-2.59a.72.72,0,0,0,.62-.72Q61,59.17,61.62,52c0-.44-.06-.65-.54-.65-2.46,0-4.92,0-7.38,0H43.78c-.38,0-.52-.13-.55-.51-.1-1.27-.23-2.53-.36-3.8-.09-.86-.09-.86.78-.86H61.5c.47,0,.63-.12.66-.61.07-1.2.21-2.39.33-3.59.09-.84.1-.85-.73-.85Z" style="fill: #ecebe9"/>
    <g>
      <path d="M37.17,31.12V27.6H33.81v3.52H31V21.67h2.81v3.76h3.36V21.67H40v9.45Z" style="fill: #ecebe9"/>
      <path d="M46.4,23.91v7.21H43.58V23.91H40.84V21.67h8.31v2.24Z" style="fill: #ecebe9"/>
      <path d="M58.15,31.12l0-5.6-1.9,4.67H54.4l-1.91-4.67v5.6H50V21.67h3l2.28,5.23,2.28-5.23h3v9.45Z" style="fill: #ecebe9"/>
      <path d="M69,28.78v2.34H62.19V21.67H65v7.11Z" style="fill: #ecebe9"/>
    </g>
  </g>
</svg>
