<svg id="b0280c33-19c6-4958-a2ed-b3006f2b3129" data-name="Layer 1" xmlns="http://www.w3.org/2000/svg" viewBox="0 0 100 100">
  <title>icokt</title>
  <path d="M77.58,86.92,95.76,55.1a10.48,10.48,0,0,0-.06-10.49L77.23,13a10.48,10.48,0,0,0-9.11-5.2l-36.64.17a10.48,10.48,0,0,0-9.06,5.29L4.24,45a10.48,10.48,0,0,0,0,10.49L22.75,87.16a10.48,10.48,0,0,0,9.11,5.2l36.64-.17A10.47,10.47,0,0,0,77.58,86.92Z" style="fill: #e5c23e"/>
  <path d="M50,32.79H69.29c.85,0,.83,0,.76.82-.26,3-.5,6-.77,9-.24,2.74-.51,5.48-.76,8.22-.26,2.92-.51,5.85-.77,8.77s-.53,5.85-.79,8.78c-.15,1.65-.31,3.31-.44,5a.76.76,0,0,1-.67.78c-2,.53-4,1.09-6,1.64L52.37,77.8a12.84,12.84,0,0,1-2,.52,4.77,4.77,0,0,1-1.67-.21c-3.33-.92-6.64-1.86-10-2.79-1.46-.41-2.92-.8-4.38-1.18-.55-.14-.88-.35-.92-1-.14-2-.34-4-.52-6.08-.26-3-.54-5.92-.8-8.88l-.75-8.5c-.27-3-.55-6.07-.82-9.11-.21-2.43-.42-4.85-.65-7.28,0-.42.15-.52.51-.52H50Z" style="fill: #ecebe9"/>
  <g>
    <path d="M35.64,27.59c0,2.14-1.39,3.38-3.57,3.38a4.71,4.71,0,0,1-3.63-1.64l1.33-1.92a3.22,3.22,0,0,0,2.06,1.11c.53,0,.87-.34.87-1V23.35H29.36V21h6.28Z" style="fill: #ecebe9"/>
    <path d="M46.1,22,45,24.27a8.24,8.24,0,0,0-3.26-1.09c-.49,0-.82.17-.82.53,0,1.44,5.13.59,5.13,4.13,0,2.09-1.85,3.09-4,3.09a8,8,0,0,1-4.72-1.56l1.09-2.21a6.75,6.75,0,0,0,3.66,1.5c.62,0,1-.21,1-.66,0-1.49-5.13-.55-5.13-4,0-1.89,1.61-3.09,4.06-3.09A7.91,7.91,0,0,1,46.1,22Z" style="fill: #ecebe9"/>
    <path d="M54.79,23.26V24.8h4.64v2.25H54.79V28.6H60v2.24H51.88V21h8v2.24Z" style="fill: #ecebe9"/>
    <path d="M70.42,22l-1.08,2.24a8.23,8.23,0,0,0-3.27-1.09c-.49,0-.81.17-.81.53,0,1.44,5.13.59,5.13,4.13,0,2.09-1.85,3.09-4,3.09a8,8,0,0,1-4.72-1.56l1.09-2.21a6.75,6.75,0,0,0,3.66,1.5c.61,0,1-.21,1-.66,0-1.49-5.13-.55-5.13-4,0-1.89,1.61-3.09,4.06-3.09A7.91,7.91,0,0,1,70.42,22Z" style="fill: #ecebe9"/>
  </g>
  <path d="M62.7,41.09H37.3l2.44,25.75L50,69.76,60.26,67l1.49-15.58-18.32-.06-.36-4.82h19Zm-6.6,15.4-.42,6.37L50.06,64.4l-5.62-1.54L44,56.49Z" style="fill: #e5c23e"/>
</svg>
