<svg id="bec30054-6786-456d-a362-c318970401a1" data-name="Layer 1" xmlns="http://www.w3.org/2000/svg" viewBox="0 0 100 100">
  <title>icokt</title>
  <path d="M77.69,86.92,95.87,55.1a10.48,10.48,0,0,0-.05-10.49L77.35,13a10.48,10.48,0,0,0-9.11-5.2L31.6,7.93a10.48,10.48,0,0,0-9.06,5.29L4.36,45a10.48,10.48,0,0,0,0,10.49L22.87,87.16A10.48,10.48,0,0,0,32,92.36l36.64-.17A10.46,10.46,0,0,0,77.69,86.92Z" style="fill: #33afe5"/>
  <g>
    <path d="M44.77,22.67l-1.68,2a3.22,3.22,0,0,0-2.34-1.3,2.38,2.38,0,0,0-2.34,2.52,2.39,2.39,0,0,0,2.34,2.54,3.53,3.53,0,0,0,2.34-1.14l1.68,1.8A6,6,0,0,1,40.61,31a5,5,0,1,1,.1-10A5.8,5.8,0,0,1,44.77,22.67Z" style="fill: #ecebe9"/>
    <path d="M54.62,22l-1.07,2.24a8.23,8.23,0,0,0-3.27-1.09c-.49,0-.81.17-.81.53,0,1.44,5.13.59,5.13,4.13,0,2.09-1.85,3.09-4.05,3.09a8,8,0,0,1-4.72-1.56l1.09-2.21a6.75,6.75,0,0,0,3.66,1.5c.61,0,1-.21,1-.66,0-1.49-5.13-.55-5.13-4,0-1.89,1.61-3.09,4.06-3.09A7.84,7.84,0,0,1,54.62,22Z" style="fill: #ecebe9"/>
    <path d="M64.63,22l-1.07,2.24a8.23,8.23,0,0,0-3.27-1.09c-.49,0-.81.17-.81.53,0,1.44,5.13.59,5.13,4.13,0,2.09-1.85,3.09-4,3.09a8,8,0,0,1-4.72-1.56l1.09-2.21a6.75,6.75,0,0,0,3.66,1.5c.61,0,1-.21,1-.66,0-1.49-5.13-.55-5.13-4,0-1.89,1.61-3.09,4.06-3.09A7.84,7.84,0,0,1,64.63,22Z" style="fill: #ecebe9"/>
  </g>
  <path d="M50.11,32.77H69.74c.61,0,.61,0,.56.59l-.81,8.7c-.25,2.66-.48,5.33-.73,8S68.25,55.34,68,58s-.48,5.3-.72,7.95c-.23,2.45-.46,4.91-.68,7.36a.51.51,0,0,1-.44.48L63,74.67l-5.66,1.61-5.59,1.58a3.5,3.5,0,0,0-.55.17c-1,.51-2,0-2.92-.25L42.2,76l-6.05-1.78-2.34-.68a.49.49,0,0,1-.4-.5c-.31-3.57-.64-7.14-1-10.71-.24-2.76-.47-5.52-.72-8.28s-.52-5.52-.76-8.29-.49-5.52-.73-8.28c-.12-1.4-.25-2.79-.38-4.19-.05-.52-.05-.54.49-.54Zm.35,13.47v.13l-6.87,2.91q-2.34,1-4.66,2a.57.57,0,0,0-.29.41c.15,1.33.35,2.66.49,4,.06.46.24.58.69.58,5.44,0,10.87,0,16.31.07.58,0,.6,0,.54.56-.22,1.83-.45,3.64-.66,5.47a.56.56,0,0,1-.48.56c-1.28.35-2.55.75-3.83,1.1-.74.19-1.47.63-2.28.22a3,3,0,0,0-.51-.16l-4.09-1.22a.55.55,0,0,1-.45-.6c0-1-.13-2.07-.16-3.1,0-.4-.16-.5-.53-.49-1.28,0-2.57,0-3.86,0-.61,0-.62,0-.57.62.15,2.27.32,4.53.46,6.79a.45.45,0,0,0,.36.45l3.53,1c2,.59,4,1.2,6,1.77a2.11,2.11,0,0,0,1,0c1.31-.34,2.61-.73,3.92-1.1l5.54-1.56a.51.51,0,0,0,.43-.55c.19-2.4.4-4.8.6-7.2s.37-4.58.54-6.87c0-.58,0-.58-.56-.57l-10.42.09h-.47a.6.6,0,0,1,.3-.31c3.74-1.68,7.49-3.37,11.24-5a.82.82,0,0,0,.54-.75c.12-1.27.26-2.53.38-3.8.06-.62,0-.62-.58-.62H37.87c-.32,0-.4.13-.37.44.15,1.32.28,2.64.43,4,.06.59.07.59.65.6l11.33.1C50.09,46.2,50.28,46.23,50.46,46.24Z" style="fill: #ecebe9"/>
</svg>
