<svg id="b1175002-fd45-4d86-bb1b-ada13bd920ea" data-name="Layer 1" xmlns="http://www.w3.org/2000/svg" viewBox="0 0 100 100">
  <title>icokt</title>
  <path d="M77.69,86.92,95.87,55.1a10.48,10.48,0,0,0-.05-10.49L77.35,13a10.48,10.48,0,0,0-9.11-5.2L31.6,7.93a10.48,10.48,0,0,0-9.06,5.29L4.36,45a10.48,10.48,0,0,0,0,10.49L22.87,87.16A10.48,10.48,0,0,0,32,92.36l36.64-.17A10.46,10.46,0,0,0,77.69,86.92Z" style="fill: #e84359"/>
  <g>
    <g id="faa89283-4db1-4051-a8b6-c3b59cd964cd" data-name="transform">
      <path id="f42ee3bf-7eb3-4c28-9d6c-41fe311dc224" data-name="transform" d="M58.51,29.24h3.55a3.56,3.56,0,1,0,0-2.37H54.74V23.31H45.26v3.56H37.94a3.56,3.56,0,1,0,0,2.37h3.55a16.54,16.54,0,0,0-8.07,14.21H31.05v7.11h7.1V43.45H35.79a14.22,14.22,0,0,1,9.47-13.39v2.73h9.48V30.06a14.22,14.22,0,0,1,9.47,13.39H61.85v7.11H69V43.45H66.58A16.54,16.54,0,0,0,58.51,29.24Zm6.89-2.37a1.19,1.19,0,1,1-1.19,1.18A1.18,1.18,0,0,1,65.4,26.87ZM34.6,29.24a1.19,1.19,0,1,1,1.19-1.19A1.18,1.18,0,0,1,34.6,29.24Zm1.19,19H33.42V45.82h2.37ZM52.37,27.06v3.36H47.63V25.68h4.74ZM66.58,48.19H64.21V45.82h2.37Z" style="fill: #ecebe9"/>
    </g>
    <path d="M57.81,61.27a5.2,5.2,0,0,0-.58-4c-1.72-2.89-3.33-5.84-5-8.76-.61-1.08-1.23-2.16-1.92-3.36v0L50,44.6h0l-.29.51v0c-.69,1.2-1.31,2.28-1.92,3.36-1.66,2.92-3.27,5.87-5,8.76a5.2,5.2,0,0,0-.58,4c.63,2.66,1.17,5.34,1.9,8A19.6,19.6,0,0,1,44,76.69H56a19.6,19.6,0,0,1-.09-7.44C56.63,66.61,57.18,63.93,57.81,61.27ZM55.28,63.2c-.76,2.35-1.18,4.8-1.74,7.18h-7c-.56-2.38-1-4.83-1.74-7.18a7.35,7.35,0,0,1,1.11-7.14c1.1-1.52,1.92-3.25,3.15-4.8,0,2,0,4,0,6,0,.29-.37.61-.61.86a2.54,2.54,0,0,0-.18,3.6,2.65,2.65,0,0,0,1.52.7h.6a2.65,2.65,0,0,0,1.52-.7,2.54,2.54,0,0,0-.18-3.6c-.25-.25-.6-.57-.61-.86,0-2,0-4,0-6,1.23,1.55,2,3.28,3.15,4.8A7.37,7.37,0,0,1,55.28,63.2Z" style="fill: #ecebe9"/>
  </g>
</svg>
