<svg id="a02a8233-bf5b-4b33-851c-cd88e6993d04" data-name="Layer 1" xmlns="http://www.w3.org/2000/svg" viewBox="0 0 100 100">
  <title>icokt</title>
  <path d="M77.69,86.92,95.87,55.1a10.48,10.48,0,0,0-.05-10.49L77.35,13a10.48,10.48,0,0,0-9.11-5.2L31.6,7.93a10.48,10.48,0,0,0-9.06,5.29L4.36,45a10.48,10.48,0,0,0,0,10.49L22.87,87.16A10.48,10.48,0,0,0,32,92.36l36.64-.17A10.46,10.46,0,0,0,77.69,86.92Z" style="fill: #1a4674"/>
  <g>
    <path d="M83.5,51.41H80.62V54.3H77.74V51.41H74.86V48.53h2.88V45.65h2.88v2.88H83.5v2.88M73,51.41H70.11V54.3H67.22V51.41H64.34V48.53h2.88V45.65h2.89v2.88H73v2.88" style="fill: #fff"/>
    <path d="M58.57,56.14a12.52,12.52,0,0,1-21.79.08A12.37,12.37,0,0,1,35.13,50a12.53,12.53,0,0,1,23.36-6.29l10.95-6.3a25.15,25.15,0,1,0,.07,25.07L58.57,56.14" style="fill: #fff"/>
  </g>
</svg>
