<svg id="b916b09f-496c-4dde-b9db-9d61764e2578" data-name="Layer 1" xmlns="http://www.w3.org/2000/svg" viewBox="0 0 100 100">
  <title>icokt</title>
  <path d="M77.69,86.92,95.87,55.1a10.48,10.48,0,0,0-.05-10.49L77.35,13a10.48,10.48,0,0,0-9.11-5.2L31.6,7.93a10.48,10.48,0,0,0-9.06,5.29L4.36,45a10.48,10.48,0,0,0,0,10.49L22.87,87.16A10.48,10.48,0,0,0,32,92.36l36.64-.17A10.46,10.46,0,0,0,77.69,86.92Z" style="fill: #667689"/>
  <g>
    <g>
      <path d="M72.65,41.49h0V39.32H60.81a1.48,1.48,0,0,1-1.19-.48q-3-3.06-6.06-6.06A1.51,1.51,0,0,1,53,31.53c0-.63,0-1.27,0-2H61.4c1.1,0,1.45-.37,1.45-1.48,0-1.95,0-3.9,0-5.85,0-1-.37-1.38-1.39-1.38H53.1V14.08H50.82V20.8h-8.2c-1.24,0-1.55.32-1.55,1.58V24H39.51v0H24.92c-.94,0-1.27.4-1.27,1.43V35c-2.85,1.07-4.33,2.78-4.34,5.17,0,3,1.57,4.74,4.34,5.61v9.47c0,1.13.34,1.48,1.44,1.48h16v1.94c0,.93.4,1.32,1.33,1.32h8.44v3.3a7.73,7.73,0,0,0-6.48,8.24,7.64,7.64,0,0,0,6.89,6.94,7.32,7.32,0,0,0,4.91-1.24A7.69,7.69,0,0,0,59.52,72H70.77c1.68,0,1.89-.2,1.89-1.85q0-13.95,0-27.9ZM58,40.4l-6,6-6-6,6-6ZM43.28,23H60.64V27.3H43.28ZM24.7,43.67A3.27,3.27,0,1,1,28,40.41,3.29,3.29,0,0,1,24.7,43.67Zm16.37,9.74v1.11H25.88V45.75a5.59,5.59,0,0,0,3.44-2.41,5.33,5.33,0,0,0,.86-3.16c-.07-2.4-1.55-4.16-4.33-5.15V26.3H41.07V28c0,1.12.35,1.48,1.45,1.48h8.35c0,.88,0,1.69,0,2.5a.85.85,0,0,1-.27.51Q47.36,35.77,44.1,39a1.16,1.16,0,0,1-.71.29c-.74,0-1.49,0-2.27,0v2.18c.73,0,1.45,0,2.17,0a1.45,1.45,0,0,1,.87.36q3.21,3.14,6.36,6.34a1.43,1.43,0,0,1,.34.82c0,.72,0,1.45,0,2.26h-7.7C41.19,51.29,41.06,51.41,41.07,53.41Zm2.21,4.37V53.51H60.64v4.27Zm8.66,18.56a5.45,5.45,0,1,1,5.47-5.44A5.46,5.46,0,0,1,51.94,76.34Zm18.49-6.58H59.54a7.8,7.8,0,0,0-6.46-6.44V60h8.38c1,0,1.39-.36,1.39-1.39,0-2,0-3.94,0-5.92,0-1-.37-1.4-1.45-1.4H53.05c0-.87,0-1.68,0-2.49a1,1,0,0,1,.3-.56q3.21-3.24,6.45-6.45a1,1,0,0,1,.57-.28c3.33,0,6.66,0,10,0Z" style="fill: #ecebe9"/>
      <path d="M32.4,39.35h2.09v2.1H32.4Z" style="fill: #ecebe9"/>
      <path d="M38.86,41.46h-2.1v-2.1h2.1Z" style="fill: #ecebe9"/>
    </g>
    <rect x="50.84" y="77.27" width="2.21" height="8.65" style="fill: #ecebe9"/>
  </g>
</svg>
