<svg id="a69ed3b0-1db8-441b-a4bc-a3ade2a34623" data-name="Layer 1" xmlns="http://www.w3.org/2000/svg" viewBox="0 0 100 100">
  <title>icokt</title>
  <path d="M77.69,86.92,95.87,55.1a10.48,10.48,0,0,0-.05-10.49L77.35,13a10.48,10.48,0,0,0-9.11-5.2L31.6,7.93a10.48,10.48,0,0,0-9.06,5.29L4.36,45a10.48,10.48,0,0,0,0,10.49L22.87,87.16A10.48,10.48,0,0,0,32,92.36l36.64-.17A10.46,10.46,0,0,0,77.69,86.92Z" style="fill: #f8981d"/>
  <g>
    <g>
      <path d="M34.24,70.69h-2.5Q31.6,64.36,31,58.8h0l-3.8,11.89h-1.9L21.51,58.8h0C21.2,62.36,21,66.33,21,70.69H18.68q.22-8,1.1-14.92h3.1l3.6,11h0l3.63-11h3q1,8.16,1.15,14.92m10.83-11q-1.53,8.28-4,12-1.93,2.9-4.26,2.89a4.19,4.19,0,0,1-1.53-.37V72.9a7.74,7.74,0,0,0,1,.07,2.5,2.5,0,0,0,1.75-.6,2.18,2.18,0,0,0,.79-1.64,10.83,10.83,0,0,0-.61-2.54l-2.75-8.51h2.46l2,6.37a8.51,8.51,0,0,1,.56,3,41.9,41.9,0,0,0,2.25-9.39Z" style="fill: #ecebe9"/>
      <path d="M78.31,70.69h-7.1V55.77H73.6V68.85h4.71Zm-9,.36L66.61,69.7A4.85,4.85,0,0,0,67.3,69c1.16-1.37,1.75-3.39,1.75-6.08q0-7.39-5.82-7.4a5.48,5.48,0,0,0-4.44,1.88q-1.74,2.05-1.74,6t1.54,5.77a5.3,5.3,0,0,0,4.27,1.66,7,7,0,0,0,2-.26l3.57,2.08ZM60.47,67.7a9.23,9.23,0,0,1-.9-4.68q0-5.64,3.42-5.64a2.87,2.87,0,0,1,2.63,1.35,9.12,9.12,0,0,1,.91,4.64q0,5.68-3.43,5.68a2.86,2.86,0,0,1-2.63-1.35M56,66.55a4,4,0,0,1-1.4,3.12,5.46,5.46,0,0,1-3.73,1.22,7.46,7.46,0,0,1-4.24-1.4l.64-1.28a7.24,7.24,0,0,0,3.2.88,3.33,3.33,0,0,0,2.11-.59,2,2,0,0,0,.81-1.66c0-.88-.61-1.64-1.75-2.28s-3.13-1.77-3.13-1.77a3.56,3.56,0,0,1-1.71-3.17,3.73,3.73,0,0,1,1.27-2.93,4.79,4.79,0,0,1,3.29-1.12,6.8,6.8,0,0,1,3.78,1.11L54.57,58a7.35,7.35,0,0,0-2.87-.62,2.55,2.55,0,0,0-1.77.55,1.87,1.87,0,0,0-.67,1.42c0,.88.63,1.65,1.8,2.29s3.2,1.8,3.2,1.8A3.54,3.54,0,0,1,56,66.55" style="fill: #ecebe9"/>
    </g>
    <path d="M83,51.76a15.81,15.81,0,0,0-6.59,1c-.51.21-1.32.21-1.39.85.27.27.3.71.54,1.09a8,8,0,0,0,1.77,2.07c.71.55,1.43,1.08,2.17,1.56,1.32.82,2.82,1.29,4.11,2.11.75.47,1.49,1.08,2.24,1.59.37.28.61.72,1.09.89v-.11c-.24-.3-.31-.74-.54-1.08l-1-1a16.4,16.4,0,0,0-3.53-3.43c-1.09-.74-3.47-1.76-3.91-3l-.07-.06a14.22,14.22,0,0,0,2.34-.55c1.16-.31,2.21-.24,3.4-.54.54-.14,1.08-.31,1.63-.48v-.3c-.61-.62-1-1.43-1.7-2A45.22,45.22,0,0,0,78,46.13c-1-.68-2.41-1.12-3.53-1.7-.41-.21-1.09-.31-1.33-.65a13.54,13.54,0,0,1-1.39-2.61c-1-1.87-1.94-3.94-2.78-5.91a36.7,36.7,0,0,0-1.74-3.87A34.12,34.12,0,0,0,54,18.69,16.14,16.14,0,0,0,49.7,17.3l-2.55-.14A13.1,13.1,0,0,1,45.59,16c-1.94-1.22-6.93-3.87-8.35-.37-.92,2.21,1.36,4.38,2.14,5.5a16.12,16.12,0,0,1,1.73,2.55c.24.58.3,1.19.54,1.8A41.62,41.62,0,0,0,43.42,30a16.38,16.38,0,0,0,1.25,2.1c.28.38.75.54.85,1.16a9.68,9.68,0,0,0-.78,2.54c-1.22,3.84-.74,8.59,1,11.41.54.85,1.83,2.72,3.56,2,1.53-.61,1.19-2.54,1.63-4.24.1-.41,0-.68.24-.95v.07c.47.95,1,1.86,1.39,2.82A19.45,19.45,0,0,0,57,51.45c.81.62,1.46,1.67,2.47,2v-.1h-.06a4.23,4.23,0,0,0-.78-.68,16.82,16.82,0,0,1-1.77-2A44.86,44.86,0,0,1,53,44.5c-.55-1.06-1-2.21-1.46-3.26-.2-.41-.2-1-.55-1.23a12.89,12.89,0,0,0-1.62,2.31,19,19,0,0,0-1,5.13l-.13.07c-1.08-.27-1.46-1.39-1.87-2.34a14.64,14.64,0,0,1-.3-9.07c.23-.71,1.25-3,.85-3.63-.21-.65-.89-1-1.26-1.53a13.33,13.33,0,0,1-1.22-2.18c-.82-1.9-1.23-4-2.11-5.9a18.83,18.83,0,0,0-1.69-2.62,16.55,16.55,0,0,1-1.87-2.65c-.17-.37-.41-1-.14-1.39a.55.55,0,0,1,.48-.44c.44-.37,1.69.1,2.13.31a16.86,16.86,0,0,1,3.37,1.69c.47.34,1,1,1.59,1.16H47c1.08.23,2.3.06,3.32.37a22.11,22.11,0,0,1,4.89,2.34A30,30,0,0,1,65.79,33.26c.41.78.58,1.49.95,2.3.72,1.67,1.6,3.37,2.31,5a23,23,0,0,0,2.42,4.55c.5.71,2.55,1.08,3.46,1.46a21.18,21.18,0,0,1,2.34,1c1.16.71,2.31,1.52,3.4,2.31.54.4,2.24,1.25,2.34,1.93M48.37,22.26a5,5,0,0,0-1.39.17v.06h.07a10.7,10.7,0,0,0,1.09,1.4c.27.54.51,1.08.77,1.62l.07-.06a1.92,1.92,0,0,0,.72-1.7,6.47,6.47,0,0,1-.41-.71c-.2-.34-.64-.51-.92-.78" style="fill: #ecebe9"/>
  </g>
</svg>
