<svg id="aef80e70-6e89-4262-a04a-83e77422ff24" data-name="Layer 1" xmlns="http://www.w3.org/2000/svg" viewBox="0 0 100 100">
  <title>icokt</title>
  <path d="M77.58,86.86,95.76,55a10.48,10.48,0,0,0-.06-10.49L77.23,12.9a10.48,10.48,0,0,0-9.11-5.2l-36.64.17a10.48,10.48,0,0,0-9.06,5.29L4.24,45a10.48,10.48,0,0,0,0,10.49L22.75,87.1a10.48,10.48,0,0,0,9.11,5.2l36.64-.17A10.47,10.47,0,0,0,77.58,86.86Z" style="fill: #69ca19"/>
  <path d="M20.18,32.41c0-.26,0-.39.4-.39,1.17,0,4.84-.13,8.5-.13,11,0,16.36,7.07,16.36,17.41,0,14.39-9.42,18.81-16.75,18.81-2.75,0-6.8,0-8.24-.13-.27,0-.27-.13-.27-.39Zm5.89,30.37c.92,0,1.7.13,2.75.13,6,0,10.47-4.32,10.64-13.48,0-8.9-4.59-12.44-10.34-12.44a21.53,21.53,0,0,0-3,.14Zm41.49,5.1c-.39,0-.52-.13-.52-.52-1.57-9-3-15.45-3.54-19.76h0c-.65,4.09-2,10.63-4.18,19.89-.14.26-.27.39-.53.39H53.56c-.4,0-.53,0-.66-.39L47.18,41.71c0-.27,0-.4.39-.4H52.8c.27,0,.4.13.4.26,2.09,11.65,2.88,17.67,3.27,20h.26c.36-2.75,1.51-8.64,3.89-19.89.14-.27.14-.4.4-.4h5.49c.27,0,.27.13.4.4,2,10.63,3.27,17.27,3.53,20h.13c.52-3.4,1.18-8.11,3.53-20.16a.35.35,0,0,1,.29-.39H79.5c.26,0,.4.13.26.39L73.32,67.36c0,.26-.13.39-.52.39Z" style="fill: #ecebe9"/>
</svg>
