<svg id="Layer_1" data-name="Layer 1" xmlns="http://www.w3.org/2000/svg" width="110" height="110" viewBox="0 0 110 110">
  <title>icon</title>
  <g>
    <path d="M97.86,49.16,81.49,20.8A11.75,11.75,0,0,0,71.37,15H38.63A11.73,11.73,0,0,0,28.52,20.8L12.14,49.16a11.71,11.71,0,0,0,0,11.68L29.93,91.63A6.78,6.78,0,0,0,35.82,95H71.37A11.71,11.71,0,0,0,81.49,89.2L97.86,60.84A11.71,11.71,0,0,0,97.86,49.16Zm-4,9.39L77.51,86.9a7.1,7.1,0,0,1-6.14,3.54H38.63A7.08,7.08,0,0,1,32.5,86.9L16.69,59.53a11.37,11.37,0,0,1-1.47-4,1.66,1.66,0,0,1,3-1.13L33.49,79a8.4,8.4,0,0,0,15.42-1.67,8.47,8.47,0,0,0-.71-6.42l-2.59-4.56a3.75,3.75,0,0,1-.32-2.88,3.8,3.8,0,0,1,1.82-2.26,3.81,3.81,0,0,1,5.14,1.49L54.8,67.5h0l.52,1A8.39,8.39,0,0,0,70.06,60.4l-4.48-8.17a2.08,2.08,0,0,1,1.16-2.95A8,8,0,0,0,68,48.71a8.31,8.31,0,0,0,4-5,8.45,8.45,0,0,0-.73-6.44L64.38,25.33a3.84,3.84,0,0,1,3.31-5.77h3.68a7.12,7.12,0,0,1,6.14,3.54L93.88,51.46a7.15,7.15,0,0,1,0,7.09Z" style="fill: #ecebe9"/>
    <path d="M77,47.13A9,9,0,0,0,78.8,63.61a9.18,9.18,0,0,0,2.54.37,9.06,9.06,0,0,0,4.3-1.11,8.92,8.92,0,0,0,4.29-5.35A8.8,8.8,0,0,0,90.3,55,9,9,0,0,0,77,47.13Z" style="fill: #ecebe9"/>
  </g>
</svg>
