<svg xmlns="http://www.w3.org/2000/svg" viewBox="0 0 110 110">
<rect style="fill:none;" width="110" height="110"/>
<path style="fill:#2D323B;stroke:#2D323B;stroke-width:3.0897;stroke-miterlimit:10;" d="M82.58,91.86l18.18-31.82
	c1.86-3.25,1.84-7.25-0.05-10.49L82.24,17.9c-1.89-3.24-5.36-5.22-9.11-5.2l-36.64,0.17c-3.75,0.02-7.2,2.03-9.06,5.29L9.25,49.96
	c-1.86,3.25-1.84,7.25,0.05,10.49L27.76,92.1c1.89,3.24,5.36,5.22,9.11,5.2l36.64-0.17C77.26,97.13,80.72,95.11,82.58,91.86z"/>
<g>
	<path style="fill:#ECEBE9;" d="M53.02,40.5c1.34,0,2.61,0,3.96,0c0.1-0.36,0.19-0.73,0.3-1.11c1.24-4.1,3.9-6.85,7.92-8.3
		c0.83-0.3,1.48-0.05,1.69,0.61c0.23,0.68-0.09,1.24-0.95,1.54c-2.84,1-4.87,2.86-6.07,5.61c-0.02,0.05-0.05,0.1-0.07,0.16
		c-0.78,1.96-0.76,1.93,0.98,3.07c2.66,1.73,4.13,4.11,3.76,7.39c-0.07,0.67,0.26,0.8,0.76,0.98c3.47,1.24,6.65,2.96,9.13,5.75
		c0.45,0.51,0.85,1.07,1.19,1.66c1.28,2.27,1.06,4.51-0.62,6.49c-2.17,2.56-4.89,3.73-8.26,3.11c-0.55-0.1-0.74,0.06-0.89,0.57
		c-1.21,4.2-4.02,6.76-8.21,7.83c-0.65,0.17-1.05,0.43-1.27,1.05c-0.19,0.53-0.44,1.05-0.71,1.55c-0.39,0.73-0.94,0.75-1.32,0.03
		c-0.32-0.6-0.53-1.26-0.88-1.85c-0.18-0.3-0.52-0.61-0.84-0.69c-4.34-1.07-7.24-3.65-8.5-7.98c-0.14-0.5-0.34-0.61-0.84-0.52
		c-3.51,0.62-6.31-0.62-8.48-3.37c-1.42-1.8-1.62-3.77-0.64-5.84c0.78-1.63,2.02-2.88,3.41-3.98c2.16-1.71,4.58-2.96,7.18-3.85
		c0.41-0.14,0.78-0.23,0.71-0.85c-0.41-3.66,1.32-6.18,4.41-7.84c0.81-0.44,0.93-0.85,0.69-1.66c-0.97-3.2-2.98-5.44-6.09-6.68
		c-0.16-0.06-0.32-0.11-0.48-0.18c-0.81-0.34-1.13-0.93-0.86-1.59c0.26-0.62,0.87-0.84,1.65-0.55c4.14,1.51,6.85,4.35,8.01,8.62
		C52.86,39.96,52.94,40.2,53.02,40.5z M51.69,54.15c-0.02-2.29-0.37-2.61-2.66-2.39c-0.45,0.04-0.91,0.1-1.35,0.2
		c-3.35,0.76-6.42,2.15-9.03,4.4c-0.97,0.84-1.74,1.93-2.46,3c-0.53,0.79-0.49,1.73-0.06,2.61c1.11,2.27,4,3.74,6.48,3.3
		C47.65,64.39,51.73,59.39,51.69,54.15z M60.7,51.73c-2.02-0.01-2.22,0.18-2.38,1.77c-0.48,4.86,3.16,10.04,8.1,11.56
		c2.41,0.74,4.49,0.15,6.27-1.56c1.85-1.77,2.04-3.48,0.33-5.38c-1.14-1.27-2.49-2.43-3.92-3.35C66.43,53.04,63.49,51.9,60.7,51.73z
		 M46.94,68.8c0.87,2.89,4.6,5.18,8.21,5.13c3.54-0.04,7.21-2.45,7.99-5.35C57.77,70.39,52.41,70.52,46.94,68.8z M59.55,63.35
		c-0.26-0.36-0.43-0.55-0.55-0.77c-0.79-1.49-1.7-2.94-2.32-4.51c-0.35-0.9-0.72-1.32-1.66-1.2c-0.22,0.03-0.45,0.02-0.68,0.02
		c-0.5,0-0.69,0.27-0.88,0.73c-0.61,1.46-1.28,2.89-1.99,4.3c-0.26,0.52-0.69,0.95-1.14,1.54C53.47,64.18,56.43,64.16,59.55,63.35z"
		/>
</g>
</svg>
