<svg xmlns="http://www.w3.org/2000/svg" viewBox="0 0 110 110">
<rect style="fill:none;" width="110" height="110"/>
<path style="fill:#2D323B;stroke:#2D323B;stroke-width:3.0897;stroke-miterlimit:10;" d="M82.58,91.86l18.18-31.82
	c1.86-3.25,1.84-7.25-0.05-10.49L82.24,17.9c-1.89-3.24-5.36-5.22-9.11-5.2l-36.64,0.17c-3.75,0.02-7.2,2.03-9.06,5.29L9.25,49.96
	c-1.86,3.25-1.84,7.25,0.05,10.49L27.76,92.1c1.89,3.24,5.36,5.22,9.11,5.2l36.64-0.17C77.26,97.13,80.72,95.11,82.58,91.86z"/>
<g>
	<g>
		<path style="fill:#ECEBE9;" d="M65.39,63.02c-1.06,2.39-1.85,4.87-1.6,7.57c0.02,0.21-0.4,0.58-0.68,0.69
			c-2.26,0.89-4.61,1.6-6.79,2.65c-2.13,1.02-4.11,2.37-6.15,3.57c-0.15,0.09-0.29,0.18-0.41,0.27c-0.66-0.84-1.24-1.7-1.95-2.44
			c-1.39-1.44-3.08-1.88-5.08-1.59c-1.42,0.21-2.88,0.1-4.33,0.12c-0.58,0.01-0.65-0.28-0.61-0.85c0.07-0.96-0.08-1.93-0.09-2.9
			c-0.01-0.46-0.04-0.96,0.12-1.38c0.49-1.28,0.17-2.24-1.03-2.93c-0.25-0.14-0.55-0.41-0.6-0.66c-0.32-1.62-0.99-2.92-2.98-3.27
			c0.34-0.66,0.62-1.13,0.83-1.62c0.68-1.59,1.44-3.16,1.94-4.8c0.24-0.8,0.19-1.84-0.1-2.64c-1.22-3.31-0.79-6.43,1-9.34
			c3.93-6.37,9.75-9.07,17.15-8.53c0.63,0.05,1.26,0.15,1.88,0.3v-2.3c-2.83-0.57-5.69-0.5-8.51,0.21
			c-4.94,1.24-8.94,3.91-11.81,8.18c-2.27,3.38-3.36,7.06-2.13,11.05c0.57,1.86,0.35,3.47-0.42,5.11c-0.53,1.12-1.24,2.17-1.7,3.31
			c-0.62,1.54-0.02,2.87,1.43,3.25c0.88,0.23,1.21,0.76,1.2,1.56c-0.02,1.2,0.34,2.06,2.01,2.17c-1.27,1-0.98,1.88-0.49,2.92
			c0.28,0.61,0.19,1.47,0.05,2.18c-0.28,1.46,0.19,2.44,1.61,2.92c1.95,0.66,3.95,0.48,5.92,0.15c1.11-0.19,2.06,0.01,2.93,0.71
			c1.17,0.93,1.71,2.22,2.21,3.57c0.38,1.04,1.33,1.25,2.01,0.42c1.24-1.52,2.84-2.56,4.53-3.47c3.28-1.78,6.76-3.05,10.3-4.16
			c1.13-0.35,1.34-0.67,1.16-1.84c-0.07-0.46-0.13-0.92-0.14-1.38c-0.06-2.98,1.14-5.59,2.49-8.14c0.3-0.57,0.57-1.19,0.85-1.78
			h-2.39C66.42,60.9,65.87,61.94,65.39,63.02z"/>
	</g>
	<g>
		<g>
			<path style="fill:#ECEBE9;" d="M73.03,53.52H59.32c-2.83,0-5.13-2.3-5.13-5.13V34.68c0-2.83,2.3-5.13,5.13-5.13h13.71
				c2.83,0,5.13,2.3,5.13,5.13v13.71C78.16,51.22,75.86,53.52,73.03,53.52z M59.32,31.55c-1.73,0-3.13,1.4-3.13,3.13v13.71
				c0,1.73,1.4,3.13,3.13,3.13h13.71c1.73,0,3.13-1.4,3.13-3.13V34.68c0-1.73-1.4-3.13-3.13-3.13H59.32z"/>
		</g>
		<g>
			<g>
				<path style="fill:#ECEBE9;" d="M64.55,38.57h-3.8c-0.09,0-0.16-0.03-0.22-0.09s-0.09-0.14-0.09-0.22v-0.82
					c0-0.08,0.03-0.16,0.09-0.22s0.13-0.09,0.22-0.09h5.05c0.08,0,0.16,0.03,0.22,0.09s0.09,0.13,0.09,0.22v4.9
					c0,1-0.28,1.75-0.83,2.25c-0.56,0.51-1.35,0.76-2.39,0.76c-0.55,0-1.02-0.07-1.42-0.2c-0.4-0.13-0.73-0.32-0.98-0.55
					c-0.26-0.23-0.45-0.5-0.58-0.81s-0.21-0.64-0.23-1c-0.01-0.09,0.02-0.17,0.09-0.23s0.14-0.09,0.23-0.09h0.94
					c0.06,0,0.12,0.02,0.19,0.06s0.11,0.09,0.12,0.16c0.03,0.15,0.08,0.31,0.16,0.45c0.08,0.15,0.18,0.28,0.31,0.39
					s0.29,0.2,0.49,0.27c0.19,0.07,0.42,0.1,0.69,0.1c0.53,0,0.94-0.14,1.23-0.42s0.43-0.68,0.43-1.22L64.55,38.57L64.55,38.57z"/>
			</g>
			<g>
				<path style="fill:#ECEBE9;" d="M71.03,43.5c0-0.08-0.03-0.15-0.08-0.21c-0.05-0.05-0.15-0.1-0.28-0.15s-0.31-0.09-0.54-0.14
					c-0.22-0.05-0.51-0.11-0.86-0.19c-0.34-0.08-0.62-0.17-0.85-0.29s-0.4-0.25-0.54-0.41c-0.13-0.15-0.23-0.33-0.28-0.53
					c-0.05-0.2-0.08-0.41-0.08-0.64s0.05-0.46,0.16-0.68s0.26-0.42,0.47-0.6c0.2-0.17,0.45-0.31,0.75-0.42
					c0.29-0.11,0.63-0.16,1.01-0.16s0.72,0.04,1.01,0.13c0.3,0.09,0.55,0.2,0.76,0.34s0.37,0.3,0.49,0.48
					c0.12,0.18,0.18,0.36,0.2,0.55c0.01,0.08-0.02,0.16-0.09,0.22s-0.14,0.09-0.23,0.09h-0.89c-0.12,0-0.2-0.02-0.26-0.06
					s-0.12-0.09-0.19-0.15c-0.07-0.05-0.16-0.1-0.28-0.14c-0.12-0.04-0.29-0.06-0.52-0.06s-0.44,0.04-0.61,0.1
					c-0.18,0.07-0.27,0.19-0.27,0.37c0,0.08,0.02,0.16,0.06,0.21c0.04,0.06,0.12,0.11,0.24,0.16c0.12,0.05,0.29,0.09,0.5,0.14
					s0.49,0.11,0.83,0.18c0.69,0.15,1.17,0.38,1.45,0.69s0.42,0.7,0.42,1.16c0,0.23-0.06,0.46-0.17,0.68
					c-0.12,0.22-0.28,0.42-0.5,0.59s-0.49,0.31-0.81,0.42s-0.68,0.16-1.08,0.16c-0.41,0-0.77-0.05-1.08-0.14
					c-0.31-0.1-0.58-0.22-0.79-0.38c-0.22-0.15-0.38-0.33-0.5-0.52s-0.18-0.38-0.19-0.57c-0.01-0.08,0.02-0.16,0.09-0.22
					s0.14-0.09,0.23-0.09h0.89c0.12,0,0.2,0.03,0.26,0.08c0.06,0.05,0.12,0.12,0.2,0.19c0.07,0.07,0.17,0.13,0.31,0.19
					c0.13,0.05,0.33,0.08,0.59,0.08c0.12,0,0.24-0.01,0.36-0.02s0.24-0.04,0.34-0.08s0.19-0.08,0.26-0.14S71.03,43.59,71.03,43.5z"
					/>
			</g>
		</g>
		<g>
			<path style="fill:#ECEBE9;" d="M59.48,35.04h-1.02c-0.35,0-0.63-0.28-0.63-0.63v-1.02c0-0.35,0.28-0.63,0.63-0.63h1.02
				c0.35,0,0.63,0.28,0.63,0.63v1.02C60.12,34.76,59.83,35.04,59.48,35.04z"/>
		</g>
		<g>
			<path style="fill:#ECEBE9;" d="M62.12,35.04H61.1c-0.35,0-0.63-0.28-0.63-0.63v-1.02c0-0.35,0.28-0.63,0.63-0.63h1.02
				c0.35,0,0.63,0.28,0.63,0.63v1.02C62.76,34.76,62.47,35.04,62.12,35.04z"/>
		</g>
		<g>
			<path style="fill:#ECEBE9;" d="M70.72,50.04H65.7c-0.35,0-0.63-0.28-0.63-0.63v-1.02c0-0.35,0.28-0.63,0.63-0.63h5.02
				c0.35,0,0.63,0.28,0.63,0.63v1.02C71.35,49.76,71.07,50.04,70.72,50.04z"/>
		</g>
	</g>
	<g>
		<g>
			<path style="fill:#ECEBE9;" d="M69.61,60.44H55.9c-2.83,0-5.13-2.3-5.13-5.13V41.6c0-2.83,2.3-5.13,5.13-5.13v2
				c-1.73,0-3.13,1.4-3.13,3.13v13.71c0,1.73,1.4,3.13,3.13,3.13h13.71c1.73,0,3.13-1.4,3.13-3.13v-2.86h2v2.86
				C74.74,58.14,72.44,60.44,69.61,60.44z"/>
		</g>
		<g>
			<path style="fill:#ECEBE9;" d="M67.3,56.97h-5.02c-0.35,0-0.63-0.28-0.63-0.63v-1.02c0-0.35,0.28-0.63,0.63-0.63h5.02
				c0.35,0,0.63,0.28,0.63,0.63v1.02C67.94,56.68,67.65,56.97,67.3,56.97z"/>
		</g>
	</g>
	<path style="fill:#ECEBE9;" d="M51.54,52.69c-0.01-0.14-0.02-0.27-0.02-0.42V41.91c0-2.01,0.98-3.4,2.32-4.15
		c-0.02-0.01-0.04-0.01-0.06-0.02c-0.98-0.5-1.99-0.91-2.94-0.89c-1.69-0.01-2.96,0.58-4.13,1.5c-0.2,0.16-0.49,0.28-0.74,0.3
		c-2.09,0.17-3.67,1.1-4.59,3.04c-0.09,0.19-0.26,0.4-0.44,0.5c-1.96,1.08-2.88,3.09-2.24,5.55c0.07,0.29,0.08,0.64-0.02,0.92
		c-0.71,1.89-0.3,3.54,0.99,5.02c1.73,1.99,3.96,2.36,6.42,1.94c0.41-0.07,0.75-0.1,1.14,0.12c1.37,0.77,2.83,0.98,4.37,0.65
		c-0.24-0.58-0.38-1.2-0.41-1.85C51.15,53.89,51.29,53.27,51.54,52.69z"/>
</g>
</svg>
