<svg xmlns="http://www.w3.org/2000/svg" viewBox="0 0 110 110">
  <rect y="0" style="fill:none;" width="110" height="110"/>
  <path
    style="fill:none;stroke:#2D323B;stroke-width:3.0897;stroke-miterlimit:10;"
    d="M82.58,91.86l18.18-31.82
  c1.86-3.25,1.84-7.25-0.05-10.49L82.24,17.9c-1.89-3.24-5.36-5.22-9.11-5.2l-36.64,0.17c-3.75,0.02-7.2,2.03-9.06,5.29L9.25,49.96
  c-1.86,3.25-1.84,7.25,0.05,10.49L27.76,92.1c1.89,3.24,5.36,5.22,9.11,5.2l36.64-0.17C77.26,97.13,80.72,95.11,82.58,91.86z"/>
<g>
  <path
    style="fill:#2D323B;"
    d="M77.53,53.16c-1.43-0.55-1.5-1.33-1.55-3.22l0-0.11c-0.01-0.23-0.02-0.45-0.04-0.68
c0.07-0.76,0.09-1.51,0.06-2.24c0.01,0.02,0.03,0.04,0.04,0.07c0.86-4.19,2.07-8.3,3.62-12.29c-2.16,0.24-4.34,0.36-6.51,0.35
        c1.46-1.72,2.31-3.95,2.36-6.2c-3.27,0.49-6.55,0.98-9.82,1.47c0.83-1.93,1.35-4,1.52-6.1c-2.4,0.17-4.81,0.34-7.14,0.95
        c-2.33,0.61-4.59,1.68-6.24,3.42c0.1-2.46,0.07-4.93-0.09-7.39c-3.85,2.1-6.8,5.81-7.98,10.04c-0.76-2.1-1.4-4.25-1.92-6.42
        c-1.1,2.15-2.19,4.29-3.29,6.44c-0.56,1.09-1.12,2.36-0.65,3.49c-1.54-1.1-3.09-2.2-4.63-3.3c0.32,3.7,1.34,7.51,1.23,11.22
        l-0.08,2.45c0,0,0,0,0,0c-0.06,1.37,0.01,2.77-0.07,4.15h0c-0.01,0.19-0.02,0.38-0.03,0.57l0,0.11
        c-0.05,1.89-0.13,2.68-1.55,3.22c-1.16,0.44-1.92,1.83-2.09,3.81c-0.16,1.9,0.25,4.49,1.97,5.52c1.46,0.88,1.74,2.05,2.1,3.54
        l0.12,0.51c1.92,7.72,6.61,13.18,14.33,16.71c0.06,0.04,0.12,0.08,0.18,0.11c1.09,0.52,2.17,1.01,3.32,1.27
        c0.47,0.13,0.95,0.19,1.41,0.18c0.02,0,0.02,0,0.03,0c0.01,0,0.01,0,0.03,0c0.49,0.01,0.99-0.06,1.45-0.18
        c1.15-0.26,2.23-0.75,3.32-1.27c0.06-0.03,0.12-0.07,0.18-0.11c7.72-3.52,12.41-8.99,14.33-16.71l0.12-0.51
        c0.35-1.49,0.63-2.66,2.1-3.54c1.72-1.03,2.14-3.62,1.97-5.52C79.45,54.99,78.69,53.6,77.53,53.16z M58.84,74.29h-0.29h-4.82
        h-0.29c-0.61,0-1.1-0.5-1.1-1.1c0-0.91,0.63-1.68,1.48-1.9c0-0.02,0-0.05,0-0.07h0.48h3.67h0.48c0,0.02,0,0.05,0,0.07
        c0.85,0.22,1.48,0.98,1.48,1.9C59.94,73.8,59.45,74.29,58.84,74.29z M76.47,60.51c-1.13,0.67-1.81,1.48-2.26,2.33
        c-0.19,0.35-0.46,0.65-0.77,0.9c-0.18,0.14-0.32,0.34-0.38,0.58c-0.88,3.69-3.39,5.75-7.35,6.61c-0.16,0.01-3.78,0.11-5.54-1.36
        c-1.8-1.51-4.03-0.93-4.03-0.93s-2.23-0.58-4.03,0.93c-1.73,1.45-5.2,1.26-5.46,1.24c-3.76-0.86-5.96-2.86-6.9-6.12
        c-0.13-0.44-0.43-0.78-0.81-0.98c-0.36-0.19-0.66-0.5-0.85-0.86c-0.45-0.85-1.14-1.66-2.27-2.33c-0.47-0.28-0.94-1.43-0.88-3
        c0.05-1.44,0.5-2.13,0.64-2.2c2.92-1.12,2.98-3.44,3.03-5.31l0-0.11c0.01-0.23,0.02-0.47,0.03-0.71
        c0.32-0.12,0.57-0.39,0.66-0.74c0.92-3.89,3.67-5.97,8-6.75c6.02-1.07,11.93-1.04,17.95,0.15c4.04,0.8,6.38,2.83,7.36,6.22
        c0.15,0.52,0.55,0.9,1.04,1.08c0.01,0.25,0.03,0.5,0.03,0.74l0,0.11c0.05,1.87,0.11,4.19,3.03,5.31c0.15,0.08,0.6,0.77,0.65,2.2
        C77.41,59.09,76.94,60.23,76.47,60.51z"/>

  <path
    style="fill:#2D323B;"
    d="M57.88,65.24c-0.5,0.36-1.1,0.55-1.72,0.55c-0.63,0-1.24-0.2-1.75-0.57
          c-0.26-0.19-0.62-0.13-0.8,0.12c-0.19,0.26-0.13,0.62,0.12,0.8c0.71,0.52,1.55,0.79,2.43,0.79c0.86,0,1.69-0.26,2.38-0.76
          c0.26-0.18,0.32-0.54,0.13-0.8C58.5,65.12,58.14,65.06,57.88,65.24z"/>

  <circle style="fill:#2D323B;" cx="48.38" cy="56.38" r="3.22"/>

  <circle style="fill:#2D323B;" cx="63.91" cy="56.38" r="3.22"/>
</g>
</svg>
