<svg id="Layer_1" data-name="Layer 1" xmlns="http://www.w3.org/2000/svg" viewBox="0 0 110 110"><defs><style>.cls-1{fill:#e84359;}.cls-2{fill:none;stroke:#ecebe9;stroke-linecap:round;stroke-miterlimit:10;stroke-width:7.07px;}</style></defs><title>icon</title><path class="cls-1" d="M72.27,15.21H37.73a9.89,9.89,0,0,0-8.56,4.94L11.91,50.06a9.86,9.86,0,0,0,0,9.88L29.17,89.85a9.89,9.89,0,0,0,8.56,4.94H72.27a9.89,9.89,0,0,0,8.56-4.94L98.09,59.94a9.86,9.86,0,0,0,0-9.88L80.83,20.15A9.89,9.89,0,0,0,72.27,15.21Z"/><line class="cls-2" x1="68.05" y1="41.95" x2="41.95" y2="68.05"/><line class="cls-2" x1="68.05" y1="68.05" x2="41.95" y2="41.95"/></svg>