<svg xmlns="http://www.w3.org/2000/svg" viewBox="0 0 110 110">
<rect y="0" style="fill:none;" width="110" height="110"/>
  <path
    style="fill:none;stroke:#2D323B;stroke-width:3.0897;stroke-miterlimit:10;"
    d="M82.58,91.86l18.18-31.82
  c1.86-3.25,1.84-7.25-0.05-10.49L82.24,17.9c-1.89-3.24-5.36-5.22-9.11-5.2l-36.64,0.17c-3.75,0.02-7.2,2.03-9.06,5.29L9.25,49.96
  c-1.86,3.25-1.84,7.25,0.05,10.49L27.76,92.1c1.89,3.24,5.36,5.22,9.11,5.2l36.64-0.17C77.26,97.13,80.72,95.11,82.58,91.86z"/>
<g >
	<path style="fill:#2D323B;" d="M78.74,46.63c0-4.53-3.7-8.23-8.23-8.23H39.49c-4.53,0-8.23,3.7-8.23,8.23v4.94h0.02v15.47
		c0,5.04,4.08,9.12,9.12,9.12H69.6c5.04,0,9.12-4.08,9.12-9.12V51.58h0.02V46.63z M76.22,67.05c0,3.65-2.96,6.61-6.61,6.61H40.4
		c-3.65,0-6.61-2.96-6.61-6.61V53c0-0.78,0.63-1.42,1.42-1.42h39.6c0.78,0,1.42,0.63,1.42,1.42V67.05z"/>
	<path style="fill:#2D323B;" d="M55,55.55L55,55.55c-1.48,0-2.68-1.2-2.68-2.68v-2.66c0-1.48,1.2-2.68,2.68-2.68h0
		c1.48,0,2.68,1.2,2.68,2.68v2.66C57.68,54.35,56.48,55.55,55,55.55z"/>
	<path style="fill:none;stroke:#2D323B;stroke-width:2.547;stroke-miterlimit:10;" d="M59.21,33.83h-9.53
		c-2.19,0-3.99,1.8-3.99,3.99v0.63c0,2.19,1.8,3.99,3.99,3.99h9.53c2.19,0,3.99-1.8,3.99-3.99v-0.63
		C63.2,35.62,61.41,33.83,59.21,33.83z"/>
</g>
</svg>
