<svg xmlns="http://www.w3.org/2000/svg" viewBox="0 0 110 110">
<rect y="0" style="fill:none;" width="110" height="110"/>
  <path
    style="fill:none;stroke:#2D323B;stroke-width:3.0897;stroke-miterlimit:10;"
    d="M82.58,91.86l18.18-31.82
  c1.86-3.25,1.84-7.25-0.05-10.49L82.24,17.9c-1.89-3.24-5.36-5.22-9.11-5.2l-36.64,0.17c-3.75,0.02-7.2,2.03-9.06,5.29L9.25,49.96
  c-1.86,3.25-1.84,7.25,0.05,10.49L27.76,92.1c1.89,3.24,5.36,5.22,9.11,5.2l36.64-0.17C77.26,97.13,80.72,95.11,82.58,91.86z"/>
  <g>
    <path
      style="fill:#2D323B;"
      d="M30.99,54.93c1.53,0.74,2.3,2.41,2.3,5v4.12c0,2.39,0.45,4.21,1.35,5.47
  	c0.9,1.25,2.44,1.88,4.63,1.88v3.05c-6.29,0-9.43-3.45-9.43-10.36v-4.07c0-1.27-0.13-2.17-0.38-2.7s-0.66-0.8-1.22-0.8h-0.75v-3.37
  	h0.75c0.56,0,0.97-0.26,1.22-0.78c0.25-0.52,0.38-1.42,0.38-2.72v-4.03c0-4.96,1.68-8.16,5.05-9.61c1.18-0.53,2.64-0.8,4.38-0.8
  	v3.05c-2.19,0-3.73,0.63-4.63,1.88c-0.9,1.25-1.35,3.09-1.35,5.51v4.07c0,2.54-0.77,4.21-2.3,5V54.93z"/>
    <path
      style="fill:#2D323B;"
      d="M79.87,54.75c-1.54-0.8-2.3-2.46-2.3-5v-4.07c0-2.42-0.45-4.26-1.35-5.51
  	c-0.9-1.25-2.44-1.88-4.63-1.88v-3.05c6.29,0,9.43,3.47,9.43,10.41v4.03c0,1.3,0.12,2.21,0.38,2.72c0.25,0.52,0.66,0.78,1.22,0.78
  	h0.75v3.37h-0.75c-0.56,0-0.97,0.27-1.22,0.8c-0.25,0.53-0.38,1.43-0.38,2.7v4.07c0,4.96-1.68,8.15-5.05,9.56
  	c-1.21,0.53-2.67,0.8-4.38,0.8V71.4c2.18,0,3.73-0.63,4.63-1.88c0.9-1.25,1.35-3.08,1.35-5.47v-4.12c0-2.6,0.77-4.27,2.3-5V54.75z"/>
    <path
      style="fill:#2D323B;"
      d="M42.02,56.2c-0.32,0.28-0.56,0.51-0.82,0.72c-0.77,0.61-1.76,0.57-2.47-0.1
  	c-0.68-0.65-0.78-1.6-0.23-2.41c0.13-0.19,0.28-0.37,0.44-0.53c5.09-5.09,10.18-10.18,15.28-15.26c0.95-0.95,2.04-0.94,3,0.02
  	c5.18,5.18,10.35,10.36,15.52,15.55c0.86,0.86,0.91,2.06,0.13,2.81c-0.74,0.72-1.64,0.76-2.45,0.12c-0.26-0.21-0.5-0.44-0.82-0.73
  	c-0.19,1.37-0.37,2.66-0.54,3.96c-0.45,3.47-0.89,6.94-1.34,10.41c-0.1,0.75-0.19,1.51-0.3,2.26c-0.14,0.96-0.68,1.45-1.65,1.5
  	c-0.15,0.01-0.3,0-0.44,0c-6.35,0-12.71,0-19.06,0c-1.52,0-1.98-0.44-2.17-1.94c-0.49-3.89-1-7.77-1.5-11.66
  	C42.41,59.37,42.23,57.85,42.02,56.2z M51.41,71.44c-0.19-1.49-0.39-2.91-0.56-4.33c-0.11-0.9-0.32-1.81-0.24-2.7
  	c0.26-2.66,1.92-4.25,4.59-4.57c3.29-0.4,6.05,2.16,5.73,5.31c-0.09,0.86-0.22,1.71-0.32,2.57c-0.15,1.23-0.29,2.45-0.44,3.7
  	c1.52,0,2.96,0,4.43,0c0.65-5.04,1.28-10.04,1.94-15.03c0.07-0.5-0.06-0.81-0.41-1.15c-2.88-2.85-5.74-5.72-8.6-8.59
  	c-0.57-0.57-1.11-1.15-1.68-1.74c-0.16,0.13-0.26,0.2-0.35,0.28c-3.41,3.42-6.83,6.84-10.23,10.28c-0.16,0.16-0.25,0.48-0.22,0.71
  	c0.34,2.85,0.72,5.69,1.08,8.53c0.29,2.23,0.58,4.47,0.88,6.72C48.48,71.44,49.91,71.44,51.41,71.44z"/>

  </g>
</svg>
