<svg id="Layer_1" data-name="Layer 1" xmlns="http://www.w3.org/2000/svg" width="110" height="110" viewBox="0 0 110 110">
  <title>IamLudo logo</title>
  <g>
  	<path style="fill:#ECEBE9;" d="M99.53,74.35V35.71c0-3.95-2.11-7.6-5.53-9.58L60.53,6.81c-3.42-1.98-7.64-1.98-11.06,0L16.01,26.13
  		c-3.42,1.98-5.53,5.63-5.53,9.58v38.64c0,3.95,2.11,7.6,5.53,9.58l33.46,19.32c3.42,1.98,7.64,1.98,11.06,0l33.46-19.32
  		C97.42,81.96,99.53,78.31,99.53,74.35z"/>
  	<path style="fill:#42758C;" d="M53.01,75.33l-15.14-8.74c-1.55-0.89-2.5-2.55-2.5-4.33V45.24l-13.89-8.02
  		c-2.04-1.18-4.58,0.29-4.58,2.64V69c0,4.71,2.51,9.07,6.6,11.43l25.52,14.74c1.91,1.1,4.29-0.28,4.29-2.48V75.45
  		C53.21,75.4,53.11,75.38,53.01,75.33z"/>
  	<path style="opacity:0.1;fill:#1B1C1C;" d="M93.99,26.07L60.53,6.75c-3.42-1.98-7.64-1.98-11.06,0L16.01,26.07
  		c-1.43,0.82-2.6,1.95-3.51,3.26c0.32,0.23,0.62,0.48,0.97,0.68l35.64,20.58c3.65,2.1,8.14,2.1,11.78,0L96.53,30
  		c0.35-0.2,0.65-0.45,0.97-0.68C96.6,28.02,95.42,26.89,93.99,26.07z"/>
  	<path style="opacity:0.1;fill:#1B1C1C;" d="M49.87,89.83L27.73,77.04c-3.54-2.04-5.72-5.82-5.72-9.91V41.85
  		c0-1.67,1.47-2.8,2.98-2.61l-3.51-2.03c-2.04-1.18-4.58,0.29-4.58,2.64V69c0,4.71,2.51,9.07,6.6,11.43l25.52,14.74
  		c1.91,1.1,4.29-0.28,4.29-2.48v-3.88C52.69,90,51.16,90.57,49.87,89.83z"/>
  	<path style="fill:#42758C;" d="M89.75,37.19l-14.09,8.14v16.92c0,1.79-0.95,3.44-2.5,4.33l-15.14,8.74
  		c-0.12,0.07-0.26,0.1-0.39,0.16v17.01c0,2.35,2.54,3.82,4.58,2.64l25.24-14.57c4.08-2.36,6.6-6.71,6.6-11.43V39.67
  		C94.04,37.47,91.66,36.09,89.75,37.19z"/>
  	<path style="fill:#E84359;" d="M70.4,59.97V47.05c0-1.32-0.7-2.54-1.85-3.2l-11.18-6.46c-1.14-0.66-2.55-0.66-3.7,0l-11.18,6.46
  		c-1.14,0.66-1.85,1.88-1.85,3.2v12.92c0,1.32,0.7,2.54,1.85,3.2l11.18,6.46c1.14,0.66,2.55,0.66,3.7,0l11.18-6.46
  		C69.69,62.51,70.4,61.29,70.4,59.97z"/>
  	<g style="opacity:0.1;">
  		<path style="fill:#1B1C1C;" d="M69.15,62.71c0.15-0.14,0.28-0.28,0.41-0.44C69.43,62.42,69.29,62.57,69.15,62.71z"/>
  		<path style="fill:#1B1C1C;" d="M41.47,62.27c0.13,0.16,0.26,0.3,0.41,0.44C41.74,62.57,41.6,62.42,41.47,62.27z"/>
  		<path style="fill:#1B1C1C;" d="M68.55,43.85l-11.18-6.46c-1.14-0.66-2.55-0.66-3.7,0l-11.18,6.46c-1.14,0.66-1.85,1.88-1.85,3.2
  			v12.92c0,0.86,0.32,1.66,0.84,2.3c0.16-0.13,0.3-0.27,0.48-0.37l11.63-6.72c1.19-0.69,2.66-0.69,3.85,0l11.63,6.72
  			c0.18,0.1,0.33,0.24,0.48,0.37c0.52-0.65,0.84-1.44,0.84-2.3V47.05C70.4,45.73,69.69,44.51,68.55,43.85z"/>
  	</g>
  	<path style="opacity:0.1;fill:#1B1C1C;" d="M89.75,37.19l-3.53,2.04c1.38-0.13,2.72,0.92,2.72,2.45v25.56
  		c0,4.09-2.18,7.87-5.72,9.91L61.32,89.8c-1.39,0.8-3.04,0.17-3.69-1.13v3.82c0,2.35,2.54,3.82,4.58,2.64l25.24-14.57
  		c4.08-2.36,6.6-6.71,6.6-11.43V39.67C94.04,37.47,91.66,36.09,89.75,37.19z"/>
  	<path style="fill:#42758C;" d="M85.66,30.3L60.2,15.6c-3.2-1.85-7.13-1.85-10.33,0L24.43,30.29c-0.95,0.55-0.95,1.91,0,2.46
  		l13.39,7.73c0.02-0.01,0.03-0.03,0.06-0.04l15.14-8.74c1.55-0.89,3.46-0.89,5.01,0l14.72,8.5l12.93-7.46
  		C86.6,32.19,86.6,30.84,85.66,30.3z"/>
  	<path style="opacity:0.1;fill:#1B1C1C;" d="M85.66,30.3L60.2,15.6c-3.2-1.85-7.13-1.85-10.33,0L24.43,30.29
  		c-0.95,0.55-0.95,1.91,0,2.46l3.54,2.05c-0.07-0.47,0.1-0.97,0.57-1.24l22.07-12.74c2.77-1.6,6.19-1.6,8.96,0l22.09,12.76
  		c0.43,0.25,0.62,0.7,0.58,1.14l3.42-1.97C86.6,32.19,86.6,30.84,85.66,30.3z"/>
  </g>
</svg>
