<?xml version="1.0" encoding="utf-8"?>
<!-- Generator: Adobe Illustrator 24.0.3, SVG Export Plug-In . SVG Version: 6.00 Build 0)  -->
<svg version="1.1" id="Layer_1" xmlns="http://www.w3.org/2000/svg" xmlns:xlink="http://www.w3.org/1999/xlink" x="0px" y="0px"
	 viewBox="0 0 110 110" style="enable-background:new 0 0 110 110;" xml:space="preserve">
<rect style="fill:none;" width="110" height="110"/>
<path style="fill:none;stroke:#2D323B;stroke-width:3.0897;stroke-miterlimit:10;" d="M82.58,91.86l18.18-31.82
	c1.86-3.25,1.84-7.25-0.05-10.49L82.24,17.9c-1.89-3.24-5.36-5.22-9.11-5.2l-36.64,0.17c-3.75,0.02-7.2,2.03-9.06,5.29L9.25,49.96
	c-1.86,3.25-1.84,7.25,0.05,10.49L27.76,92.1c1.89,3.24,5.36,5.22,9.11,5.2l36.64-0.17C77.26,97.13,80.72,95.11,82.58,91.86z"/>
<g>
	<path style="fill:#2D323B;" d="M45.56,58.55c0,0.79-0.63,1.42-1.42,1.44c-0.85,0.02-1.5-0.62-1.5-1.46c0-0.81,0.6-1.42,1.41-1.44
		C44.9,57.06,45.57,57.71,45.56,58.55z"/>
	<path style="fill:#2D323B;" d="M59.26,67.55c1.29,0,2.34-1.03,2.36-2.34c0.03-1.37-1-2.44-2.35-2.45c-1.3-0.01-2.34,1.01-2.37,2.33
		C56.87,66.45,57.93,67.55,59.26,67.55z"/>
	<path style="fill:#2D323B;" d="M63.73,67.58c-0.3,0.16-0.57,0.42-0.89,0.5c-1.3,0.3-2.65,0.86-3.92,0.72
		c-0.92-0.1-1.78-0.47-2.74,0.02c-1.03-1.7-2.01-3.37-3.04-5c-0.24-0.38-0.63-0.88-1-0.91c-0.5-0.05-1.23,0.15-1.49,0.51
		c-0.25,0.35-0.21,1.14,0.03,1.57c1.07,1.92,2.26,3.79,3.43,5.71c-0.63,0.55-1.22,1.01-1.74,1.54c-0.46,0.48-0.79,0.39-1.29,0.03
		c-2.05-1.46-4.31-1.75-6.7-0.99c-1.03,0.33-1.44,1.02-1.19,1.91c0.24,0.85,0.79,1.04,1.98,0.71c1.47-0.4,2.88-0.38,4.41,0.72
		c-0.57,0.03-0.87,0.05-1.17,0.07c-2.59,0.19-5.02,0.9-7.21,2.31c-0.78,0.5-0.97,1.32-0.49,2.02c0.5,0.73,1.16,0.75,1.88,0.35
		c0.3-0.16,0.58-0.36,0.88-0.51c2.2-1.11,4.53-1.83,6.99-1.32c1.18,0.24,2.02,0.1,2.88-0.67c1.6-1.43,3.26-2.79,4.84-4.24
		c0.67-0.61,1.41-0.79,2.25-1.01c1.59-0.42,3.15-1.01,4.66-1.67c0.85-0.37,1.01-1.25,0.58-1.99C65.26,67.24,64.6,67.11,63.73,67.58z
		"/>
	<path style="fill:#2D323B;" d="M89.75,47.88c0.23-0.34,0.35-0.68,0.35-1.04c0-0.96-0.91-1.88-2.52-2.72l-0.01-0.01
		c-0.09-0.05-0.19-0.09-0.29-0.14c-0.12-0.06-0.23-0.12-0.36-0.17c-0.26-0.12-0.54-0.24-0.83-0.35c-0.13-0.05-0.27-0.1-0.41-0.15
		c-0.21-0.08-0.43-0.16-0.65-0.23c-0.15-0.05-0.29-0.1-0.44-0.15c-0.32-0.1-0.65-0.21-0.99-0.31c-0.09-0.03-0.19-0.06-0.29-0.08
		c-0.37-0.1-0.75-0.21-1.14-0.31c-0.13-0.03-0.26-0.07-0.4-0.1c-0.38-0.09-0.77-0.18-1.16-0.27c-0.08-0.02-0.17-0.04-0.25-0.06
		c-0.5-0.11-1.02-0.22-1.56-0.32c-0.06-0.01-0.13-0.02-0.19-0.04c-0.5-0.09-1-0.19-1.52-0.27c-0.08-0.01-0.16-0.03-0.23-0.04
		c-1.18-0.2-2.42-0.38-3.72-0.54c-0.06-0.01-0.12-0.01-0.18-0.02c-1.22-0.15-2.48-0.29-3.8-0.41c-0.01-0.04-0.01-0.07-0.02-0.1
		c-1.37-7.53-7.38-12.87-14.61-12.99c-0.08,0-0.17,0-0.25,0c-7.24,0-13.31,5.11-14.82,12.55c-0.05,0.24-0.09,0.47-0.13,0.69
		c-11.52,1.2-19.44,3.69-19.44,6.56c0,2.96,8.38,5.5,20.44,6.66c-4.59,7.54-9.18,15.07-13.79,22.63l2.18,3.78
		c4.6-8.74,9.22-17.48,13.83-26.22c3.87,0.31,8.06,0.48,12.45,0.48c2.91,0,5.73-0.08,8.43-0.21c0.89,1.69,1.78,3.37,2.67,5.06
		c3.88,7.34,8.99,16.6,12.88,23.93l2.22-3.85c-4.76-7.82-10.74-17.51-15.47-25.28c6.73-0.45,12.55-1.32,16.83-2.45
		c0.02-0.01,0.04-0.01,0.06-0.02c0.43-0.12,0.85-0.23,1.25-0.35c0.05-0.02,0.1-0.03,0.16-0.05c0.37-0.11,0.72-0.23,1.06-0.34
		c0.07-0.03,0.15-0.05,0.22-0.08c0.31-0.11,0.61-0.22,0.89-0.34c0.09-0.04,0.17-0.07,0.26-0.11c0.25-0.11,0.5-0.22,0.73-0.33
		c0.1-0.05,0.18-0.09,0.27-0.14c0.21-0.1,0.41-0.21,0.59-0.31c0.09-0.05,0.18-0.11,0.27-0.17c0.16-0.1,0.32-0.2,0.46-0.3
		c0.09-0.06,0.16-0.13,0.24-0.2c0.12-0.1,0.24-0.19,0.34-0.29c0.08-0.08,0.13-0.15,0.2-0.23C89.61,48.05,89.7,47.97,89.75,47.88
		L89.75,47.88z M64.31,43.94c-3.09,1.04-6.4,1.18-9.6,1.3l-0.36,0.01l-0.68-0.03c-3.2-0.12-6.23-0.23-9.08-1.19
		c-1.95-0.66-2.38-1.04-2.45-1.21c-0.14-0.31,0.09-1.46,0.32-2.61c0.02-0.07,0.04-0.14,0.05-0.22c-0.01,0-0.02,0-0.02,0
		c1.29-5.88,5.99-9.78,11.8-9.78c0.01,0,0.01,0,0.02,0c0,0,0,0,0,0c0.07,0,0.14,0,0.22,0c0.27,0,0.53,0.03,0.8,0.05
		c0.07,0.01,0.14,0.01,0.21,0.01c5.33,0.55,9.65,4.67,10.69,10.35C66.65,43.02,66.56,43.18,64.31,43.94z"/>
	<circle style="fill:#2D323B;" cx="36.17" cy="75.97" r="1.14"/>
	<circle style="fill:#2D323B;" cx="64.91" cy="78.83" r="1.71"/>
</g>
</svg>
