<?xml version="1.0" encoding="utf-8"?>
<!-- Generator: Adobe Illustrator 24.0.3, SVG Export Plug-In . SVG Version: 6.00 Build 0)  -->
<svg version="1.1" id="Layer_1" xmlns="http://www.w3.org/2000/svg" xmlns:xlink="http://www.w3.org/1999/xlink" x="0px" y="0px"
	 viewBox="0 0 122.68 122.68" style="enable-background:new 0 0 122.68 122.68;" xml:space="preserve">
<circle style="fill:#A9B1C2;" cx="61.34" cy="61.34" r="60"/>
<g>
	<path style="fill:#ECEBE9;" d="M79.63,104.38l-13.02,7.52c-2.35,1.35-5.28-0.34-5.28-3.05V93.82c0-2.71,2.93-4.4,5.28-3.05
		l13.02,7.52C81.98,99.65,81.98,103.03,79.63,104.38z"/>
	<path style="fill:#ECEBE9;" d="M43.04,18.29l13.02-7.52c2.35-1.35,5.28,0.34,5.28,3.05v15.03c0,2.71-2.93,4.4-5.28,3.05
		l-13.02-7.52C40.7,23.03,40.7,19.65,43.04,18.29z"/>
	<path style="fill:none;stroke:#ECEBE9;stroke-width:6.2217;stroke-linecap:round;stroke-miterlimit:10;" d="M83.7,94.51
		c10.64-7.19,17.64-19.36,17.64-33.17c0-22.09-17.91-40-40-40"/>
	<path style="fill:none;stroke:#ECEBE9;stroke-width:6.2217;stroke-linecap:round;stroke-miterlimit:10;" d="M39.93,27.54
		c-11.18,7.09-18.59,19.58-18.59,33.8c0,22.09,17.91,40,40,40"/>
</g>
<g>
</g>
<g>
</g>
<g>
</g>
<g>
</g>
<g>
</g>
<g>
</g>
<g>
</g>
<g>
</g>
<g>
</g>
<g>
</g>
<g>
</g>
<g>
</g>
<g>
</g>
<g>
</g>
<g>
</g>
</svg>
