<?xml version="1.0" encoding="utf-8"?>
<!-- Generator: Adobe Illustrator 24.0.3, SVG Export Plug-In . SVG Version: 6.00 Build 0)  -->
<svg version="1.1" id="Layer_1" xmlns="http://www.w3.org/2000/svg" xmlns:xlink="http://www.w3.org/1999/xlink" x="0px" y="0px"
	 viewBox="0 0 282.96 282.96" style="enable-background:new 0 0 282.96 282.96;" xml:space="preserve">
<g>
	<g>
		<path style="fill:#A9B1C2;" d="M274.9,121.93l-51.1-88.54c-6.49-11.23-18.57-18.2-31.55-18.2H90.02c-13,0-25.09,6.98-31.58,18.2
			l-51.1,88.54c-6.49,11.25-6.49,25.21,0,36.46l55.49,96.12c3.79,6.57,10.82,10.65,18.4,10.65h111.02c12.98,0,25.06-7,31.55-18.23
			l51.13-88.54C281.42,147.13,281.42,133.18,274.9,121.93z M262.47,151.21l-51.1,88.54c-3.93,6.8-11.25,11.05-19.12,11.05H90.02
			c-7.89,0-15.22-4.25-19.15-11.05l-49.35-85.47c-2.33-4.05-3.99-8.21-4.59-12.4c-0.8-5.54,6.55-8.24,9.5-3.47L74,215.17
			c3.36,6.14,8.9,10.59,15.62,12.57c6.63,1.95,13.87,1.15,19.92-2.18c6.14-3.33,10.59-8.9,12.55-15.62
			c1.95-6.72,1.21-13.81-2.21-20.01l-8.1-14.24c-1.52-2.78-1.87-5.97-0.98-9.01c0.89-3.01,2.9-5.54,5.68-7.06
			c2.76-1.52,5.97-1.87,9.01-0.98c3.01,0.89,5.54,2.9,7.03,5.66l7.95,14.9l0.06-0.03l1.61,2.99c3.36,6.14,8.93,10.59,15.62,12.57
			c6.72,1.95,13.81,1.21,19.92-2.18c6.14-3.36,10.62-8.9,12.57-15.62c1.98-6.69,1.21-13.78-2.15-19.92l-13.98-25.52
			c-1.92-3.53-0.17-7.81,3.62-9.16c1.38-0.49,2.7-1.09,3.96-1.81c6.14-3.36,10.62-8.9,12.57-15.62c1.95-6.72,1.18-13.81-2.24-20.07
			l-21.68-37.32c-4.65-7.98,1.12-17.97,10.36-17.97h11.51c7.87,0,15.19,4.22,19.12,11.02l51.1,88.54c1.98,3.42,2.96,7.23,2.96,11.05
			C265.43,144,264.45,147.79,262.47,151.21z"/>
		<path style="fill:#A9B1C2;" d="M209.85,115.61c-6.55,3.59-11.31,9.5-13.44,16.68c-2.1,7.18-1.26,14.76,2.33,21.3
			c3.59,6.57,9.53,11.34,16.71,13.44c2.58,0.75,5.23,1.15,7.89,1.15c4.65,0,9.27-1.21,13.41-3.44c6.55-3.59,11.34-9.53,13.44-16.71
			c0.75-2.58,1.12-5.25,1.12-7.87c0-4.65-1.15-9.24-3.45-13.44C240.45,113.17,223.4,108.17,209.85,115.61z"/>
	</g>
</g>
</svg>
