<?xml version="1.0" encoding="utf-8"?>
<!-- Generator: Adobe Illustrator 24.0.3, SVG Export Plug-In . SVG Version: 6.00 Build 0)  -->
<svg version="1.1" id="Layer_1" xmlns="http://www.w3.org/2000/svg" xmlns:xlink="http://www.w3.org/1999/xlink" x="0px" y="0px"
	 viewBox="0 0 283 283" style="enable-background:new 0 0 283 283;" xml:space="preserve">
<style type="text/css">
	.st0{opacity:0.51;}
	.st1{fill:#A9B1C2;}
	.st2{filter:url(#Adobe_OpacityMaskFilter);}
	.st3{opacity:0.1;mask:url(#SVGID_1_);}
	.st4{fill:#141414;}
</style>
<g class="st0">
	<g>
		<g>
			<path class="st1" d="M275.3,123.3l-51.1-88.5c-6.5-11.2-18.6-18.2-31.6-18.2H90.4c-13,0-25.1,7-31.6,18.2L7.7,123.3
				c-6.5,11.3-6.5,25.2,0,36.5l55.5,96.1c3.8,6.6,10.8,10.7,18.4,10.7h111c13,0,25.1-7,31.6-18.2l51.1-88.5
				C281.8,148.5,281.8,134.5,275.3,123.3z M262.8,152.5l-51.1,88.5c-3.9,6.8-11.3,11.1-19.1,11.1H90.4c-7.9,0-15.2-4.2-19.1-11.1
				l-49.4-85.5c-2.3-4-4-8.2-4.6-12.4c-0.8-5.5,6.5-8.2,9.5-3.5l47.6,76.8c3.4,6.1,8.9,10.6,15.6,12.6c6.6,2,13.9,1.1,19.9-2.2
				c6.1-3.3,10.6-8.9,12.5-15.6c2-6.7,1.2-13.8-2.2-20l-8.1-14.2c-1.5-2.8-1.9-6-1-9c0.9-3,2.9-5.5,5.7-7.1c2.8-1.5,6-1.9,9-1
				c3,0.9,5.5,2.9,7,5.7l8,14.9l0.1,0l1.6,3c3.4,6.1,8.9,10.6,15.6,12.6c6.7,2,13.8,1.2,19.9-2.2c6.1-3.4,10.6-8.9,12.6-15.6
				c2-6.7,1.2-13.8-2.2-19.9l-14-25.5c-1.9-3.5-0.2-7.8,3.6-9.2c1.4-0.5,2.7-1.1,4-1.8c6.1-3.4,10.6-8.9,12.6-15.6
				c2-6.7,1.2-13.8-2.2-20.1l-21.7-37.3c-4.7-8,1.1-18,10.4-18h11.5c7.9,0,15.2,4.2,19.1,11l51.1,88.5c2,3.4,3,7.2,3,11.1
				C265.8,145.3,264.8,149.1,262.8,152.5z"/>
			<path class="st1" d="M210.2,116.9c-6.5,3.6-11.3,9.5-13.4,16.7c-2.1,7.2-1.3,14.8,2.3,21.3c3.6,6.6,9.5,11.3,16.7,13.4
				c2.6,0.7,5.2,1.1,7.9,1.1c4.7,0,9.3-1.2,13.4-3.4c6.5-3.6,11.3-9.5,13.4-16.7c0.7-2.6,1.1-5.3,1.1-7.9c0-4.7-1.1-9.2-3.4-13.4
				C240.8,114.5,223.8,109.5,210.2,116.9z"/>
		</g>
	</g>
	<defs>
		<filter id="Adobe_OpacityMaskFilter" filterUnits="userSpaceOnUse" x="2.8" y="16.5" width="277.3" height="250">
			
				<feColorMatrix  type="matrix" values="-1 0 0 0 1  0 -1 0 0 1  0 0 -1 0 1  0 0 0 1 0" color-interpolation-filters="sRGB" result="source"/>
		</filter>
	</defs>
	<mask maskUnits="userSpaceOnUse" x="2.8" y="16.5" width="277.3" height="250" id="SVGID_1_">
		<g class="st2">
			
				<image style="overflow:visible;" width="283" height="255" xlink:href="61AFF3925625B039.jpg"  transform="matrix(1 0 0 1 0 13.96)">
			</image>
		</g>
	</mask>
	<g class="st3">
		<g>
			<path class="st4" d="M275.3,123.3l-51.1-88.5c-6.5-11.2-18.6-18.2-31.6-18.2H90.4c-13,0-25.1,7-31.6,18.2L7.7,123.3
				c-6.5,11.3-6.5,25.2,0,36.5l55.5,96.1c3.8,6.6,10.8,10.7,18.4,10.7h111c13,0,25.1-7,31.6-18.2l51.1-88.5
				C281.8,148.5,281.8,134.5,275.3,123.3z M262.8,152.5l-51.1,88.5c-3.9,6.8-11.3,11.1-19.1,11.1H90.4c-7.9,0-15.2-4.2-19.1-11.1
				l-49.4-85.5c-2.3-4-4-8.2-4.6-12.4c-0.8-5.5,6.5-8.2,9.5-3.5l47.6,76.8c3.4,6.1,8.9,10.6,15.6,12.6c6.6,2,13.9,1.1,19.9-2.2
				c6.1-3.3,10.6-8.9,12.5-15.6c2-6.7,1.2-13.8-2.2-20l-8.1-14.2c-1.5-2.8-1.9-6-1-9c0.9-3,2.9-5.5,5.7-7.1c2.8-1.5,6-1.9,9-1
				c3,0.9,5.5,2.9,7,5.7l8,14.9l0.1,0l1.6,3c3.4,6.1,8.9,10.6,15.6,12.6c6.7,2,13.8,1.2,19.9-2.2c6.1-3.4,10.6-8.9,12.6-15.6
				c2-6.7,1.2-13.8-2.2-19.9l-14-25.5c-1.9-3.5-0.2-7.8,3.6-9.2c1.4-0.5,2.7-1.1,4-1.8c6.1-3.4,10.6-8.9,12.6-15.6
				c2-6.7,1.2-13.8-2.2-20.1l-21.7-37.3c-4.7-8,1.1-18,10.4-18h11.5c7.9,0,15.2,4.2,19.1,11l51.1,88.5c2,3.4,3,7.2,3,11.1
				C265.8,145.3,264.8,149.1,262.8,152.5z"/>
			<path class="st4" d="M210.2,116.9c-6.5,3.6-11.3,9.5-13.4,16.7c-2.1,7.2-1.3,14.8,2.3,21.3c3.6,6.6,9.5,11.3,16.7,13.4
				c2.6,0.7,5.2,1.1,7.9,1.1c4.7,0,9.3-1.2,13.4-3.4c6.5-3.6,11.3-9.5,13.4-16.7c0.7-2.6,1.1-5.3,1.1-7.9c0-4.7-1.1-9.2-3.4-13.4
				C240.8,114.5,223.8,109.5,210.2,116.9z"/>
		</g>
	</g>
</g>
</svg>
