<svg id="Layer_1" data-name="Layer 1" xmlns="http://www.w3.org/2000/svg" viewBox="0 0 100 100"><title>social</title><path d="M71,7.7H29a5.94,5.94,0,0,0-5.16,3L2.87,47a6,6,0,0,0,0,6l21,36.34a5.94,5.94,0,0,0,5.16,3H71a5.94,5.94,0,0,0,5.16-3L97.13,53a6,6,0,0,0,0-6l-21-36.34A5.94,5.94,0,0,0,71,7.7Z" style="fill:#9cbdf1"/><path d="M24.55,68.48A21.88,21.88,0,0,0,40.37,63.9a11.41,11.41,0,0,1-10.14-7.55l4.41-.27.06-.29A11.12,11.12,0,0,1,27.49,50a10,10,0,0,1-1.22-4.93l4.43,1.22.2-.23C26.3,42,25,37.2,27.76,31.31c6.14,7.1,13.66,11,22.91,11.63,0-1.3-.06-2.49,0-3.68a10,10,0,0,1,3.44-6.94c3.45-3.23,7.51-3.68,11.81-2.17a13.44,13.44,0,0,1,3.29,2.18,1.38,1.38,0,0,0,1.51.29c1.75-.68,3.51-1.33,5.27-2,.18-.07.36-.12.68-.22C76,32.9,74.35,34.47,72.57,36l.1.23L78,34.78l.15.16c-.75.88-1.46,1.8-2.27,2.63s-1.68,1.48-2.47,2.27a1.76,1.76,0,0,0-.53,1.09c.06,10.29-4,18.75-11.59,25.52A28,28,0,0,1,48,72.78a32.17,32.17,0,0,1-19.37-1.93c-1.41-.6-2.73-1.39-4.1-2.09Z" style="fill:#fbfafc"/></svg>