<svg id="Layer_1" data-name="Layer 1" xmlns="http://www.w3.org/2000/svg" viewBox="0 0 100 100"><title>social</title><path d="M71,7.7H29a5.94,5.94,0,0,0-5.16,3L2.87,47a6,6,0,0,0,0,6l21,36.34a5.94,5.94,0,0,0,5.16,3H71a5.94,5.94,0,0,0,5.16-3L97.13,53a6,6,0,0,0,0-6l-21-36.34A5.94,5.94,0,0,0,71,7.7Z" style="fill:#446dae"/><path d="M42.7,52.28H34.44V42.72h8.22c0-.4,0-.72,0-1,.06-2.85,0-5.71.22-8.55A10.91,10.91,0,0,1,53.23,23c2-.15,4-.07,6,0,1,0,2.08.16,3.16.25v8.61c-1.63,0-3.23,0-4.82,0a12.61,12.61,0,0,0-2.46.27,3,3,0,0,0-2.39,3.12c-.12,2.43,0,4.87,0,7.39h9.4c-.43,3.25-.84,6.41-1.25,9.61H52.66V76.84h-10Z" style="fill:#fbfafc"/></svg>