<svg id="Layer_1" data-name="Layer 1" xmlns="http://www.w3.org/2000/svg" viewBox="0 0 100 100"><title>social</title><path d="M71,7.7H29a5.94,5.94,0,0,0-5.16,3L2.87,47a6,6,0,0,0,0,6l21,36.34a5.94,5.94,0,0,0,5.16,3H71a5.94,5.94,0,0,0,5.16-3L97.13,53a6,6,0,0,0,0-6l-21-36.34A5.94,5.94,0,0,0,71,7.7Z" style="fill:#5a92e8"/><path d="M53.21,43.51c.59-.66,1.14-1.35,1.77-2a10.74,10.74,0,0,1,8.25-2.84c6.52.24,10.79,4.69,11.52,11a35.27,35.27,0,0,1,.23,4c0,5.7,0,11.4,0,17.09,0,.72-.18,1-.93.95-2.86,0-5.72,0-8.58,0-1.22,0-1.22,0-1.22-1.18,0-5.7,0-11.4,0-17.09a7,7,0,0,0-1.74-4.91c-1.68-1.78-5.46-1.83-7.26-.15A6.25,6.25,0,0,0,53,53.1c0,5.67,0,11.34,0,17,0,.28,0,.55,0,.83,0,.54-.22.75-.74.75-3.12,0-6.23,0-9.34,0-.75,0-.66-.49-.66-1q0-10.5.06-21,0-4.71-.06-9.42c0-.65.11-.94.85-.93q4.5.06,9,0c.72,0,.92.26.9.93,0,1,0,2.09,0,3.14Z" style="fill:#fbfafc"/><path d="M25.59,55.55c0-5.11,0-10.22,0-15.33,0-.68.19-.84.84-.84q4.5.06,9,0c.72,0,1,.2,1,.94q0,15.18,0,30.34c0,.82-.28,1-1.06,1q-4.34,0-8.67,0c-.8,0-1.1-.19-1.09-1.06C25.61,65.61,25.59,60.58,25.59,55.55Z" style="fill:#fbfafc"/><path d="M25,29.4c0-3.22,2.52-5.47,6-5.57a5.66,5.66,0,0,1,6,5.65C37,32.7,34.71,35,31,35S25,32.52,25,29.4Z" style="fill:#fbfafc"/></svg>