<svg id="Layer_1" data-name="Layer 1" xmlns="http://www.w3.org/2000/svg" viewBox="0 0 100 100"><title>social</title><path d="M71,7.7H29a5.94,5.94,0,0,0-5.16,3L2.87,47a6,6,0,0,0,0,6l21,36.34a5.94,5.94,0,0,0,5.16,3H71a5.94,5.94,0,0,0,5.16-3L97.13,53a6,6,0,0,0,0-6l-21-36.34A5.94,5.94,0,0,0,71,7.7Z" style="fill:#3374d8"/><path d="M24.92,64.93V33.54c0-.88,0-.88.89-.88,5.2,0,10.41,0,15.61.07a12.7,12.7,0,0,1,5,1A5.93,5.93,0,0,1,50,37.61c.73,2.45.8,4.91-.74,7.1a14.09,14.09,0,0,1-2.31,2.18,5.24,5.24,0,0,1-.85.51l.79.31a7.36,7.36,0,0,1,5,6.61,9.16,9.16,0,0,1-1.2,6,9.49,9.49,0,0,1-5.23,3.84,15.64,15.64,0,0,1-5,.73c-5,0-9.93,0-14.89,0ZM32,59.44a3.47,3.47,0,0,0,.42,0c2.42,0,4.84,0,7.27,0a8.94,8.94,0,0,0,2.06-.26,3.68,3.68,0,0,0,2.52-1.73,4.43,4.43,0,0,0-3.53-6.8c-2.85-.16-5.71-.07-8.57-.09-.06,0-.11.05-.17.08Zm0-13.73h7c.35,0,.7,0,1.05-.05a6.53,6.53,0,0,0,.77-.14A3.79,3.79,0,0,0,43,39.78a4,4,0,0,0-3.26-1.54c-2.45-.1-4.9-.07-7.34-.1a2.33,2.33,0,0,0-.34,0Z" style="fill:#fbfafc"/><path d="M77.28,54.77H60.56A5.17,5.17,0,0,0,65,60.66a6.41,6.41,0,0,0,4.7-1,10.25,10.25,0,0,0,1.42-1.58c.14-.15.3-.38.45-.38,1.77,0,3.53,0,5.37,0-1.21,3.61-3.3,6.28-7,7.3a13.32,13.32,0,0,1-9.71-.74,10.66,10.66,0,0,1-5.85-8,13.3,13.3,0,0,1,1.86-10.36A11,11,0,0,1,64.88,41a11.39,11.39,0,0,1,6.41,1.19,10.94,10.94,0,0,1,5.36,6.58A16,16,0,0,1,77.36,54C77.35,54.23,77.31,54.46,77.28,54.77ZM60.53,50.71H70.84c0-2.73-1.65-5-5-5C62.77,45.76,60.46,47.88,60.53,50.71Z" style="fill:#fbfafc"/><path d="M59.22,38V34.9h13c0,.94,0,1.88,0,2.81,0,.1-.3.28-.46.28-.89,0-1.79,0-2.68,0H59.22Z" style="fill:#fbfafc"/></svg>