<svg xmlns="http://www.w3.org/2000/svg" viewBox="0 0 100 100"><title>social</title><path d="M71,7.7H29a5.94,5.94,0,0,0-5.16,3L2.87,47a6,6,0,0,0,0,6l21,36.34a5.94,5.94,0,0,0,5.16,3H71a5.94,5.94,0,0,0,5.16-3L97.13,53a6,6,0,0,0,0-6l-21-36.34A5.94,5.94,0,0,0,71,7.7Z" style="fill:#f2f2f2"/><path d="M80.32,34.42a34.18,34.18,0,0,1,4.05,19,33.2,33.2,0,0,1-7,18.26A33.8,33.8,0,0,1,64,82.3c-.87.39-1.76.76-2.66,1.07-1.74.59-2.8-.15-2.81-2,0-3.14,0-6.28,0-9.42a8.06,8.06,0,0,0-1.81-5.43,1.18,1.18,0,0,1-.14-.33c2.07-.55,4.14-.93,6.09-1.65a12.83,12.83,0,0,0,8.63-9.9,23.45,23.45,0,0,0,.5-7.61A11.79,11.79,0,0,0,69.35,41a2.7,2.7,0,0,1-.48-2.75,10.94,10.94,0,0,0-.67-7.17,1.25,1.25,0,0,0-1.1-.51,48.32,48.32,0,0,0-4.88,1.51,12.11,12.11,0,0,0-2.6,1.46,2.74,2.74,0,0,1-2.39.34,31,31,0,0,0-14.44,0,3,3,0,0,1-2.48-.37,18.62,18.62,0,0,0-7.16-2.94,1.24,1.24,0,0,0-1.58,1,11.26,11.26,0,0,0-.35,7,1.92,1.92,0,0,1-.3,2c-2.43,2.86-3.07,6.23-2.85,9.87a18.38,18.38,0,0,0,2.54,8.94,13.66,13.66,0,0,0,8.19,5.7c1.49.43,3,.68,4.4,1-.54,1.4-1.06,2.82-1.66,4.2a1.42,1.42,0,0,1-.83.68c-3.57,1.07-6.55.85-8.85-2.67a8.15,8.15,0,0,0-3.81-3.53,6.55,6.55,0,0,0-2.42-.47c-1,0-1.18.65-.47,1.36a23.18,23.18,0,0,1,2.17,1.85,17.05,17.05,0,0,1,2.3,3.66,7.1,7.1,0,0,0,6.49,4.51,35.28,35.28,0,0,0,4.24,0c.74,0,1.06.11,1,.9,0,1.61.05,3.22,0,4.83,0,1.83-1.06,2.62-2.79,2A34.56,34.56,0,0,1,16.09,57,34.6,34.6,0,0,1,36.48,19.1,32,32,0,0,1,48,16.46a34.25,34.25,0,0,1,32.28,18Z" style="fill:#333"/></svg>