<svg id="Layer_1" data-name="Layer 1" xmlns="http://www.w3.org/2000/svg" viewBox="0 0 100 100"><title>social</title><path d="M71,7.7H29a5.94,5.94,0,0,0-5.16,3L2.87,47a6,6,0,0,0,0,6l21,36.34a5.94,5.94,0,0,0,5.16,3H71a5.94,5.94,0,0,0,5.16-3L97.13,53a6,6,0,0,0,0-6l-21-36.34A5.94,5.94,0,0,0,71,7.7Z" style="fill:#e28337"/><path d="M27.38,55.3h4.73V69.75H65.83V55.35h4.81V74.54H27.38Z" style="fill:#fbfafc"/><path d="M62.07,54.2l-1,4.7L37.43,54l1-4.73Z" style="fill:#fbfafc"/><path d="M40.57,42.63l2-4.39L64.43,48.47l-2,4.39Z" style="fill:#fbfafc"/><path d="M73,39.84l-3.85,2.89L54.76,23.38l3.84-2.89Z" style="fill:#fbfafc"/><path d="M46.65,31.88l3-3.69L68.22,43.67l-3.07,3.7Z" style="fill:#fbfafc"/><path d="M37,64.82V60.16H61v4.66Z" style="fill:#fbfafc"/></svg>